<?xml version="1.0" encoding="UTF-8" standalone="no"?>
<svg
   version="1.1"
   id="Layer_1"
   x="0px"
   y="0px"
   width="100%"
   viewBox="0 0 512 512"
   enable-background="new 0 0 512 512"
   xml:space="preserve"
   sodipodi:docname="email.svg"
   inkscape:version="1.2.2 (732a01da63, 2022-12-09)"
   xmlns:inkscape="http://www.inkscape.org/namespaces/inkscape"
   xmlns:sodipodi="http://sodipodi.sourceforge.net/DTD/sodipodi-0.dtd"
   xmlns:xlink="http://www.w3.org/1999/xlink"
   xmlns="http://www.w3.org/2000/svg"
   xmlns:svg="http://www.w3.org/2000/svg"><defs
   id="defs1129"><color-profile
     name="sRGB-IEC61966-2.1"
     xlink:href="../../../../Windows/system32/spool/drivers/color/sRGB%20Color%20Space%20Profile.icm"
     id="color-profile1135" /><color-profile
     name="Agfa-:-Swop-Standard"
     xlink:href="../../../../Windows/system32/spool/drivers/color/RSWOP.icm"
     id="color-profile1137" /></defs><sodipodi:namedview
   id="namedview1127"
   pagecolor="#ffffff"
   bordercolor="#111111"
   borderopacity="0"
   inkscape:showpageshadow="0"
   inkscape:pageopacity="0"
   inkscape:pagecheckerboard="1"
   inkscape:deskcolor="#d1d1d1"
   showgrid="false"
   inkscape:zoom="1.0253906"
   inkscape:cx="255.51238"
   inkscape:cy="256.48762"
   inkscape:window-width="1360"
   inkscape:window-height="705"
   inkscape:window-x="-8"
   inkscape:window-y="-8"
   inkscape:window-maximized="1"
   inkscape:current-layer="Layer_1" />

<path
   fill="#69C395"
   opacity="1.000000"
   stroke="none"
   d=" M434.911224,432.999908   C315.936340,432.999908 197.448700,432.867004 78.961906,433.125671   C58.276497,433.170807 38.937443,416.857910 34.107914,397.798523   C33.312420,394.659149 33.046249,391.309235 33.044201,388.056305   C32.988865,300.065735 33.002483,212.075119 32.994473,124.084511   C32.993896,117.735779 34.954449,112.090569 38.606625,106.649284   C54.596592,119.069565 70.192215,131.212952 85.819946,143.314896   C104.818527,158.027176 123.896774,172.637054 142.843292,187.415909   C161.805878,202.207321 180.552780,217.276428 199.585205,231.976547   C208.734970,239.043564 217.718094,246.679077 227.835281,252.070801   C252.416946,265.171051 275.942413,261.539795 297.744537,244.748413   C315.107117,231.376282 332.521576,218.070648 349.805328,204.597366   C368.786041,189.801346 387.579681,174.765137 406.573578,159.986221   C423.608124,146.731873 440.831238,133.720108 457.913300,120.526405   C463.614960,116.122589 469.137787,111.487244 475.158295,106.621597   C479.237061,111.790741 480.958496,117.549278 480.964752,123.761002   C481.023865,182.587982 481.000000,241.415070 481.000000,300.242126   C481.000000,329.239044 480.646698,358.241699 481.119507,387.230896   C481.455933,407.857666 464.212921,427.852661 445.145508,431.946869   C441.967712,432.629211 438.651184,432.665222 434.911224,432.999908  z"
   id="path1122" />
<path
   fill="#467F59"
   opacity="1.000000"
   stroke="none"
   d=" M134.200653,141.747009   C122.680565,132.886520 111.396027,124.305496 100.176186,115.640671   C88.694016,106.773254 77.266731,97.834625 65.839783,88.896019   C64.455215,87.812950 63.222195,86.536156 60.700214,84.239136   C66.387169,82.963432 70.758278,81.131485 75.131706,81.125900   C196.425156,80.971008 317.718872,80.973335 439.012360,81.117584   C443.295288,81.122673 447.576172,82.840736 451.858032,83.760429   C451.994080,84.262947 452.130157,84.765472 452.266205,85.267990   C448.154846,88.656853 444.125183,92.150932 439.918884,95.417519   C412.040558,117.067581 384.127319,138.672699 356.219360,160.284637   C337.204773,175.009567 318.170532,189.709183 299.165039,204.445831   C291.349670,210.505798 283.796783,216.928070 275.751373,222.662048   C263.185791,231.617569 246.972427,230.322235 235.008835,220.609543   C220.928314,209.178253 206.477066,198.203430 192.180054,187.039001   C172.944824,172.018372 153.703369,157.005737 134.200653,141.747009  z"
   id="path1124" />
</svg>
