<svg version="1.1" id="Layer_1" xmlns="http://www.w3.org/2000/svg" xmlns:xlink="http://www.w3.org/1999/xlink" x="0px" y="0px"
	 width="100%" viewBox="0 0 512 512" enable-background="new 0 0 512 512" xml:space="preserve">
<path fill="#000000" opacity="1.000000" stroke="none" 
	d="
M345.000000,513.000000 
	C230.027939,513.000000 115.555870,513.000000 1.041900,513.000000 
	C1.041900,342.402924 1.041900,171.805817 1.041900,1.104355 
	C171.555405,1.104355 342.110901,1.104355 512.833191,1.104355 
	C512.833191,171.666534 512.833191,342.333252 512.833191,513.000000 
	C457.139069,513.000000 401.319550,513.000000 345.000000,513.000000 
M315.950104,311.951782 
	C315.950104,311.951782 315.933258,311.884857 315.242371,312.418091 
	C315.163208,313.074677 315.014984,313.731201 315.014709,314.387817 
	C314.999298,351.437653 314.987000,388.487518 315.032837,425.537292 
	C315.034332,426.743866 315.640961,427.949738 315.952484,429.929443 
	C317.169006,441.081512 330.262756,449.153015 338.059814,449.087524 
	C358.046082,448.919647 378.034760,449.059052 398.021942,448.963440 
	C401.622925,448.946228 405.259155,448.627441 408.814789,448.050964 
	C430.725830,444.498413 449.049957,422.860107 449.037903,400.787842 
	C449.007935,345.988373 449.016174,291.188904 448.992767,236.389450 
	C448.989563,228.896790 448.893219,221.404175 448.962158,212.992355 
	C448.974792,179.832108 449.015778,146.671814 448.955536,113.511696 
	C448.949615,110.246277 448.681488,106.896568 447.926819,103.730980 
	C442.869415,82.517357 422.191559,64.855522 399.383881,64.907784 
	C304.068817,65.126221 208.752991,64.989830 113.437469,65.042313 
	C110.177597,65.044106 106.831314,65.310623 103.672424,66.067673 
	C82.703613,71.092964 64.878410,91.535576 64.921661,114.028664 
	C65.105614,209.677139 64.990318,305.326141 65.042297,400.974945 
	C65.043976,404.063568 65.371407,407.221191 66.060104,410.229156 
	C70.910233,431.412903 92.499161,449.498260 114.924858,449.159637 
	C153.242294,448.581085 191.577713,448.728027 229.899567,449.135345 
	C245.016388,449.295990 255.557922,437.843445 255.840286,424.085724 
	C256.339264,399.772430 255.870453,375.439301 255.952438,350.166473 
	C255.968689,339.099579 256.018860,328.032532 255.958267,316.966064 
	C255.950714,315.585663 255.356903,314.208527 254.814163,312.295380 
	C254.187576,311.909393 253.560989,311.523407 252.012009,311.024902 
	C243.899704,311.013000 235.785034,311.113678 227.676071,310.943085 
	C223.434189,310.853851 219.202332,310.288177 214.665222,309.273285 
	C213.777069,306.729248 212.169815,304.198883 212.121048,301.638855 
	C211.864258,288.154266 211.997757,274.662231 212.002167,261.172760 
	C212.004410,254.313934 215.239441,251.032806 222.117096,251.008820 
	C231.609558,250.975708 241.107239,250.820557 250.592529,251.083588 
	C254.725296,251.198181 256.142242,249.921127 256.080048,245.716965 
	C255.870682,231.564453 255.825974,217.404114 256.053162,203.252151 
	C256.249237,191.036880 258.775848,179.136612 264.417877,168.326157 
	C276.679932,144.831253 297.342651,133.932632 322.943939,132.171326 
	C336.867126,131.213440 350.910370,131.984039 364.899414,132.008423 
	C370.757843,132.018631 372.890106,133.893387 374.036682,140.903290 
	C373.986298,153.582321 373.935883,166.261353 373.302948,179.312225 
	C371.145691,184.205276 366.673981,184.844345 362.216980,184.939926 
	C353.766815,185.121140 345.302917,184.744476 336.856415,184.994827 
	C325.921204,185.318954 315.978943,192.449463 315.269043,203.385071 
	C315.193512,218.410294 315.108551,233.435486 315.085266,248.460785 
	C315.084503,248.945312 315.715637,249.430817 316.432312,250.020248 
	C316.432312,250.020248 316.826447,250.025940 317.383392,250.707611 
	C334.913544,250.762131 352.443695,250.816650 370.592438,251.217117 
	C374.070953,253.483521 375.965576,256.101624 375.299408,260.829407 
	C373.533691,273.359711 372.364655,285.974854 371.007019,298.561523 
	C370.408264,304.112518 369.447418,309.369843 362.040894,311.037018 
	C348.021088,311.024628 334.001190,310.986572 319.981628,311.040375 
	C318.615265,311.045624 317.251099,311.617584 315.950104,311.951782 
z"/>
<path fill="#4FBE9F" opacity="1.000000" stroke="none" 
	d="
M255.806732,351.114471 
	C255.870453,375.439301 256.339264,399.772430 255.840286,424.085724 
	C255.557922,437.843445 245.016388,449.295990 229.899567,449.135345 
	C191.577713,448.728027 153.242294,448.581085 114.924858,449.159637 
	C92.499161,449.498260 70.910233,431.412903 66.060104,410.229156 
	C65.371407,407.221191 65.043976,404.063568 65.042297,400.974945 
	C64.990318,305.326141 65.105614,209.677139 64.921661,114.028664 
	C64.878410,91.535576 82.703613,71.092964 103.672424,66.067673 
	C106.831314,65.310623 110.177597,65.044106 113.437469,65.042313 
	C208.752991,64.989830 304.068817,65.126221 399.383881,64.907784 
	C422.191559,64.855522 442.869415,82.517357 447.926819,103.730980 
	C448.681488,106.896568 448.949615,110.246277 448.955536,113.511696 
	C449.015778,146.671814 448.974792,179.832108 448.626587,213.285431 
	C428.399475,193.694336 408.520294,173.797852 388.607025,153.935532 
	C384.135864,149.475830 379.545532,145.135574 374.898132,140.582458 
	C374.602356,140.238312 374.393280,140.086975 374.158905,139.970551 
	C372.890106,133.893387 370.757843,132.018631 364.899414,132.008423 
	C350.910370,131.984039 336.867126,131.213440 322.943939,132.171326 
	C297.342651,133.932632 276.679932,144.831253 264.417877,168.326157 
	C258.775848,179.136612 256.249237,191.036880 256.053162,203.252151 
	C255.825974,217.404114 255.870682,231.564453 256.080048,245.716965 
	C256.142242,249.921127 254.725296,251.198181 250.592529,251.083588 
	C241.107239,250.820557 231.609558,250.975708 222.117096,251.008820 
	C215.239441,251.032806 212.004410,254.313934 212.002167,261.172760 
	C211.997757,274.662231 211.864258,288.154266 212.121048,301.638855 
	C212.169815,304.198883 213.777069,306.729248 214.850525,309.882507 
	C215.612015,311.050873 216.188187,311.610016 216.972748,312.485352 
	C229.783188,325.335815 242.385223,337.870056 255.096802,350.549683 
	C255.380692,350.871704 255.580811,351.011536 255.806732,351.114471 
z"/>
<path fill="#09816C" opacity="1.000000" stroke="none" 
	d="
M375.010101,140.740326 
	C379.545532,145.135574 384.135864,149.475830 388.607025,153.935532 
	C408.520294,173.797852 428.399475,193.694336 448.565491,213.745010 
	C448.893219,221.404175 448.989563,228.896790 448.992767,236.389450 
	C449.016174,291.188904 449.007935,345.988373 449.037903,400.787842 
	C449.049957,422.860107 430.725830,444.498413 408.814789,448.050964 
	C405.259155,448.627441 401.622925,448.946228 398.021942,448.963440 
	C378.034760,449.059052 358.046082,448.919647 338.059814,449.087524 
	C330.262756,449.153015 317.169006,441.081512 315.971985,429.063660 
	C315.972076,389.426849 315.952667,350.655853 315.933289,311.884857 
	C315.933258,311.884857 315.950104,311.951782 316.394775,311.962708 
	C330.271881,311.981812 343.704498,312.024689 357.136597,311.959656 
	C359.082794,311.950256 361.026520,311.423615 362.971375,311.136322 
	C369.447418,309.369843 370.408264,304.112518 371.007019,298.561523 
	C372.364655,285.974854 373.533691,273.359711 375.299408,260.829407 
	C375.965576,256.101624 374.070953,253.483521 369.916199,250.858963 
	C367.426483,250.334000 365.613312,250.026001 363.799561,250.022522 
	C348.141907,249.992554 332.484161,250.017426 316.826447,250.025940 
	C316.826447,250.025940 316.432312,250.020248 316.234558,249.505035 
	C316.013550,233.610260 315.990326,218.230728 315.967102,202.851181 
	C315.978943,192.449463 325.921204,185.318954 336.856415,184.994827 
	C345.302917,184.744476 353.766815,185.121140 362.216980,184.939926 
	C366.673981,184.844345 371.145691,184.205276 373.803314,178.776764 
	C374.536346,176.297684 374.957611,174.355316 374.970306,172.410263 
	C375.039246,161.853973 375.007294,151.297043 375.010101,140.740326 
z"/>
<path fill="#09816C" opacity="1.000000" stroke="none" 
	d="
M254.987259,350.404327 
	C242.385223,337.870056 229.783188,325.335815 217.567261,312.454285 
	C225.045731,312.076721 232.140381,312.144562 239.229691,311.980957 
	C243.801971,311.875458 248.366425,311.430328 252.934387,311.137421 
	C253.560989,311.523407 254.187576,311.909393 254.919373,313.043213 
	C255.012131,325.995483 254.999695,338.199921 254.987259,350.404327 
z"/>
<path fill="#1D937C" opacity="1.000000" stroke="none" 
	d="
M315.587830,312.151489 
	C315.952667,350.655853 315.972076,389.426849 315.978485,428.676880 
	C315.640961,427.949738 315.034332,426.743866 315.032837,425.537292 
	C314.987000,388.487518 314.999298,351.437653 315.014709,314.387817 
	C315.014984,313.731201 315.163208,313.074677 315.587830,312.151489 
z"/>
<path fill="#259982" opacity="1.000000" stroke="none" 
	d="
M317.104919,250.366776 
	C332.484161,250.017426 348.141907,249.992554 363.799561,250.022522 
	C365.613312,250.026001 367.426483,250.334000 369.606873,250.685989 
	C352.443695,250.816650 334.913544,250.762131 317.104919,250.366776 
z"/>
<path fill="#1B9078" opacity="1.000000" stroke="none" 
	d="
M315.618042,203.118134 
	C315.990326,218.230728 316.013550,233.610260 316.044495,249.452820 
	C315.715637,249.430817 315.084503,248.945312 315.085266,248.460785 
	C315.108551,233.435486 315.193512,218.410294 315.618042,203.118134 
z"/>
<path fill="#1B9078" opacity="1.000000" stroke="none" 
	d="
M362.506134,311.086670 
	C361.026520,311.423615 359.082794,311.950256 357.136597,311.959656 
	C343.704498,312.024689 330.271881,311.981812 316.362671,311.950043 
	C317.251099,311.617584 318.615265,311.045624 319.981628,311.040375 
	C334.001190,310.986572 348.021088,311.024628 362.506134,311.086670 
z"/>
<path fill="#259982" opacity="1.000000" stroke="none" 
	d="
M252.473206,311.081177 
	C248.366425,311.430328 243.801971,311.875458 239.229691,311.980957 
	C232.140381,312.144562 225.045731,312.076721 217.358856,312.138062 
	C216.188187,311.610016 215.612015,311.050873 215.000900,310.214722 
	C219.202332,310.288177 223.434189,310.853851 227.676071,310.943085 
	C235.785034,311.113678 243.899704,311.013000 252.473206,311.081177 
z"/>
<path fill="#1B9078" opacity="1.000000" stroke="none" 
	d="
M374.898132,140.582458 
	C375.007294,151.297043 375.039246,161.853973 374.970306,172.410263 
	C374.957611,174.355316 374.536346,176.297684 374.094604,178.590851 
	C373.935883,166.261353 373.986298,153.582321 374.097778,140.436920 
	C374.393280,140.086975 374.602356,140.238312 374.898132,140.582458 
z"/>
<path fill="#1B9078" opacity="1.000000" stroke="none" 
	d="
M255.096802,350.549683 
	C254.999695,338.199921 255.012131,325.995483 255.029663,313.310486 
	C255.356903,314.208527 255.950714,315.585663 255.958267,316.966064 
	C256.018860,328.032532 255.968689,339.099579 255.879578,350.640472 
	C255.580811,351.011536 255.380692,350.871704 255.096802,350.549683 
z"/>
</svg>