<svg version="1.1" id="Layer_1" xmlns="http://www.w3.org/2000/svg" xmlns:xlink="http://www.w3.org/1999/xlink" x="0px" y="0px"
	 width="100%" viewBox="0 0 512 512" enable-background="new 0 0 512 512" xml:space="preserve">
<path fill="#000000" opacity="1.000000" stroke="none" 
	d="
M303.000000,513.000000 
	C202.024521,513.000000 101.549034,513.000000 1.036777,513.000000 
	C1.036777,342.399506 1.036777,171.798981 1.036777,1.099231 
	C171.558823,1.099231 342.117737,1.099231 512.838318,1.099231 
	C512.838318,171.666550 512.838318,342.333252 512.838318,513.000000 
	C443.132294,513.000000 373.316132,513.000000 303.000000,513.000000 
M66.453842,355.945068 
	C69.508842,365.353241 71.739738,375.133392 75.784309,384.094940 
	C85.242157,405.050751 100.481339,421.163666 120.156586,433.013336 
	C136.557343,442.890900 154.230331,448.911255 173.514053,448.955444 
	C229.677612,449.084106 285.841919,449.080078 342.005127,448.891357 
	C348.341156,448.870056 354.788025,447.842255 360.985321,446.418640 
	C387.422394,440.345795 408.920349,426.260590 425.498688,404.913544 
	C440.471069,385.634430 448.897095,363.768219 448.958588,339.162506 
	C449.095215,284.498901 448.903473,229.834457 449.061554,175.170990 
	C449.108063,159.085129 444.901703,144.126587 438.268280,129.761230 
	C429.716766,111.242119 416.651031,96.253639 399.966705,84.770195 
	C381.972351,72.385101 361.973633,65.063072 339.831635,65.027786 
	C284.834534,64.940140 229.836960,65.092247 174.840149,64.940483 
	C158.926849,64.896576 144.098740,69.059166 129.925034,75.647041 
	C107.944351,85.863564 91.227631,102.043953 79.149452,122.926590 
	C71.213905,136.646851 65.359795,151.657028 65.279762,167.358170 
	C64.960693,229.951065 65.719498,292.549438 66.453842,355.945068 
z"/>
<path fill="#4FBE9F" opacity="1.000000" stroke="none" 
	d="
M66.266556,355.545410 
	C65.719498,292.549438 64.960693,229.951065 65.279762,167.358170 
	C65.359795,151.657028 71.213905,136.646851 79.149452,122.926590 
	C91.227631,102.043953 107.944351,85.863564 129.925034,75.647041 
	C144.098740,69.059166 158.926849,64.896576 174.840149,64.940483 
	C229.836960,65.092247 284.834534,64.940140 339.831635,65.027786 
	C361.973633,65.063072 381.972351,72.385101 399.966705,84.770195 
	C416.651031,96.253639 429.716766,111.242119 438.268280,129.761230 
	C444.901703,144.126587 449.108063,159.085129 449.061554,175.170990 
	C448.903473,229.834457 449.095215,284.498901 448.958588,339.162506 
	C448.897095,363.768219 440.471069,385.634430 425.498688,404.913544 
	C408.920349,426.260590 387.422394,440.345795 360.985321,446.418640 
	C354.788025,447.842255 348.341156,448.870056 342.005127,448.891357 
	C285.841919,449.080078 229.677612,449.084106 173.514053,448.955444 
	C154.230331,448.911255 136.557343,442.890900 120.156586,433.013336 
	C100.481339,421.163666 85.242157,405.050751 75.784309,384.094940 
	C71.739738,375.133392 69.508842,365.353241 66.266556,355.545410 
M367.989502,402.565338 
	C395.391327,387.934143 409.952515,365.227081 410.094635,334.035431 
	C410.329926,282.391754 410.290375,230.745743 410.112152,179.101593 
	C409.966614,136.922806 376.916351,103.965904 334.841553,103.879730 
	C282.863800,103.773262 230.885483,103.764740 178.907776,103.883209 
	C137.159088,103.978363 104.034958,137.004593 103.890083,178.829163 
	C103.709457,230.973083 103.705612,283.118622 103.892082,335.262482 
	C104.041458,377.036255 137.209900,410.018341 179.013321,410.116150 
	C230.991013,410.237793 282.969299,410.093536 334.947113,410.185974 
	C346.343689,410.206268 357.050537,407.663086 367.989502,402.565338 
z"/>
<path fill="#09816C" opacity="1.000000" stroke="none" 
	d="
M367.651581,402.732422 
	C357.050537,407.663086 346.343689,410.206268 334.947113,410.185974 
	C282.969299,410.093536 230.991013,410.237793 179.013321,410.116150 
	C137.209900,410.018341 104.041458,377.036255 103.892082,335.262482 
	C103.705612,283.118622 103.709457,230.973083 103.890083,178.829163 
	C104.034958,137.004593 137.159088,103.978363 178.907776,103.883209 
	C230.885483,103.764740 282.863800,103.773262 334.841553,103.879730 
	C376.916351,103.965904 409.966614,136.922806 410.112152,179.101593 
	C410.290375,230.745743 410.329926,282.391754 410.094635,334.035431 
	C409.952515,365.227081 395.391327,387.934143 367.651581,402.732422 
M296.544769,165.930893 
	C279.148315,158.380508 261.073608,156.353348 242.323166,158.853760 
	C190.556122,165.756927 151.669601,216.206329 158.300659,268.032898 
	C165.884323,327.304596 219.567856,365.776611 278.189209,353.950348 
	C327.790955,343.943726 362.955627,293.784729 355.318695,243.848145 
	C349.783173,207.652420 330.117737,181.969803 296.544769,165.930893 
M370.534332,157.717972 
	C368.846252,148.278152 362.163635,143.052490 353.883118,144.697083 
	C345.822052,146.298065 340.968231,153.972672 342.953552,161.978195 
	C344.518707,168.289368 350.402191,172.654892 357.026001,172.419891 
	C364.501587,172.154678 369.291107,167.243668 370.534332,157.717972 
z"/>
<path fill="#EAEDF1" opacity="1.000000" stroke="none" 
	d="
M296.904785,166.048325 
	C330.117737,181.969803 349.783173,207.652420 355.318695,243.848145 
	C362.955627,293.784729 327.790955,343.943726 278.189209,353.950348 
	C219.567856,365.776611 165.884323,327.304596 158.300659,268.032898 
	C151.669601,216.206329 190.556122,165.756927 242.323166,158.853760 
	C261.073608,156.353348 279.148315,158.380508 296.904785,166.048325 
M208.271667,220.814896 
	C198.859070,233.964828 194.959839,248.479462 196.828552,264.649139 
	C200.735855,298.458282 232.674469,322.238892 267.194305,316.840424 
	C300.314545,311.660828 323.633270,278.078217 316.462799,245.261414 
	C311.068207,220.572220 295.914185,204.199112 271.387177,198.231827 
	C246.223083,192.109528 225.148697,200.220154 208.271667,220.814896 
z"/>
<path fill="#D8DDE0" opacity="1.000000" stroke="none" 
	d="
M370.569031,158.107880 
	C369.291107,167.243668 364.501587,172.154678 357.026001,172.419891 
	C350.402191,172.654892 344.518707,168.289368 342.953552,161.978195 
	C340.968231,153.972672 345.822052,146.298065 353.883118,144.697083 
	C362.163635,143.052490 368.846252,148.278152 370.569031,158.107880 
z"/>
<path fill="#50BE9F" opacity="1.000000" stroke="none" 
	d="
M208.491745,220.531876 
	C225.148697,200.220154 246.223083,192.109528 271.387177,198.231827 
	C295.914185,204.199112 311.068207,220.572220 316.462799,245.261414 
	C323.633270,278.078217 300.314545,311.660828 267.194305,316.840424 
	C232.674469,322.238892 200.735855,298.458282 196.828552,264.649139 
	C194.959839,248.479462 198.859070,233.964828 208.491745,220.531876 
z"/>
</svg>