<?xml version="1.0" encoding="UTF-8" standalone="no"?>
<svg
   version="1.1"
   id="Layer_1"
   x="0px"
   y="0px"
   width="100%"
   viewBox="0 0 512 512"
   enable-background="new 0 0 512 512"
   xml:space="preserve"
   sodipodi:docname="instagram.svg"
   inkscape:version="1.2.2 (732a01da63, 2022-12-09)"
   xmlns:inkscape="http://www.inkscape.org/namespaces/inkscape"
   xmlns:sodipodi="http://sodipodi.sourceforge.net/DTD/sodipodi-0.dtd"
   xmlns="http://www.w3.org/2000/svg"
   xmlns:svg="http://www.w3.org/2000/svg"><defs
   id="defs1492" /><sodipodi:namedview
   id="namedview1490"
   pagecolor="#ffffff"
   bordercolor="#111111"
   borderopacity="1"
   inkscape:showpageshadow="0"
   inkscape:pageopacity="0"
   inkscape:pagecheckerboard="1"
   inkscape:deskcolor="#d1d1d1"
   showgrid="false"
   inkscape:zoom="1.0253906"
   inkscape:cx="132.63238"
   inkscape:cy="256.48762"
   inkscape:window-width="1360"
   inkscape:window-height="705"
   inkscape:window-x="-8"
   inkscape:window-y="-8"
   inkscape:window-maximized="1"
   inkscape:current-layer="Layer_1" />

<path
   fill="#4fbe9f"
   opacity="1"
   stroke="none"
   d="M 45.786556,346.76827 C 45.239498,283.7723 44.480693,221.17392 44.799762,158.58103 c 0.08003,-15.70114 5.934143,-30.71132 13.86969,-44.43158 12.078179,-20.88264 28.794899,-37.063029 50.775578,-47.279552 14.17371,-6.587875 29.00182,-10.750465 44.91512,-10.706558 54.99681,0.151764 109.99438,-3.43e-4 164.99148,0.0873 22.142,0.03529 42.14072,7.357315 60.13507,19.742409 16.68433,11.483444 29.75007,26.471928 38.30158,44.991038 6.63342,14.36535 10.83978,29.3239 10.79327,45.40976 -0.15808,54.66346 0.0337,109.32791 -0.10296,163.99151 -0.0615,24.60572 -8.48752,46.47193 -23.4599,65.75104 -16.57834,21.34705 -38.0763,35.43225 -64.51337,41.5051 -6.1973,1.42361 -12.64416,2.45141 -18.98019,2.47271 -56.16321,0.18873 -112.32752,0.19275 -168.49108,0.0641 -19.28372,-0.0442 -36.95671,-6.06454 -53.357464,-15.94211 C 80.001339,412.38652 64.762157,396.27361 55.304309,375.3178 51.259738,366.35625 49.028842,356.5761 45.786556,346.76827 M 347.5095,393.7882 c 27.40183,-14.6312 41.96301,-37.33826 42.10513,-68.52991 0.2353,-51.64368 0.19574,-103.28969 0.0175,-154.93384 -0.14554,-42.17879 -33.1958,-75.135689 -75.2706,-75.221863 -51.97775,-0.106468 -103.95607,-0.11499 -155.93377,0.0035 -41.74869,0.09515 -74.872822,33.121384 -75.017697,74.945954 -0.180626,52.14392 -0.184471,104.28946 0.002,156.43332 0.149376,41.77377 33.317818,74.75586 75.121238,74.85367 51.97769,0.12164 103.95598,-0.0226 155.93379,0.0698 11.39658,0.0203 22.10343,-2.52289 33.04239,-7.62063 z"
   id="path1479" />
<path
   fill="#09816c"
   opacity="1"
   stroke="none"
   d="m 347.17158,393.95528 c -10.60104,4.93066 -21.30789,7.47385 -32.70447,7.45355 -51.97781,-0.0924 -103.9561,0.0518 -155.93379,-0.0698 -41.80342,-0.0978 -74.971862,-33.0799 -75.121238,-74.85367 -0.18647,-52.14386 -0.182625,-104.2894 -0.002,-156.43332 0.144875,-41.82457 33.269007,-74.8508 75.017697,-74.945954 51.9777,-0.118469 103.95602,-0.109947 155.93377,-0.0035 42.0748,0.08617 75.12506,33.043073 75.2706,75.221863 0.17822,51.64415 0.21778,103.29016 -0.0175,154.93384 -0.14212,31.19165 -14.7033,53.89871 -42.44305,68.69699 M 276.06477,157.15375 c -17.39646,-7.55038 -35.47116,-9.57754 -54.2216,-7.07713 -51.76705,6.90316 -90.65357,57.35257 -84.02251,109.17914 7.58366,59.27169 61.2672,97.74371 119.88855,85.91745 49.60174,-10.00663 84.76642,-60.16562 77.12948,-110.10221 -5.53552,-36.19572 -25.20095,-61.87834 -58.77392,-77.91725 m 73.98956,-8.21292 c -1.68808,-9.43982 -8.3707,-14.66548 -16.65121,-13.02089 -8.06107,1.60098 -12.91489,9.27559 -10.92957,17.28111 1.56516,6.31118 7.44864,10.6767 14.07245,10.4417 7.47559,-0.26521 12.26511,-5.17622 13.50833,-14.70192 z"
   id="path1481" />


<path
   fill="#50be9f"
   opacity="1"
   stroke="none"
   d="m 188.01174,211.75473 c 16.65696,-20.31172 37.73134,-28.42234 62.89544,-22.30005 24.527,5.96729 39.68103,22.3404 45.07562,47.02959 7.17047,32.8168 -16.14826,66.39942 -49.2685,71.57901 -34.51983,5.39847 -66.45845,-18.38214 -70.36575,-52.19128 -1.86871,-16.16968 2.03052,-30.68431 11.66319,-44.11727 z"
   id="path1487" />
</svg>
