<?xml version="1.0" encoding="UTF-8" standalone="no"?>
<svg
   version="1.1"
   id="Layer_1"
   x="0px"
   y="0px"
   width="100%"
   viewBox="0 0 512 512"
   enable-background="new 0 0 512 512"
   xml:space="preserve"
   sodipodi:docname="linkedin.svg"
   inkscape:version="1.2.2 (732a01da63, 2022-12-09)"
   xmlns:inkscape="http://www.inkscape.org/namespaces/inkscape"
   xmlns:sodipodi="http://sodipodi.sourceforge.net/DTD/sodipodi-0.dtd"
   xmlns="http://www.w3.org/2000/svg"
   xmlns:svg="http://www.w3.org/2000/svg"><defs
   id="defs1532" /><sodipodi:namedview
   id="namedview1530"
   pagecolor="#ffffff"
   bordercolor="#111111"
   borderopacity="1"
   inkscape:showpageshadow="0"
   inkscape:pageopacity="0"
   inkscape:pagecheckerboard="1"
   inkscape:deskcolor="#d1d1d1"
   showgrid="false"
   inkscape:zoom="1.0253906"
   inkscape:cx="236.98286"
   inkscape:cy="256.48762"
   inkscape:window-width="1360"
   inkscape:window-height="705"
   inkscape:window-x="-8"
   inkscape:window-y="-8"
   inkscape:window-maximized="1"
   inkscape:current-layer="Layer_1" />

<path
   fill="#4FBE9F"
   opacity="1.000000"
   stroke="none"
   d=" M217.837448,448.821899   C178.183640,448.881134 138.529541,448.873291 98.876160,449.036407   C85.161377,449.092804 75.189423,442.875977 68.861198,431.147827   C66.627312,427.007721 65.166130,421.876495 65.157204,417.194336   C64.953606,310.389984 65.046127,203.585114 64.950096,96.780457   C64.936035,81.140747 80.127213,64.938927 96.876068,64.953369   C203.680740,65.045479 310.485565,65.035851 417.290253,64.962067   C433.335785,64.950981 449.037933,80.533920 449.023163,96.515343   C448.951141,174.327530 448.959015,252.139786 448.685730,330.080597   C444.102692,290.519806 426.163055,257.858093 397.089691,230.985168   C395.712250,229.711975 393.800323,229.017044 391.981445,227.743256   C381.224945,214.293411 367.446472,206.404037 350.819366,204.418060   C341.331207,203.284775 331.628296,203.949203 321.648590,203.626678   C319.294617,203.306412 317.314331,203.042297 315.333649,203.039368   C292.547607,203.005661 269.760132,202.878845 246.976517,203.114990   C242.221466,203.164261 238.932281,201.682968 235.666565,198.334015   C222.894547,185.236542 209.878403,172.376526 196.896011,159.485611   C195.522369,158.121643 193.774017,157.134995 192.195786,155.566360   C197.481964,129.403076 174.448624,104.318184 148.446075,107.499603   C132.169937,109.490997 120.391426,117.854904 114.279579,133.041992   C107.992882,148.663559 111.201637,163.046402 121.694031,176.176285   C121.299080,188.398209 121.173615,200.286774 121.053024,212.633575   C120.945427,214.416534 120.734940,215.741241 120.734573,217.065994   C120.718071,276.595428 120.729744,336.124878 120.703751,395.654327   C120.701332,401.200012 123.223579,404.759460 128.659180,406.758453   C129.522339,408.024658 130.092697,409.080261 130.929840,409.843140   C150.028030,427.247833 172.130615,439.032806 197.296494,444.919098   C204.076813,446.505066 210.986923,447.536133 217.837448,448.821899  z"
   id="path1519" />
<path
   fill="#0A816C"
   opacity="1.000000"
   stroke="none"
   d=" M218.314117,448.884521   C210.986923,447.536133 204.076813,446.505066 197.296494,444.919098   C172.130615,439.032806 150.028030,427.247833 130.929840,409.843140   C130.092697,409.080261 129.522339,408.024658 129.161682,406.845093   C143.483810,406.640106 157.472061,406.749573 171.460114,406.730988   C180.174500,406.719391 183.917084,402.929871 183.919861,394.212738   C183.938599,335.584045 183.940857,276.955383 183.917267,218.326691   C183.913879,209.884216 180.129211,206.118973 171.712463,206.089905   C159.054153,206.046204 146.392685,206.236191 133.738449,206.005035   C128.265762,205.905045 124.008553,207.501480 121.048141,212.175354   C121.173615,200.286774 121.299080,188.398209 121.956024,176.405533   C134.069748,187.756012 147.807281,191.885803 163.491165,187.277054   C179.143402,182.677597 188.547195,171.835831 192.199509,155.973297   C193.774017,157.134995 195.522369,158.121643 196.896011,159.485611   C209.878403,172.376526 222.894547,185.236542 235.666565,198.334015   C238.932281,201.682968 242.221466,203.164261 246.976517,203.114990   C269.760132,202.878845 292.547607,203.005661 315.333649,203.039368   C317.314331,203.042297 319.294617,203.306412 321.222900,203.681976   C307.086090,205.623230 294.420868,210.425262 284.004517,220.472916   C282.657532,221.772232 279.661011,223.143021 278.579895,222.511078   C277.031433,221.605972 275.921387,218.951401 275.712036,216.931076   C274.889557,208.993698 271.964355,206.100586 263.820343,206.083679   C250.655579,206.056320 237.490646,206.061630 224.325851,206.082840   C215.486099,206.097076 212.210220,209.311432 212.207321,218.121201   C212.187897,277.113037 212.186401,336.104889 212.208679,395.096741   C212.211884,403.602478 215.564148,406.933502 224.008423,406.955292   C236.839905,406.988434 249.671524,406.971741 262.503082,406.962646   C272.416382,406.955627 275.230713,404.139191 275.234558,394.162201   C275.246124,363.999695 275.136810,333.836670 275.291534,303.674957   C275.350555,292.168365 277.952667,281.178558 284.434204,271.461853   C292.161621,259.877441 303.493591,256.356293 316.685608,258.176971   C328.779480,259.846100 337.135803,266.950562 339.957550,278.629181   C342.314301,288.383331 343.523621,298.615967 343.683868,308.661530   C344.146301,337.649841 343.797211,366.650696 343.823212,395.646576   C343.830109,403.328461 347.108337,406.677216 354.753693,406.724548   C369.084503,406.813324 383.416504,406.804535 397.747467,406.730194   C405.616608,406.689362 408.987854,403.249420 408.988281,395.373138   C408.990082,362.211121 409.225098,329.045837 408.830261,295.888214   C408.546692,272.074890 405.732758,248.684586 392.137299,228.052826   C393.800323,229.017044 395.712250,229.711975 397.089691,230.985168   C426.163055,257.858093 444.102692,290.519806 448.632690,330.538269   C448.889191,360.487335 449.470764,390.119476 448.785400,419.722290   C448.432129,434.980682 434.315582,448.770935 419.491547,448.862335   C352.593658,449.274841 285.691467,448.984314 218.314117,448.884521  z"
   id="path1521" />



</svg>
