<svg version="1.1" id="Layer_1" xmlns="http://www.w3.org/2000/svg" xmlns:xlink="http://www.w3.org/1999/xlink" x="0px" y="0px"
	 width="100%" viewBox="0 0 512 512" enable-background="new 0 0 512 512" xml:space="preserve">
<path fill="#000000" opacity="1.000000" stroke="none" 
	d="
M282.000000,513.000000 
	C188.022812,513.000000 94.545624,513.000000 1.034216,513.000000 
	C1.034216,342.397797 1.034216,171.795563 1.034216,1.096670 
	C171.560532,1.096670 342.121155,1.096670 512.840881,1.096670 
	C512.840881,171.666550 512.840881,342.333252 512.840881,513.000000 
	C436.128876,513.000000 359.314423,513.000000 282.000000,513.000000 
M448.938660,329.952026 
	C448.959015,252.139786 448.951141,174.327530 449.023163,96.515343 
	C449.037933,80.533920 433.335785,64.950981 417.290253,64.962067 
	C310.485565,65.035851 203.680740,65.045479 96.876068,64.953369 
	C80.127213,64.938927 64.936035,81.140747 64.950096,96.780457 
	C65.046127,203.585114 64.953606,310.389984 65.157204,417.194336 
	C65.166130,421.876495 66.627312,427.007721 68.861198,431.147827 
	C75.189423,442.875977 85.161377,449.092804 98.876160,449.036407 
	C138.529541,448.873291 178.183640,448.881134 218.790802,448.947144 
	C285.691467,448.984314 352.593658,449.274841 419.491547,448.862335 
	C434.315582,448.770935 448.432129,434.980682 448.785400,419.722290 
	C449.470764,390.119476 448.889191,360.487335 448.938660,329.952026 
z"/>
<path fill="#4FBE9F" opacity="1.000000" stroke="none" 
	d="
M217.837448,448.821899 
	C178.183640,448.881134 138.529541,448.873291 98.876160,449.036407 
	C85.161377,449.092804 75.189423,442.875977 68.861198,431.147827 
	C66.627312,427.007721 65.166130,421.876495 65.157204,417.194336 
	C64.953606,310.389984 65.046127,203.585114 64.950096,96.780457 
	C64.936035,81.140747 80.127213,64.938927 96.876068,64.953369 
	C203.680740,65.045479 310.485565,65.035851 417.290253,64.962067 
	C433.335785,64.950981 449.037933,80.533920 449.023163,96.515343 
	C448.951141,174.327530 448.959015,252.139786 448.685730,330.080597 
	C444.102692,290.519806 426.163055,257.858093 397.089691,230.985168 
	C395.712250,229.711975 393.800323,229.017044 391.981445,227.743256 
	C381.224945,214.293411 367.446472,206.404037 350.819366,204.418060 
	C341.331207,203.284775 331.628296,203.949203 321.648590,203.626678 
	C319.294617,203.306412 317.314331,203.042297 315.333649,203.039368 
	C292.547607,203.005661 269.760132,202.878845 246.976517,203.114990 
	C242.221466,203.164261 238.932281,201.682968 235.666565,198.334015 
	C222.894547,185.236542 209.878403,172.376526 196.896011,159.485611 
	C195.522369,158.121643 193.774017,157.134995 192.195786,155.566360 
	C197.481964,129.403076 174.448624,104.318184 148.446075,107.499603 
	C132.169937,109.490997 120.391426,117.854904 114.279579,133.041992 
	C107.992882,148.663559 111.201637,163.046402 121.694031,176.176285 
	C121.299080,188.398209 121.173615,200.286774 121.053024,212.633575 
	C120.945427,214.416534 120.734940,215.741241 120.734573,217.065994 
	C120.718071,276.595428 120.729744,336.124878 120.703751,395.654327 
	C120.701332,401.200012 123.223579,404.759460 128.659180,406.758453 
	C129.522339,408.024658 130.092697,409.080261 130.929840,409.843140 
	C150.028030,427.247833 172.130615,439.032806 197.296494,444.919098 
	C204.076813,446.505066 210.986923,447.536133 217.837448,448.821899 
z"/>
<path fill="#0A816C" opacity="1.000000" stroke="none" 
	d="
M218.314117,448.884521 
	C210.986923,447.536133 204.076813,446.505066 197.296494,444.919098 
	C172.130615,439.032806 150.028030,427.247833 130.929840,409.843140 
	C130.092697,409.080261 129.522339,408.024658 129.161682,406.845093 
	C143.483810,406.640106 157.472061,406.749573 171.460114,406.730988 
	C180.174500,406.719391 183.917084,402.929871 183.919861,394.212738 
	C183.938599,335.584045 183.940857,276.955383 183.917267,218.326691 
	C183.913879,209.884216 180.129211,206.118973 171.712463,206.089905 
	C159.054153,206.046204 146.392685,206.236191 133.738449,206.005035 
	C128.265762,205.905045 124.008553,207.501480 121.048141,212.175354 
	C121.173615,200.286774 121.299080,188.398209 121.956024,176.405533 
	C134.069748,187.756012 147.807281,191.885803 163.491165,187.277054 
	C179.143402,182.677597 188.547195,171.835831 192.199509,155.973297 
	C193.774017,157.134995 195.522369,158.121643 196.896011,159.485611 
	C209.878403,172.376526 222.894547,185.236542 235.666565,198.334015 
	C238.932281,201.682968 242.221466,203.164261 246.976517,203.114990 
	C269.760132,202.878845 292.547607,203.005661 315.333649,203.039368 
	C317.314331,203.042297 319.294617,203.306412 321.222900,203.681976 
	C307.086090,205.623230 294.420868,210.425262 284.004517,220.472916 
	C282.657532,221.772232 279.661011,223.143021 278.579895,222.511078 
	C277.031433,221.605972 275.921387,218.951401 275.712036,216.931076 
	C274.889557,208.993698 271.964355,206.100586 263.820343,206.083679 
	C250.655579,206.056320 237.490646,206.061630 224.325851,206.082840 
	C215.486099,206.097076 212.210220,209.311432 212.207321,218.121201 
	C212.187897,277.113037 212.186401,336.104889 212.208679,395.096741 
	C212.211884,403.602478 215.564148,406.933502 224.008423,406.955292 
	C236.839905,406.988434 249.671524,406.971741 262.503082,406.962646 
	C272.416382,406.955627 275.230713,404.139191 275.234558,394.162201 
	C275.246124,363.999695 275.136810,333.836670 275.291534,303.674957 
	C275.350555,292.168365 277.952667,281.178558 284.434204,271.461853 
	C292.161621,259.877441 303.493591,256.356293 316.685608,258.176971 
	C328.779480,259.846100 337.135803,266.950562 339.957550,278.629181 
	C342.314301,288.383331 343.523621,298.615967 343.683868,308.661530 
	C344.146301,337.649841 343.797211,366.650696 343.823212,395.646576 
	C343.830109,403.328461 347.108337,406.677216 354.753693,406.724548 
	C369.084503,406.813324 383.416504,406.804535 397.747467,406.730194 
	C405.616608,406.689362 408.987854,403.249420 408.988281,395.373138 
	C408.990082,362.211121 409.225098,329.045837 408.830261,295.888214 
	C408.546692,272.074890 405.732758,248.684586 392.137299,228.052826 
	C393.800323,229.017044 395.712250,229.711975 397.089691,230.985168 
	C426.163055,257.858093 444.102692,290.519806 448.632690,330.538269 
	C448.889191,360.487335 449.470764,390.119476 448.785400,419.722290 
	C448.432129,434.980682 434.315582,448.770935 419.491547,448.862335 
	C352.593658,449.274841 285.691467,448.984314 218.314117,448.884521 
z"/>
<path fill="#DBDFE1" opacity="1.000000" stroke="none" 
	d="
M391.981445,227.743256 
	C405.732758,248.684586 408.546692,272.074890 408.830261,295.888214 
	C409.225098,329.045837 408.990082,362.211121 408.988281,395.373138 
	C408.987854,403.249420 405.616608,406.689362 397.747467,406.730194 
	C383.416504,406.804535 369.084503,406.813324 354.753693,406.724548 
	C347.108337,406.677216 343.830109,403.328461 343.823212,395.646576 
	C343.797211,366.650696 344.146301,337.649841 343.683868,308.661530 
	C343.523621,298.615967 342.314301,288.383331 339.957550,278.629181 
	C337.135803,266.950562 328.779480,259.846100 316.685608,258.176971 
	C303.493591,256.356293 292.161621,259.877441 284.434204,271.461853 
	C277.952667,281.178558 275.350555,292.168365 275.291534,303.674957 
	C275.136810,333.836670 275.246124,363.999695 275.234558,394.162201 
	C275.230713,404.139191 272.416382,406.955627 262.503082,406.962646 
	C249.671524,406.971741 236.839905,406.988434 224.008423,406.955292 
	C215.564148,406.933502 212.211884,403.602478 212.208679,395.096741 
	C212.186401,336.104889 212.187897,277.113037 212.207321,218.121201 
	C212.210220,209.311432 215.486099,206.097076 224.325851,206.082840 
	C237.490646,206.061630 250.655579,206.056320 263.820343,206.083679 
	C271.964355,206.100586 274.889557,208.993698 275.712036,216.931076 
	C275.921387,218.951401 277.031433,221.605972 278.579895,222.511078 
	C279.661011,223.143021 282.657532,221.772232 284.004517,220.472916 
	C294.420868,210.425262 307.086090,205.623230 321.596436,203.859451 
	C331.628296,203.949203 341.331207,203.284775 350.819366,204.418060 
	C367.446472,206.404037 381.224945,214.293411 391.981445,227.743256 
z"/>
<path fill="#DBDFE2" opacity="1.000000" stroke="none" 
	d="
M121.053024,212.633575 
	C124.008553,207.501480 128.265762,205.905045 133.738449,206.005035 
	C146.392685,206.236191 159.054153,206.046204 171.712463,206.089905 
	C180.129211,206.118973 183.913879,209.884216 183.917267,218.326691 
	C183.940857,276.955383 183.938599,335.584045 183.919861,394.212738 
	C183.917084,402.929871 180.174500,406.719391 171.460114,406.730988 
	C157.472061,406.749573 143.483810,406.640106 128.993164,406.498108 
	C123.223579,404.759460 120.701332,401.200012 120.703751,395.654327 
	C120.729744,336.124878 120.718071,276.595428 120.734573,217.065994 
	C120.734940,215.741241 120.945427,214.416534 121.053024,212.633575 
z"/>
<path fill="#DBDFE1" opacity="1.000000" stroke="none" 
	d="
M192.195786,155.566360 
	C188.547195,171.835831 179.143402,182.677597 163.491165,187.277054 
	C147.807281,191.885803 134.069748,187.756012 122.225517,176.072189 
	C111.201637,163.046402 107.992882,148.663559 114.279579,133.041992 
	C120.391426,117.854904 132.169937,109.490997 148.446075,107.499603 
	C174.448624,104.318184 197.481964,129.403076 192.195786,155.566360 
z"/>
</svg>