<?xml version="1.0" encoding="UTF-8"?>
<svg version="1.1" xmlns="http://www.w3.org/2000/svg" width="1024" height="1024">
<path d="M0 0 C1.57481952 -0.00259192 3.14963838 -0.00560733 4.72445637 -0.0090034 C9.00353267 -0.01697803 13.28259211 -0.01885754 17.56167495 -0.01960087 C22.19487883 -0.02146798 26.82807428 -0.02902279 31.46127319 -0.03573608 C41.56391241 -0.04924596 51.66654762 -0.05533093 61.76919436 -0.05974674 C68.08178779 -0.06251837 74.39437972 -0.06675704 80.70697212 -0.07125092 C98.20316566 -0.08342774 115.699358 -0.09373421 133.19555569 -0.09712601 C134.31242197 -0.09734557 135.42928826 -0.09756514 136.57999897 -0.09779136 C137.69941047 -0.09800964 138.81882197 -0.09822791 139.97215503 -0.09845281 C142.24023084 -0.09889626 144.50830664 -0.09934283 146.77638245 -0.09979248 C147.90140724 -0.10001391 149.02643204 -0.10023534 150.18554849 -0.10046348 C168.44640681 -0.10441817 186.7072254 -0.12189969 204.96806835 -0.145152 C223.73925592 -0.16886071 242.51042351 -0.18132742 261.28162628 -0.18249393 C271.8121874 -0.18341028 282.34269654 -0.18915401 292.87324333 -0.20731354 C301.83066127 -0.22270711 310.78801111 -0.22783888 319.74543976 -0.21957543 C324.31369338 -0.21566802 328.88180979 -0.2166035 333.45004654 -0.23063278 C337.63376554 -0.243364 341.81724411 -0.24218114 346.00096274 -0.23004207 C347.51207703 -0.2280839 349.0232083 -0.2311691 350.53429871 -0.23988643 C370.01327174 -0.34512285 370.01327174 -0.34512285 377.37375444 6.52166504 C383.18885863 13.56513402 384.43874253 20.796283 384.32495117 29.67106628 C384.33063443 30.79074266 384.33631768 31.91041903 384.34217316 33.06402498 C384.35503223 36.79422789 384.33232292 40.52333627 384.30958557 44.253479 C384.3114505 46.93660682 384.31528511 49.61966576 384.3215332 52.30278015 C384.33217587 58.82107777 384.31630395 65.33905084 384.29139494 71.85729902 C384.26338534 79.45724665 384.26212167 87.05712963 384.26195193 94.65712029 C384.26076591 108.22348874 384.23583388 121.78970876 384.19728088 135.35601807 C384.15994631 148.50219503 384.13868563 161.64826412 384.13575745 174.79449463 C384.13557464 175.60408475 384.13539182 176.41367487 384.13520347 177.24779802 C384.1350245 178.05602601 384.13484553 178.864254 384.13466114 179.69697374 C384.1342957 181.32452484 384.13392333 182.95207594 384.13354397 184.57962704 C384.13335845 185.38239645 384.13317294 186.18516587 384.1329818 187.01226163 C384.12940532 199.56476131 384.11095004 212.11724448 384.09105073 224.66972728 C384.08404572 229.20924902 384.07925292 233.74876685 384.07608937 238.28829282 C384.07102525 245.49142674 384.05951209 252.69448593 384.03478908 259.89758151 C384.02362033 263.18604311 384.01651328 266.47441838 384.01592255 269.76290131 C384.01465862 273.33630936 384.00106422 276.90946916 383.984375 280.48283386 C383.98679008 281.51009124 383.98920517 282.53734862 383.99169344 283.59573501 C383.92526312 292.71736323 383.7458099 302.26891272 377.56869316 309.49939346 C369.85464372 316.31096939 359.64320862 315.69273098 349.97926331 315.59454346 C348.41130604 315.59341323 346.84334667 315.59405225 345.27539062 315.59631348 C341.0465902 315.59745474 336.81824946 315.57404154 332.58955526 315.54601765 C328.16000329 315.52090523 323.7304392 315.51865427 319.30082703 315.51391602 C310.92518285 315.50151502 302.5497491 315.46873262 294.17419732 315.42851806 C284.63366886 315.38371049 275.09313002 315.36179077 265.55252242 315.34173632 C245.93830457 315.29999724 226.32427575 315.22970148 206.71022034 315.14044189 C206.95256409 316.28110107 207.19490784 317.42176025 207.44459534 318.59698486 C208.34116114 322.81953696 209.2350795 327.04264583 210.12818909 331.26593018 C210.51548447 333.09551098 210.90350264 334.92493893 211.29225159 336.75421143 C211.85013298 339.37995419 212.40543305 342.00623138 212.96022034 344.63262939 C213.13521057 345.45351044 213.31020081 346.27439148 213.49049377 347.12014771 C214.71022034 352.91269848 214.71022034 352.91269848 214.71022034 355.14044189 C215.44136047 355.12996826 216.17250061 355.11949463 216.92579651 355.10870361 C220.24973593 355.067039 223.57362029 355.04108234 226.89772034 355.01544189 C228.04820862 354.99868408 229.1986969 354.98192627 230.38404846 354.96466064 C231.49586487 354.95821533 232.60768127 354.95177002 233.75318909 354.94512939 C234.77436829 354.93465576 235.79554749 354.92418213 236.84767151 354.91339111 C241.20071912 355.25866483 243.88002579 356.37578902 247.08522034 359.32794189 C248.71022034 362.14044189 248.71022034 362.14044189 248.64772034 365.76544189 C247.42308375 370.17413362 247.42308375 370.17413362 244.71022034 372.14044189 C242.05484581 372.51796532 242.05484581 372.51796532 238.79136658 372.52139282 C237.55495422 372.52985229 236.31854187 372.53831177 235.04466248 372.54702759 C233.67194998 372.5411943 232.29923878 372.53504977 230.92652893 372.52862549 C229.48257551 372.53269021 228.03862519 372.53803152 226.59468079 372.54455566 C222.66868223 372.55825443 218.74291972 372.55291822 214.81691694 372.54341841 C210.70514251 372.53582629 206.59338838 372.54286699 202.48161316 372.5475769 C195.56966018 372.55303946 188.65780326 372.54583364 181.74586487 372.53155518 C173.76895578 372.51526637 165.79227717 372.5204876 157.81537378 372.53703439 C150.96085693 372.55068138 144.10640921 372.5525521 137.25188315 372.54471838 C133.1609143 372.54005449 129.07005344 372.53938074 124.97909164 372.54932785 C121.12619345 372.55804067 117.27358961 372.5518975 113.42072296 372.53464508 C112.01190554 372.53070147 110.60306305 372.53177756 109.19425583 372.53843307 C101.3747758 372.57194647 94.97636621 372.12733391 87.71022034 369.14044189 C87.21842797 360.77997162 87.21842797 360.77997162 89.33399963 358.02886963 C92.41037244 355.58401772 94.22061158 355.61641567 98.12037659 355.56622314 C99.35723206 355.5385083 100.59408752 355.51079346 101.86842346 355.48223877 C103.15684143 355.4725708 104.4452594 355.46290283 105.77272034 355.45294189 C108.32616658 355.4109151 110.87956006 355.36550468 113.43287659 355.31622314 C114.56475403 355.30502441 115.69663147 355.29382568 116.86280823 355.2822876 C119.7858402 355.26447714 119.7858402 355.26447714 122.71022034 354.14044189 C122.85121155 353.31431396 122.99220276 352.48818604 123.13746643 351.63702393 C123.66938507 348.52436328 124.2025772 345.41192401 124.73658752 342.29962158 C125.07771631 340.3092259 125.41742186 338.31858645 125.75709534 336.32794189 C125.97623596 335.05177002 126.19537659 333.77559814 126.42115784 332.46075439 C126.71965637 330.71689453 126.71965637 330.71689453 127.02418518 328.93780518 C127.569751 325.91797215 128.14855067 322.9113456 128.75309753 319.90310669 C128.93253214 319.00924696 129.11196674 318.11538723 129.29683876 317.19444084 C129.43325468 316.51662119 129.5696706 315.83880154 129.71022034 315.14044189 C129.06935549 315.14559563 128.42849064 315.15074936 127.76820564 315.15605927 C112.04508061 315.28242991 96.32194675 315.40763182 80.59880257 315.53159332 C72.99466124 315.59157156 65.39052321 315.65191989 57.78639221 315.7131958 C51.14485833 315.76671387 44.50331893 315.81948025 37.86177242 315.87140894 C34.35766911 315.89883123 30.85356928 315.92658557 27.34947586 315.95524597 C18.46977587 316.02765892 9.59006286 316.08847571 0.71022034 316.14044189 C-0.51877235 316.14877045 -1.74776505 316.157099 -3.01399994 316.16567993 C-6.58004656 316.18825419 -10.14605032 316.20352886 -13.71214294 316.21661377 C-14.76699827 316.22416939 -15.8218536 316.23172501 -16.90867424 316.23950958 C-22.46981623 316.25117359 -27.7893351 315.97185381 -33.28977966 315.14044189 C-33.28977966 314.48044189 -33.28977966 313.82044189 -33.28977966 313.14044189 C-33.8763031 312.86458252 -34.46282654 312.58872314 -35.06712341 312.30450439 C-40.08856114 309.67464773 -43.47986125 306.64032699 -45.26863384 301.11912155 C-47.79163303 288.22806935 -47.70566504 275.46987306 -47.66209412 262.37188721 C-47.66452614 259.79789585 -47.66824943 257.22390543 -47.67315674 254.6499176 C-47.68257829 248.4209512 -47.67610444 242.19210178 -47.6638938 235.96314415 C-47.65018143 228.69387596 -47.65191964 221.4246347 -47.65402713 214.15535685 C-47.65720708 201.17916996 -47.64560495 188.20303822 -47.6259613 175.22686768 C-47.60694568 162.66207197 -47.59987912 150.09734081 -47.60545349 137.53253174 C-47.61152217 123.81315952 -47.6113155 110.09381556 -47.59996766 96.37444568 C-47.59876049 94.90957054 -47.59755451 93.44469539 -47.59634972 91.97982025 C-47.59574618 91.2592676 -47.59514264 90.53871495 -47.59452081 89.79632737 C-47.59065566 84.739777 -47.59102976 79.68323722 -47.59293556 74.6266861 C-47.59528893 67.81396323 -47.58667049 61.00132415 -47.57087517 54.18861961 C-47.56664642 51.69418618 -47.56577224 49.19974437 -47.56856537 46.70530891 C-47.5718083 43.29022575 -47.56265242 39.87538537 -47.55047607 36.46032715 C-47.5542554 35.48287576 -47.55803472 34.50542437 -47.56192857 33.49835324 C-47.45222772 16.0025055 -47.45222772 16.0025055 -43.16477966 10.32794189 C-42.21602966 9.60606689 -41.26727966 8.88419189 -40.28977966 8.14044189 C-39.78059998 7.54360596 -39.27142029 6.94677002 -38.74681091 6.33184814 C-35.72826136 3.02010614 -33.40673855 1.31571814 -28.90470356 0.60924649 C-27.62107569 0.55540634 -26.33744782 0.50156619 -25.01492214 0.44609451 C-24.3118492 0.41413446 -23.60877625 0.3821744 -22.88439807 0.34924586 C-15.25952037 0.03248276 -7.63023968 -0.00512502 0 0 Z M71.71022034 63.14044189 C61.5732265 75.74399296 56.49178614 90.90165504 57.71022034 107.14044189 C58.75067076 114.61987031 60.16644711 122.01787685 62.71022034 129.14044189 C48.20144716 129.41322729 48.20144716 129.41322729 44.71022034 126.43341064 C43.52272034 124.32794189 43.52272034 124.32794189 42.58522034 122.14825439 C41.05230346 118.63075762 38.04491143 116.80778744 34.71022034 115.14044189 C29.81110416 114.60294893 25.86551584 114.57369316 21.39772034 116.76544189 C17.05915233 120.59952525 13.65172097 123.63359388 12.71022034 129.51544189 C12.44781484 134.23874089 13.28270162 138.06790134 15.71022034 142.14044189 C19.42211814 146.20585378 22.9986083 148.10407067 28.33522034 149.05059814 C32.52969691 149.20927078 36.03966772 148.13112466 39.71022034 146.14044189 C42.08679758 143.85753376 42.08679758 143.85753376 43.71022034 141.14044189 C47.376887 136.25155301 47.376887 136.25155301 50.71022034 135.14044189 C52.64407507 134.99533303 54.58364994 134.91971088 56.52272034 134.89044189 C58.04832581 134.85177002 58.04832581 134.85177002 59.60475159 134.81231689 C66.17530955 135.50656453 70.01378331 139.10666878 74.17506409 143.91778564 C75.2255756 145.09322859 76.27891818 146.26614607 77.33473206 147.43682861 C78.15829193 148.3503006 78.15829193 148.3503006 78.99848938 149.28222656 C81.87783585 152.40797815 84.88536261 155.40139945 87.90162659 158.39434814 C88.50606598 158.99540375 89.11050537 159.59645935 89.73326111 160.21572876 C91.57767015 162.04691031 93.42474926 163.87535553 95.27272034 165.70294189 C97.75612111 168.15964285 100.23608474 170.61974322 102.71412659 173.08184814 C103.2734639 173.63288712 103.83280121 174.18392609 104.40908813 174.75166321 C109.67925233 179.98845358 109.67925233 179.98845358 111.71022034 183.14044189 C111.71022034 186.08083848 110.68996516 187.16542328 108.83522034 189.45294189 C104.68899163 191.69190539 102.04999848 190.91391827 97.49147034 190.33184814 C93.31001683 190.04407957 90.22145956 190.86350292 86.71022034 193.14044189 C82.35048924 197.2621964 79.57498255 200.7357196 79.39772034 206.82794189 C79.47493159 212.17868193 80.41046274 214.90998344 83.71022034 219.14044189 C87.90406025 222.54534163 92.28862088 224.04532611 97.71022034 224.14044189 C103.92848751 222.90392223 107.12019166 220.25351304 110.71022034 215.14044189 C111.98696518 212.5869522 111.84301043 210.74161676 111.83522034 207.89044189 C111.8365094 206.90044189 111.83779846 205.91044189 111.83912659 204.89044189 C111.81099487 202.0181688 111.81099487 202.0181688 110.77272034 198.89044189 C110.71022034 196.14044189 110.71022034 196.14044189 112.20240784 194.22637939 C113.97536326 192.43918337 115.78593306 190.76240972 117.71022034 189.14044189 C122.57084339 193.25950835 127.30882664 197.47455005 131.96022034 201.82794189 C132.61063293 202.4351709 133.26104553 203.0423999 133.9311676 203.66802979 C138.82474583 208.25842873 143.56806927 212.97364312 148.28443909 217.74591064 C151.0407607 220.46672409 153.9130556 223.00024435 156.86256409 225.50762939 C159.44187004 227.78701605 161.80547548 230.2556053 164.16725159 232.75762939 C165.775109 234.38299235 165.775109 234.38299235 168.71022034 235.14044189 C170.58088968 233.98704643 170.58088968 233.98704643 172.39772034 232.20294189 C173.10283752 231.55454346 173.80795471 230.90614502 174.53443909 230.23809814 C177.31033976 227.56187075 180.02820529 224.83299 182.73365784 222.08575439 C184.54273523 220.30527901 186.39903982 218.65501603 188.33522034 217.01544189 C192.99253806 213.02082551 197.24161382 208.63519891 201.55397034 204.27716064 C205.2969353 200.50989072 209.10728679 196.89659687 213.16725159 193.46856689 C214.89223573 192.02312705 214.89223573 192.02312705 217.02272034 189.76544189 C218.71022034 188.14044189 218.71022034 188.14044189 221.71022034 187.14044189 C221.93709534 187.67669189 222.16397034 188.21294189 222.39772034 188.76544189 C223.69356709 191.35779496 223.69356709 191.35779496 226.30006409 193.79669189 C228.82859922 196.78965185 229.10817942 198.98702822 228.79273987 202.95220947 C228.72425842 203.63307617 228.65577698 204.31394287 228.58522034 205.01544189 C228.32084566 210.16369808 228.34541954 213.87897879 231.83522034 217.95294189 C235.46355446 221.23295594 238.79886334 224.02482844 243.87428284 224.22637939 C249.11947966 223.89307257 252.65202539 222.63237708 256.71022034 219.14044189 C260.65012075 214.56163872 262.13523743 210.12103956 261.71022034 204.14044189 C260.11014553 198.80372179 257.43693517 195.1703873 252.71022034 192.14044189 C247.72068073 190.47726202 242.5769979 190.74554664 237.46022034 191.82794189 C234.71022034 192.14044189 234.71022034 192.14044189 232.21022034 191.14044189 C228.90975372 188.5000686 226.33778791 185.43618816 223.71022034 182.14044189 C224.14850159 181.76274658 224.58678284 181.38505127 225.03834534 180.99591064 C234.91054573 172.42796437 244.39106867 163.5554596 253.64772034 154.32794189 C254.46474426 153.51551025 255.28176819 152.70307861 256.12355042 151.86602783 C259.41550889 148.56557004 262.66670782 145.29264979 265.61647034 141.67950439 C269.27749201 137.23983259 273.28631628 135.51407006 278.89381409 134.90216064 C282.69662355 134.77693815 285.05164793 134.75755096 288.39772034 136.70294189 C290.79135506 139.22596228 293.03028334 141.82351351 295.18287659 144.55450439 C297.65035735 147.11664555 299.77829888 148.01937657 303.29615784 148.47637939 C309.30441409 148.56052864 313.05293882 148.34335448 317.71022034 144.14044189 C322.01208046 139.37351581 323.07920529 135.70029923 322.98756409 129.41778564 C322.39282326 124.53420953 319.28711423 121.74416806 316.02272034 118.32794189 C311.86333922 115.58118078 308.65945221 114.8467702 303.71022034 115.14044189 C298.45559695 116.71682891 295.25975369 118.9824171 291.71022034 123.14044189 C291.01441767 124.45880484 290.33797601 125.78835276 289.71022034 127.14044189 C286.74865074 128.6212267 283.87515739 128.49358226 280.58522034 128.70294189 C278.66322815 128.82862549 278.66322815 128.82862549 276.70240784 128.95684814 C275.71498596 129.01743408 274.72756409 129.07802002 273.71022034 129.14044189 C273.98736877 128.24325439 274.26451721 127.34606689 274.55006409 126.42169189 C279.917019 107.93339168 280.15379833 90.92346823 271.71022034 73.14044189 C263.22189382 58.3652501 250.62386698 48.77440344 234.38209534 43.85137939 C231.12493431 42.98470789 228.07700062 42.38529864 224.71022034 42.14044189 C223.56940002 42.0456958 223.56940002 42.0456958 222.40553284 41.94903564 C206.98328584 41.23970381 191.41121088 46.90379801 179.83522034 56.95294189 C175.33625781 61.24355884 171.79543493 65.7510797 168.71022034 71.14044189 C166.12035155 68.74979379 164.08169795 66.27172209 162.08522034 63.39044189 C152.94975496 51.10324096 138.58353849 44.33249 123.71022034 42.14044189 C104.11541579 40.02137758 84.54718617 48.4991917 71.71022034 63.14044189 Z M159.71022034 277.14044189 C157.15559424 280.3393432 155.7161676 283.35328912 155.70240784 287.48809814 C156.38919828 291.68592955 157.51034347 293.90156467 160.27272034 297.20294189 C164.6342347 299.66124999 167.81496112 299.97290742 172.71022034 299.14044189 C176.37165562 297.54851351 178.87412124 295.71600329 180.71022034 292.14044189 C181.25006536 286.56204328 180.9305345 282.91539048 177.71022034 278.14044189 C172.06347427 273.59167423 165.63865318 272.79292448 159.71022034 277.14044189 Z " fill="#9ED1A4" transform="translate(340.28977966308594,260.85955810546875)"/>
<path d="M0 0 C1.57481952 -0.00259192 3.14963838 -0.00560733 4.72445637 -0.0090034 C9.00353267 -0.01697803 13.28259211 -0.01885754 17.56167495 -0.01960087 C22.19487883 -0.02146798 26.82807428 -0.02902279 31.46127319 -0.03573608 C41.56391241 -0.04924596 51.66654762 -0.05533093 61.76919436 -0.05974674 C68.08178779 -0.06251837 74.39437972 -0.06675704 80.70697212 -0.07125092 C98.20316566 -0.08342774 115.699358 -0.09373421 133.19555569 -0.09712601 C134.31242197 -0.09734557 135.42928826 -0.09756514 136.57999897 -0.09779136 C137.69941047 -0.09800964 138.81882197 -0.09822791 139.97215503 -0.09845281 C142.24023084 -0.09889626 144.50830664 -0.09934283 146.77638245 -0.09979248 C147.90140724 -0.10001391 149.02643204 -0.10023534 150.18554849 -0.10046348 C168.44640681 -0.10441817 186.7072254 -0.12189969 204.96806835 -0.145152 C223.73925592 -0.16886071 242.51042351 -0.18132742 261.28162628 -0.18249393 C271.8121874 -0.18341028 282.34269654 -0.18915401 292.87324333 -0.20731354 C301.83066127 -0.22270711 310.78801111 -0.22783888 319.74543976 -0.21957543 C324.31369338 -0.21566802 328.88180979 -0.2166035 333.45004654 -0.23063278 C337.63376554 -0.243364 341.81724411 -0.24218114 346.00096274 -0.23004207 C347.51207703 -0.2280839 349.0232083 -0.2311691 350.53429871 -0.23988643 C370.01327174 -0.34512285 370.01327174 -0.34512285 377.37375444 6.52166504 C383.18885863 13.56513402 384.43874253 20.796283 384.32495117 29.67106628 C384.33063443 30.79074266 384.33631768 31.91041903 384.34217316 33.06402498 C384.35503223 36.79422789 384.33232292 40.52333627 384.30958557 44.253479 C384.3114505 46.93660682 384.31528511 49.61966576 384.3215332 52.30278015 C384.33217587 58.82107777 384.31630395 65.33905084 384.29139494 71.85729902 C384.26338534 79.45724665 384.26212167 87.05712963 384.26195193 94.65712029 C384.26076591 108.22348874 384.23583388 121.78970876 384.19728088 135.35601807 C384.15994631 148.50219503 384.13868563 161.64826412 384.13575745 174.79449463 C384.13557464 175.60408475 384.13539182 176.41367487 384.13520347 177.24779802 C384.1350245 178.05602601 384.13484553 178.864254 384.13466114 179.69697374 C384.1342957 181.32452484 384.13392333 182.95207594 384.13354397 184.57962704 C384.13335845 185.38239645 384.13317294 186.18516587 384.1329818 187.01226163 C384.12940532 199.56476131 384.11095004 212.11724448 384.09105073 224.66972728 C384.08404572 229.20924902 384.07925292 233.74876685 384.07608937 238.28829282 C384.07102525 245.49142674 384.05951209 252.69448593 384.03478908 259.89758151 C384.02362033 263.18604311 384.01651328 266.47441838 384.01592255 269.76290131 C384.01465862 273.33630936 384.00106422 276.90946916 383.984375 280.48283386 C383.98679008 281.51009124 383.98920517 282.53734862 383.99169344 283.59573501 C383.92526312 292.71736323 383.7458099 302.26891272 377.56869316 309.49939346 C369.85464372 316.31096939 359.64320862 315.69273098 349.97926331 315.59454346 C348.41130604 315.59341323 346.84334667 315.59405225 345.27539062 315.59631348 C341.0465902 315.59745474 336.81824946 315.57404154 332.58955526 315.54601765 C328.16000329 315.52090523 323.7304392 315.51865427 319.30082703 315.51391602 C310.92518285 315.50151502 302.5497491 315.46873262 294.17419732 315.42851806 C284.63366886 315.38371049 275.09313002 315.36179077 265.55252242 315.34173632 C245.93830457 315.29999724 226.32427575 315.22970148 206.71022034 315.14044189 C206.95256409 316.28110107 207.19490784 317.42176025 207.44459534 318.59698486 C208.34116114 322.81953696 209.2350795 327.04264583 210.12818909 331.26593018 C210.51548447 333.09551098 210.90350264 334.92493893 211.29225159 336.75421143 C211.85013298 339.37995419 212.40543305 342.00623138 212.96022034 344.63262939 C213.13521057 345.45351044 213.31020081 346.27439148 213.49049377 347.12014771 C214.71022034 352.91269848 214.71022034 352.91269848 214.71022034 355.14044189 C215.44136047 355.12996826 216.17250061 355.11949463 216.92579651 355.10870361 C220.24973593 355.067039 223.57362029 355.04108234 226.89772034 355.01544189 C228.04820862 354.99868408 229.1986969 354.98192627 230.38404846 354.96466064 C231.49586487 354.95821533 232.60768127 354.95177002 233.75318909 354.94512939 C234.77436829 354.93465576 235.79554749 354.92418213 236.84767151 354.91339111 C241.20071912 355.25866483 243.88002579 356.37578902 247.08522034 359.32794189 C248.71022034 362.14044189 248.71022034 362.14044189 248.64772034 365.76544189 C247.42308375 370.17413362 247.42308375 370.17413362 244.71022034 372.14044189 C242.05484581 372.51796532 242.05484581 372.51796532 238.79136658 372.52139282 C237.55495422 372.52985229 236.31854187 372.53831177 235.04466248 372.54702759 C233.67194998 372.5411943 232.29923878 372.53504977 230.92652893 372.52862549 C229.48257551 372.53269021 228.03862519 372.53803152 226.59468079 372.54455566 C222.66868223 372.55825443 218.74291972 372.55291822 214.81691694 372.54341841 C210.70514251 372.53582629 206.59338838 372.54286699 202.48161316 372.5475769 C195.56966018 372.55303946 188.65780326 372.54583364 181.74586487 372.53155518 C173.76895578 372.51526637 165.79227717 372.5204876 157.81537378 372.53703439 C150.96085693 372.55068138 144.10640921 372.5525521 137.25188315 372.54471838 C133.1609143 372.54005449 129.07005344 372.53938074 124.97909164 372.54932785 C121.12619345 372.55804067 117.27358961 372.5518975 113.42072296 372.53464508 C112.01190554 372.53070147 110.60306305 372.53177756 109.19425583 372.53843307 C101.3747758 372.57194647 94.97636621 372.12733391 87.71022034 369.14044189 C87.21842797 360.77997162 87.21842797 360.77997162 89.33399963 358.02886963 C92.41037244 355.58401772 94.22061158 355.61641567 98.12037659 355.56622314 C99.35723206 355.5385083 100.59408752 355.51079346 101.86842346 355.48223877 C103.15684143 355.4725708 104.4452594 355.46290283 105.77272034 355.45294189 C108.32616658 355.4109151 110.87956006 355.36550468 113.43287659 355.31622314 C114.56475403 355.30502441 115.69663147 355.29382568 116.86280823 355.2822876 C119.7858402 355.26447714 119.7858402 355.26447714 122.71022034 354.14044189 C122.85121155 353.31431396 122.99220276 352.48818604 123.13746643 351.63702393 C123.66938507 348.52436328 124.2025772 345.41192401 124.73658752 342.29962158 C125.07771631 340.3092259 125.41742186 338.31858645 125.75709534 336.32794189 C125.97623596 335.05177002 126.19537659 333.77559814 126.42115784 332.46075439 C126.71965637 330.71689453 126.71965637 330.71689453 127.02418518 328.93780518 C127.569751 325.91797215 128.14855067 322.9113456 128.75309753 319.90310669 C128.93253214 319.00924696 129.11196674 318.11538723 129.29683876 317.19444084 C129.43325468 316.51662119 129.5696706 315.83880154 129.71022034 315.14044189 C129.06935549 315.14559563 128.42849064 315.15074936 127.76820564 315.15605927 C112.04508061 315.28242991 96.32194675 315.40763182 80.59880257 315.53159332 C72.99466124 315.59157156 65.39052321 315.65191989 57.78639221 315.7131958 C51.14485833 315.76671387 44.50331893 315.81948025 37.86177242 315.87140894 C34.35766911 315.89883123 30.85356928 315.92658557 27.34947586 315.95524597 C18.46977587 316.02765892 9.59006286 316.08847571 0.71022034 316.14044189 C-0.51877235 316.14877045 -1.74776505 316.157099 -3.01399994 316.16567993 C-6.58004656 316.18825419 -10.14605032 316.20352886 -13.71214294 316.21661377 C-14.76699827 316.22416939 -15.8218536 316.23172501 -16.90867424 316.23950958 C-22.46981623 316.25117359 -27.7893351 315.97185381 -33.28977966 315.14044189 C-33.28977966 314.48044189 -33.28977966 313.82044189 -33.28977966 313.14044189 C-33.8763031 312.86458252 -34.46282654 312.58872314 -35.06712341 312.30450439 C-40.08856114 309.67464773 -43.47986125 306.64032699 -45.26863384 301.11912155 C-47.79163303 288.22806935 -47.70566504 275.46987306 -47.66209412 262.37188721 C-47.66452614 259.79789585 -47.66824943 257.22390543 -47.67315674 254.6499176 C-47.68257829 248.4209512 -47.67610444 242.19210178 -47.6638938 235.96314415 C-47.65018143 228.69387596 -47.65191964 221.4246347 -47.65402713 214.15535685 C-47.65720708 201.17916996 -47.64560495 188.20303822 -47.6259613 175.22686768 C-47.60694568 162.66207197 -47.59987912 150.09734081 -47.60545349 137.53253174 C-47.61152217 123.81315952 -47.6113155 110.09381556 -47.59996766 96.37444568 C-47.59876049 94.90957054 -47.59755451 93.44469539 -47.59634972 91.97982025 C-47.59574618 91.2592676 -47.59514264 90.53871495 -47.59452081 89.79632737 C-47.59065566 84.739777 -47.59102976 79.68323722 -47.59293556 74.6266861 C-47.59528893 67.81396323 -47.58667049 61.00132415 -47.57087517 54.18861961 C-47.56664642 51.69418618 -47.56577224 49.19974437 -47.56856537 46.70530891 C-47.5718083 43.29022575 -47.56265242 39.87538537 -47.55047607 36.46032715 C-47.5542554 35.48287576 -47.55803472 34.50542437 -47.56192857 33.49835324 C-47.45222772 16.0025055 -47.45222772 16.0025055 -43.16477966 10.32794189 C-42.21602966 9.60606689 -41.26727966 8.88419189 -40.28977966 8.14044189 C-39.78059998 7.54360596 -39.27142029 6.94677002 -38.74681091 6.33184814 C-35.72826136 3.02010614 -33.40673855 1.31571814 -28.90470356 0.60924649 C-27.62107569 0.55540634 -26.33744782 0.50156619 -25.01492214 0.44609451 C-24.3118492 0.41413446 -23.60877625 0.3821744 -22.88439807 0.34924586 C-15.25952037 0.03248276 -7.63023968 -0.00512502 0 0 Z M-30.28977966 22.14044189 C-31.01249766 24.24401683 -31.01249766 24.24401683 -30.90501881 26.42576313 C-30.91497316 27.2545743 -30.92492752 28.08338547 -30.93518353 28.93731213 C-30.9206202 29.8368628 -30.90605688 30.73641348 -30.89105225 31.66322327 C-30.89533234 32.6248085 -30.89961243 33.58639374 -30.90402222 34.57711792 C-30.91230371 37.8119935 -30.88467549 41.04557703 -30.85740662 44.28033447 C-30.85587512 46.63383537 -30.8565421 48.98733857 -30.8592329 51.34083843 C-30.86036278 57.64957788 -30.83136162 63.95784417 -30.79618073 70.26647186 C-30.76772834 76.1839092 -30.76636638 82.10123083 -30.76280212 88.01873779 C-30.73655436 105.33020195 -30.6667487 122.64157788 -30.60227966 139.95294189 C-30.49915466 178.62481689 -30.39602966 217.29669189 -30.28977966 257.14044189 C100.72022034 257.14044189 231.73022034 257.14044189 366.71022034 257.14044189 C367.6394691 184.29346215 367.6394691 184.29346215 367.75172424 111.44317627 C367.7173657 105.22571636 367.6999227 99.00837282 367.68824768 92.79083252 C367.67162862 84.36555471 367.63355413 75.94060608 367.57491684 67.51551437 C367.54309374 62.88908786 367.51909177 58.26295519 367.51521301 53.63641357 C367.51101725 49.3022115 367.48296624 44.96880266 367.43691444 40.63484955 C367.42392222 39.02796783 367.41947109 37.4209918 367.42403221 35.81406403 C367.42891598 33.60035194 367.40305273 31.3890167 367.36964417 29.17559814 C367.35965141 27.30980103 367.35965141 27.30980103 367.34945679 25.40631104 C366.5168211 21.15236213 365.04834332 19.85146926 361.71022034 17.14044189 C358.56044227 16.39674186 358.56044227 16.39674186 355.06502533 16.51123619 C354.07851755 16.50033538 354.07851755 16.50033538 353.07208031 16.48921436 C350.86433102 16.4709402 348.65831388 16.48832814 346.45057678 16.50552368 C344.85351818 16.49976337 343.2564662 16.49182286 341.65942812 16.48188746 C337.26778897 16.46097822 332.87669176 16.47134765 328.48505044 16.48681855 C323.75012775 16.49811153 319.01529955 16.48067957 314.28039551 16.46691895 C305.00353986 16.44466003 295.72688622 16.44949954 286.45002258 16.46398215 C278.91202819 16.47526396 271.3740905 16.47680988 263.83609009 16.47136307 C262.76414635 16.4705969 261.69220262 16.46983074 260.58777574 16.46904135 C258.41029305 16.46744276 256.23281037 16.4658217 254.05532771 16.4641784 C233.62644501 16.44991312 213.19767441 16.46632585 192.76881009 16.49318023 C175.23148314 16.5155197 157.69432165 16.51163979 140.15699768 16.48858643 C119.80232565 16.46184219 99.44775193 16.45128649 79.09306479 16.46664774 C76.9234934 16.46824053 74.753922 16.46981238 72.58435059 16.47136307 C70.98305232 16.47252013 70.98305232 16.47252013 69.3494046 16.47370058 C61.8185346 16.4780217 54.28772683 16.47072213 46.75686646 16.4589653 C37.58198214 16.44495705 28.40731177 16.44870495 19.23245203 16.47536902 C14.54926184 16.48852978 9.86642862 16.49362123 5.18324089 16.47712326 C0.89858239 16.46225727 -3.38538724 16.47035596 -7.66998297 16.49701102 C-9.22239517 16.5026103 -10.7748652 16.49972316 -12.32724041 16.48763208 C-14.43385534 16.47247894 -16.53809484 16.4879597 -18.64458466 16.51123619 C-20.40109242 16.51245383 -20.40109242 16.51245383 -22.19308519 16.51369607 C-26.26961662 17.33875294 -27.76343268 18.89374327 -30.28977966 22.14044189 Z M159.71022034 277.14044189 C157.15559424 280.3393432 155.7161676 283.35328912 155.70240784 287.48809814 C156.38919828 291.68592955 157.51034347 293.90156467 160.27272034 297.20294189 C164.6342347 299.66124999 167.81496112 299.97290742 172.71022034 299.14044189 C176.37165562 297.54851351 178.87412124 295.71600329 180.71022034 292.14044189 C181.25006536 286.56204328 180.9305345 282.91539048 177.71022034 278.14044189 C172.06347427 273.59167423 165.63865318 272.79292448 159.71022034 277.14044189 Z " fill="#33848F" transform="translate(340.28977966308594,260.85955810546875)"/>
<path d="M0 0 C4.28646237 3.89738348 7.39181905 8.47660722 10.5390625 13.30859375 C12.14113187 15.72633812 13.75570241 18.01570221 15.5390625 20.30859375 C16.5290625 20.30859375 17.5190625 20.30859375 18.5390625 20.30859375 C18.80589844 19.59316406 19.07273437 18.87773437 19.34765625 18.140625 C24.5667849 5.73449951 33.18126309 -2.81859704 45.31640625 -8.43359375 C58.96317301 -13.75996817 73.79102491 -14.31269048 87.59765625 -9.109375 C103.69749416 -1.34809856 113.70441519 10.80098117 119.6953125 27.5390625 C122.74368815 37.54507331 122.19029368 47.76094559 119.7890625 57.80859375 C119.55376831 58.83231079 119.55376831 58.83231079 119.3137207 59.87670898 C118.2073066 64.14369977 117.06196976 66.64944498 113.5390625 69.30859375 C110.82022336 69.70339537 108.50574076 69.85634989 105.78881836 69.82617188 C104.62474205 69.83668579 104.62474205 69.83668579 103.43714905 69.84741211 C100.8757026 69.86499677 98.31536363 69.85336948 95.75390625 69.83984375 C93.97318815 69.84253827 92.19247148 69.84642036 90.41175842 69.85144043 C86.68183366 69.85733586 82.95229229 69.8487702 79.22241211 69.83007812 C74.43807232 69.8072718 69.65462922 69.82042172 64.87032223 69.84436798 C61.19431276 69.85881072 57.51851651 69.85422731 53.84250069 69.84385681 C52.0782212 69.84118616 50.31392243 69.84447118 48.54966545 69.85377502 C46.08589128 69.86391768 43.62357729 69.84847401 41.15991211 69.82617188 C40.0634285 69.83831726 40.0634285 69.83831726 38.9447937 69.85070801 C35.7014376 69.79622684 33.99205448 69.74363503 31.6018219 67.44812012 C30.04233326 64.30858819 29.86852029 62.79541326 30.5390625 59.30859375 C31.79516602 57.61254883 31.79516602 57.61254883 33.48046875 55.765625 C34.11662109 55.06421387 34.75277344 54.36280273 35.40820312 53.64013672 C36.11138672 52.87072754 36.81457031 52.10131836 37.5390625 51.30859375 C38.64024414 50.05199951 38.64024414 50.05199951 39.76367188 48.77001953 C42.1643745 46.05045794 44.62626129 43.39779133 47.1015625 40.74609375 C47.90658203 39.81990234 48.71160156 38.89371094 49.54101562 37.93945312 C55.67953336 31.47508121 55.67953336 31.47508121 61.14941406 30.98535156 C64.90234375 31.2890625 64.90234375 31.2890625 68.3918457 31.86791992 C73.08477273 32.52502436 75.42917323 31.59186556 79.5390625 29.30859375 C83.01845958 25.82919667 85.49012113 22.23963774 85.57421875 17.203125 C85.21152297 11.92192054 84.06427796 8.42134512 80.5390625 4.30859375 C76.4374048 0.91007737 71.77358525 0.0294192 66.5390625 0.30859375 C62.06701753 1.56832473 59.21094109 3.56780454 56.1015625 6.99609375 C53.40926354 12.70376755 53.1774528 17.7408918 54.4140625 23.87109375 C54.75369565 26.54287457 54.83689975 27.84335079 53.36499023 30.14257812 C52.52109741 31.04459961 52.52109741 31.04459961 51.66015625 31.96484375 C51.01916992 32.65586182 50.37818359 33.34687988 49.71777344 34.05883789 C48.99879883 34.80125732 48.27982422 35.54367676 47.5390625 36.30859375 C46.77110352 37.10322021 46.00314453 37.89784668 45.21191406 38.71655273 C42.73546669 41.24572735 40.23527899 43.74894705 37.7265625 46.24609375 C36.86869141 47.10783203 36.01082031 47.96957031 35.12695312 48.85742188 C34.30775391 49.67533203 33.48855469 50.49324219 32.64453125 51.3359375 C31.90356201 52.07577881 31.16259277 52.81562012 30.39916992 53.57788086 C26.33471854 57.35959707 21.70654716 56.67915798 16.4140625 56.80859375 C15.48851562 56.86273438 14.56296875 56.916875 13.609375 56.97265625 C8.58724053 57.07196399 5.36043054 56.7219447 1.48046875 53.390625 C0.14557502 52.05063366 -1.16679989 50.68798705 -2.4609375 49.30859375 C-4.09284306 47.71648261 -5.72707491 46.12675342 -7.36328125 44.5390625 C-9.04427895 42.86068521 -10.72263615 41.17965943 -12.3984375 39.49609375 C-13.69104492 38.20928711 -13.69104492 38.20928711 -15.00976562 36.89648438 C-15.82767578 36.07728516 -16.64558594 35.25808594 -17.48828125 34.4140625 C-18.59804321 33.30260864 -18.59804321 33.30260864 -19.73022461 32.16870117 C-21.4609375 30.30859375 -21.4609375 30.30859375 -22.4609375 28.30859375 C-22.32144647 26.47022693 -22.17597517 24.63194885 -21.98852539 22.79785156 C-21.03231301 15.22439645 -21.03231301 15.22439645 -23.0234375 8.05859375 C-26.60748841 4.01504913 -29.60581682 1.82390505 -34.8359375 0.37109375 C-39.33320302 0.29355469 -42.40852111 1.52905438 -46.4609375 3.30859375 C-47.4509375 3.63859375 -48.4409375 3.96859375 -49.4609375 4.30859375 C-50.63047166 6.73242452 -50.63047166 6.73242452 -51.4609375 9.30859375 C-51.7909375 9.96859375 -52.1209375 10.62859375 -52.4609375 11.30859375 C-53.22344556 18.14616603 -52.63088744 22.78622762 -48.4609375 28.30859375 C-44.62311452 31.50677956 -40.37276251 32.25391666 -35.4609375 32.30859375 C-34.1240991 32.03343866 -32.79053779 31.74183115 -31.4609375 31.43359375 C-28.95792339 31.07950883 -27.84982369 31.05233536 -25.70922852 32.46289062 C-25.11295654 33.02041016 -24.51668457 33.57792969 -23.90234375 34.15234375 C-23.2077002 34.79445801 -22.51305664 35.43657227 -21.79736328 36.09814453 C-21.02634277 36.82759277 -20.25532227 37.55704102 -19.4609375 38.30859375 C-18.5932373 39.10120605 -17.72553711 39.89381836 -16.83154297 40.71044922 C-13.98350035 43.33144858 -11.18931587 46.00189868 -8.3984375 48.68359375 C-7.90996338 49.13186523 -7.42148926 49.58013672 -6.91821289 50.04199219 C1.25343579 57.55584011 1.25343579 57.55584011 1.96826172 61.94238281 C1.42259771 67.42505854 1.42259771 67.42505854 -0.4609375 69.30859375 C-2.9701893 69.41958225 -5.45217921 69.46598064 -7.96240234 69.46972656 C-9.14045189 69.47717392 -9.14045189 69.47717392 -10.34230042 69.48477173 C-12.95216738 69.49943095 -15.56197356 69.50620167 -18.171875 69.51171875 C-19.97929894 69.51746724 -21.78672285 69.52322501 -23.59414673 69.5289917 C-27.38893926 69.53951249 -31.18371055 69.54534804 -34.97851562 69.54882812 C-39.84682943 69.55431424 -44.71486373 69.57834015 -49.58308983 69.60680008 C-53.31823554 69.62540227 -57.05331361 69.63063077 -60.78850174 69.632164 C-62.58349765 69.63519669 -64.3784922 69.64324588 -66.17344284 69.65634918 C-68.68274071 69.673359 -71.19135185 69.67154204 -73.70068359 69.66503906 C-74.44573654 69.67425385 -75.19078949 69.68346863 -75.9584198 69.69296265 C-80.99205627 69.65199209 -80.99205627 69.65199209 -83.38951111 67.89614868 C-90.23998758 57.74565417 -90.36104233 42.11960595 -88.28515625 30.58984375 C-84.52937776 15.6379294 -76.15104102 3.06304677 -63.12109375 -5.2734375 C-41.88065795 -16.59543191 -19.07544126 -14.54021387 0 0 Z " fill="#9ED1A5" transform="translate(492.4609375,320.69140625)"/>
<path d="M0 0 C9.23755117 6.08782011 14.09174177 14.61737333 17.6640625 24.9140625 C19.46412823 36.09121483 18.76008821 47.60531751 12.5390625 57.26953125 C11.09332236 59.24733312 9.57287392 61.12283712 8 63 C7.0409375 64.36125 7.0409375 64.36125 6.0625 65.75 C3.3922998 68.66294567 0.51847284 70.32739264 -3 72 C-3.70125 72.37511719 -4.4025 72.75023437 -5.125 73.13671875 C-16.42941098 78.29979107 -31.5166918 78.01494236 -43.14916992 73.99560547 C-53.30711697 69.90766515 -60.85635561 63.16268552 -65.29296875 52.97265625 C-69.75952749 40.51071059 -69.3858425 27.12611285 -64 15 C-58.29110174 5.28304104 -49.41100841 -1.40293565 -38.84765625 -5.109375 C-25.30883198 -8.24323483 -12.08254111 -6.93520558 0 0 Z M-48.65234375 20.015625 C-52.93551394 27.02722032 -53.15127372 35.88159835 -51.38671875 43.7265625 C-48.70511373 51.35791422 -43.93501817 56.94467688 -36.76171875 60.69140625 C-32.529251 62.16376004 -29.06568141 62.53895335 -24.625 62.5 C-23.87766602 62.49500488 -23.13033203 62.49000977 -22.36035156 62.48486328 C-14.48161781 62.23618753 -9.84055916 59.71431209 -4.1875 54.3125 C0.88780262 46.62704174 3.30362694 39.24390013 2 30 C0.35586107 23.82788487 -1.88787993 19.00078962 -7 15 C-7.96292969 14.19369141 -7.96292969 14.19369141 -8.9453125 13.37109375 C-15.95610468 8.24965065 -23.45198698 7.38618184 -31.89453125 8.5078125 C-38.6189177 10.079747 -44.34700999 14.7637285 -48.65234375 20.015625 Z " fill="#33828E" transform="translate(325,683)"/>
<path d="M0 0 C1.93166016 0.01740234 1.93166016 0.01740234 3.90234375 0.03515625 C5.19269531 0.04417969 6.48304688 0.05320312 7.8125 0.0625 C8.81152344 0.07410156 9.81054688 0.08570313 10.83984375 0.09765625 C12.28946558 2.99689991 12.06110856 5.6206598 12.15625 8.85546875 C12.21341187 10.67522217 12.21341187 10.67522217 12.27172852 12.53173828 C12.31483154 14.07974121 12.35793457 15.62774414 12.40234375 17.22265625 C12.54671875 22.13140625 12.69109375 27.04015625 12.83984375 32.09765625 C32.63984375 32.59265625 32.63984375 32.59265625 52.83984375 33.09765625 C52.76070416 22.98548891 52.76070416 22.98548891 52.65966797 12.87353516 C52.65467285 11.61976074 52.64967773 10.36598633 52.64453125 9.07421875 C52.6288208 7.1418335 52.6288208 7.1418335 52.61279297 5.17041016 C52.83984375 2.09765625 52.83984375 2.09765625 54.83984375 0.09765625 C57.08203125 -0.23828125 57.08203125 -0.23828125 59.71484375 -0.27734375 C60.57851563 -0.30570313 61.4421875 -0.3340625 62.33203125 -0.36328125 C65.73746666 0.2626399 66.72990411 1.36856602 68.83984375 4.09765625 C69.32759094 7.37454224 69.32759094 7.37454224 69.30981445 11.31298828 C69.31310005 12.39169189 69.31310005 12.39169189 69.31645203 13.4921875 C69.31875933 15.86375267 69.29253352 18.23406962 69.265625 20.60546875 C69.2607008 22.25405483 69.25740211 23.9026465 69.25566101 25.55123901 C69.24802506 29.00292875 69.2274746 32.45420322 69.1965332 35.90576172 C69.15689657 40.33569085 69.13891412 44.76535021 69.12922382 49.19543648 C69.11926342 53.41548395 69.09936895 57.63546522 69.078125 61.85546875 C69.07303138 63.06747137 69.07303138 63.06747137 69.06783485 64.30395889 C69.05628803 66.58309104 69.03777293 68.86205032 69.0168457 71.14111328 C69.0070015 72.43920929 68.99715729 73.7373053 68.98701477 75.07473755 C68.83984375 78.09765625 68.83984375 78.09765625 67.83984375 80.09765625 C65.6953125 80.546875 65.6953125 80.546875 63.02734375 80.78515625 C62.15464844 80.87152344 61.28195312 80.95789063 60.3828125 81.046875 C57.9693941 81.09506922 56.13247877 80.80842655 53.83984375 80.09765625 C52.71187977 76.49129392 52.7256834 73.12621621 52.7421875 69.36328125 C52.74541016 68.06777344 52.74863281 66.77226563 52.75195312 65.4375 C52.76030777 64.07421808 52.76877271 62.71093683 52.77734375 61.34765625 C52.78236207 59.9687516 52.7869244 58.58984521 52.79101562 57.2109375 C52.80280282 53.83979966 52.8192574 50.46874997 52.83984375 47.09765625 C47.94686245 47.07287684 43.05391795 47.05475862 38.16088867 47.04272461 C36.49747074 47.03770602 34.83405719 47.03088973 33.1706543 47.0222168 C30.77521682 47.01004268 28.37983784 47.00440311 25.984375 47 C25.24459915 46.99483871 24.5048233 46.98967743 23.74263 46.98435974 C19.97901221 46.98395384 16.49843994 47.19007316 12.83984375 48.09765625 C11.54366888 53.98107498 11.76515422 59.79879043 11.83984375 65.78515625 C11.86533856 67.85151025 11.88637634 69.91792542 11.90234375 71.984375 C11.91394531 72.89405029 11.92554688 73.80372559 11.9375 74.7409668 C11.83984375 77.09765625 11.83984375 77.09765625 10.83984375 80.09765625 C6.21984375 80.09765625 1.59984375 80.09765625 -3.16015625 80.09765625 C-4.32893235 76.59132795 -4.30012225 73.44322908 -4.28955078 69.79638672 C-4.2913031 69.05628357 -4.29305542 68.31618042 -4.29486084 67.5536499 C-4.2992623 65.10735734 -4.29634796 62.66113705 -4.29296875 60.21484375 C-4.29364214 58.51758816 -4.29461245 56.82033266 -4.29586792 55.12307739 C-4.29734246 51.56723105 -4.29519761 48.01140983 -4.29052734 44.45556641 C-4.28482152 39.8876439 -4.28811599 35.31978003 -4.29409981 30.75185966 C-4.29770459 27.24841872 -4.29656737 23.7449918 -4.29397202 20.24155045 C-4.29330297 18.55656045 -4.29413041 16.87156919 -4.29645157 15.18658066 C-4.29897768 12.83773141 -4.29513852 10.48897873 -4.28955078 8.14013672 C-4.29157501 7.437789 -4.29359924 6.73544128 -4.29568481 6.0118103 C-4.26963641 0.13194179 -4.26963641 0.13194179 0 0 Z " fill="#9ED0A4" transform="translate(536.16015625,677.90234375)"/>
<path d="M0 0 C1.79244141 0.01740234 1.79244141 0.01740234 3.62109375 0.03515625 C5.41740234 0.04869141 5.41740234 0.04869141 7.25 0.0625 C8.17683594 0.07410156 9.10367188 0.08570313 10.05859375 0.09765625 C10.8851028 6.09852869 11.33768365 12.04847679 11.62109375 18.09765625 C11.66427734 18.96777344 11.70746094 19.83789062 11.75195312 20.734375 C11.85683593 22.85533844 11.9580945 24.97648058 12.05859375 27.09765625 C13.21875 26.64132812 14.37890625 26.185 15.57421875 25.71484375 C24.96714229 22.19123791 32.16180222 19.84412386 42.05859375 23.09765625 C42.83976563 23.32324219 43.6209375 23.54882812 44.42578125 23.78125 C52.09570636 26.26765429 55.73856136 31.82975009 59.44311523 38.62719727 C63.43236119 46.8428562 63.37930882 55.34978949 61.05859375 64.09765625 C57.98872691 72.3621517 53.95719552 79.76256248 46.05859375 84.09765625 C43.3125 85.14453125 43.3125 85.14453125 40.62109375 85.84765625 C39.73550781 86.09 38.84992187 86.33234375 37.9375 86.58203125 C31.04634407 87.81626813 26.07096667 86.72175909 19.74609375 84.16015625 C19.03130859 83.88236328 18.31652344 83.60457031 17.58007812 83.31835938 C15.03096397 82.32129776 12.508062 81.32239037 10.05859375 80.09765625 C10.05859375 81.74765625 10.05859375 83.39765625 10.05859375 85.09765625 C5.43859375 85.09765625 0.81859375 85.09765625 -3.94140625 85.09765625 C-3.96452922 74.16269154 -3.9823211 63.22773259 -3.99321842 52.29274845 C-3.99844735 47.21574607 -4.00554517 42.13876036 -4.0168457 37.06176758 C-4.02767424 32.16645073 -4.03368301 27.27114996 -4.03628349 22.37582207 C-4.0381378 20.50382674 -4.04175853 18.63183234 -4.04713631 16.75984383 C-4.05434629 14.14724926 -4.05539721 11.53472198 -4.05493164 8.92211914 C-4.05852692 8.14025238 -4.06212219 7.35838562 -4.06582642 6.55282593 C-4.05336751 0.13457395 -4.05336751 0.13457395 0 0 Z M16.18359375 38.97265625 C11.52843165 43.10817235 10.52093578 47.3921065 10.03125 53.4375 C10.08909977 59.06545637 11.96115907 63.97246261 15.30859375 68.47265625 C19.05593628 72.04966503 22.23729426 73.99017817 27.51953125 74.19140625 C34.58176143 73.76724828 39.16079907 71.48735456 43.93359375 66.22265625 C47.53661022 60.85299945 46.71162426 54.25791076 46.05859375 48.09765625 C45.07931096 43.401915 42.74035537 40.00951766 38.85546875 37.10546875 C31.03777074 32.72075987 23.05852344 33.37612258 16.18359375 38.97265625 Z " fill="#9ECFA4" transform="translate(703.94140625,672.90234375)"/>
<path d="M0 0 C0.77214844 0.41894531 1.54429687 0.83789062 2.33984375 1.26953125 C5.060121 2.96633785 6.75953193 4.29709335 7.8125 7.375 C6.58243921 11.34904255 4.15391935 14.30904129 1 17 C-1.0859375 17.8125 -1.0859375 17.8125 -3 18 C-4.37849103 16.71340837 -5.70529025 15.37086915 -7 14 C-12.05719726 10.83442614 -16.37906323 10.38883098 -22.1875 10.375 C-23.44518188 10.36823242 -23.44518188 10.36823242 -24.72827148 10.36132812 C-32.40329283 10.56874111 -37.03781636 13.27843235 -43 18 C-43.66 18 -44.32 18 -45 18 C-45.67561748 19.6630584 -46.33933281 21.33094605 -47 23 C-47.53625 24.175625 -48.0725 25.35125 -48.625 26.5625 C-51.6006095 34.85391189 -50.86035019 42.51409311 -47.125 50.4375 C-44.3782528 55.69436464 -41.48835658 59.19087758 -35.87109375 61.37109375 C-26.8972508 63.33679268 -17.81269573 62.27424406 -9 60 C-8.01356362 54.87716234 -7.69032947 49.82251071 -7.4375 44.625 C-7.37272461 43.37783203 -7.37272461 43.37783203 -7.30664062 42.10546875 C-7.20138195 40.07046772 -7.10026928 38.03525297 -7 36 C-2.38 36 2.24 36 7 36 C7.14852367 40.62632203 7.25729019 45.25125242 7.32958984 49.87939453 C7.35973081 51.45288263 7.40065294 53.02620312 7.45263672 54.59912109 C7.52558491 56.86337587 7.55947806 59.12540814 7.5859375 61.390625 C7.61690521 62.09181458 7.64787292 62.79300415 7.67977905 63.51544189 C7.68115234 65.51660156 7.68115234 65.51660156 7 69 C-3.88764846 78.08244729 -18.75209967 78.20896942 -32.22949219 77.31347656 C-41.89486311 76.21986216 -51.01577911 72.55819082 -57.4609375 65.0625 C-57.96882813 64.381875 -58.47671875 63.70125 -59 63 C-59.73089844 62.0409375 -59.73089844 62.0409375 -60.4765625 61.0625 C-67.50005374 50.87638406 -68.27065231 39.4249773 -66.4609375 27.42578125 C-65.19795478 21.33986999 -63.68408134 17.07228591 -60 12 C-59.33484375 11.0821875 -58.6696875 10.164375 -57.984375 9.21875 C-44.14431919 -7.62159763 -18.83910195 -10.24779763 0 0 Z " fill="#33848F" transform="translate(509,682)"/>
<path d="M0 0 C1.03382813 0.01289062 2.06765625 0.02578125 3.1328125 0.0390625 C4.67582031 0.01972656 4.67582031 0.01972656 6.25 0 C12.19285727 1.3120594 15.26953707 6.82353757 18.7578125 11.4765625 C22.60913436 16.56880054 26.57978595 21.5436502 30.6328125 26.4765625 C36.29247516 33.37838459 41.68063717 40.45695137 46.9921875 47.62890625 C48.95244335 50.4065824 48.95244335 50.4065824 50.2578125 51.6640625 C50.26811996 51.05462799 50.27842743 50.44519348 50.28904724 49.81729126 C50.39698203 43.49103785 50.51159038 37.16493065 50.63012695 30.83886719 C50.67351766 28.47594249 50.71518963 26.11298559 50.75512695 23.75 C50.81272943 20.35927614 50.8764526 16.968715 50.94140625 13.578125 C50.95811874 12.51663239 50.97483124 11.45513977 50.99205017 10.36148071 C51.01199539 9.38061493 51.03194061 8.39974915 51.05249023 7.38916016 C51.06803452 6.52312164 51.0835788 5.65708313 51.09959412 4.76480103 C51.2578125 2.6640625 51.2578125 2.6640625 52.2578125 0.6640625 C56.5478125 0.6640625 60.8378125 0.6640625 65.2578125 0.6640625 C67.39968626 4.94781001 67.51065104 6.95908415 67.51660156 11.6640625 C67.5201062 12.36047852 67.52361084 13.05689453 67.52722168 13.77441406 C67.53600731 16.07106564 67.53020117 18.36740791 67.5234375 20.6640625 C67.52478506 22.26302143 67.52672636 23.86197997 67.52923584 25.4609375 C67.5321828 28.80993557 67.52790323 32.15882686 67.51855469 35.5078125 C67.50716036 39.79858907 67.51372213 44.08911542 67.52569962 48.37988281 C67.53292977 51.68100873 67.53062498 54.98207542 67.52544403 58.28320312 C67.52411073 59.86523468 67.52574406 61.44727162 67.53040314 63.02929688 C67.5354874 65.24103014 67.52773172 67.45235929 67.51660156 69.6640625 C67.51501038 70.9221875 67.51341919 72.1803125 67.51177979 73.4765625 C67.27300541 76.47337892 66.83967546 78.15176696 65.2578125 80.6640625 C54.21911296 81.85922997 54.21911296 81.85922997 50.2578125 79.4453125 C48.37435905 77.29817556 46.84178525 75.04333538 45.2578125 72.6640625 C43.82344009 70.72580723 42.36550592 68.80643375 40.90771484 66.88574219 C39.31893669 64.7872453 37.74805516 62.67627993 36.1796875 60.5625 C33.27081671 56.65967142 30.24494091 52.86293266 27.1796875 49.08203125 C24.99972155 46.33935051 22.90911224 43.53923939 20.8203125 40.7265625 C15.49602512 33.594198 9.9275688 26.69568348 4.05859375 20.00390625 C3.51178955 19.37726074 2.96498535 18.75061523 2.40161133 18.10498047 C1.32585625 16.87568305 0.24387583 15.6517989 -0.8449707 14.43408203 C-3.34430025 11.57829006 -5.20014292 9.4560341 -5.7421875 5.6640625 C-4.36866556 2.18514197 -3.70381229 0.8969346 0 0 Z " fill="#33848F" transform="translate(361.7421875,677.3359375)"/>
<path d="M0 0 C1.14662109 0.00193359 1.14662109 0.00193359 2.31640625 0.00390625 C4.97018347 0.5463911 5.75210311 1.34581033 7.4375 3.4375 C7.80258179 5.32113647 7.80258179 5.32113647 7.79052734 7.46240234 C7.79418304 8.26688812 7.79783875 9.0713739 7.80160522 9.90023804 C7.79230988 10.76589386 7.78301453 11.63154968 7.7734375 12.5234375 C7.78595081 14.35937853 7.79898797 16.19531605 7.8125 18.03125 C7.81642986 20.92362884 7.812484 23.81566195 7.79785156 26.70800781 C7.78927479 29.50117522 7.81097581 32.29289722 7.8359375 35.0859375 C7.82259369 35.94754486 7.80924988 36.80915222 7.79550171 37.6968689 C7.84956397 42.09777753 8.00826535 43.88686923 10.79931641 47.46728516 C14.93969526 50.55935043 18.51430479 50.61859395 23.5 50.1875 C27.06297338 49.6435346 29.57661832 48.72620534 32.4375 46.4375 C36.33598316 41.00746989 36.61684223 35.98756353 36.90234375 29.4609375 C36.98080746 27.88800522 37.05959309 26.31508898 37.13867188 24.7421875 C37.25868247 22.26903273 37.37575024 19.79582801 37.48706055 17.32226562 C37.59635897 14.93050308 37.71727542 12.53955154 37.83984375 10.1484375 C37.87013168 9.40572601 37.90041962 8.66301453 37.93162537 7.89779663 C38.21064572 2.66435428 38.21064572 2.66435428 40.4375 0.4375 C44.3975 0.7675 48.3575 1.0975 52.4375 1.4375 C52.4375 21.8975 52.4375 42.3575 52.4375 63.4375 C48.1475 63.4375 43.8575 63.4375 39.4375 63.4375 C38.9425 60.4675 38.9425 60.4675 38.4375 57.4375 C37.91542969 57.70079102 37.39335938 57.96408203 36.85546875 58.23535156 C25.79440985 63.65449557 17.82305063 66.82818856 5.8203125 63.08203125 C0.66406682 60.57535754 -2.6746288 58.21820477 -5.22241211 53.10839844 C-8.25768834 43.30357069 -9.32381472 34.32308523 -9.15942383 24.06933594 C-9.12440961 21.64665027 -9.1390246 19.22749336 -9.15820312 16.8046875 C-9.15132046 15.24998456 -9.14166249 13.69529084 -9.12890625 12.140625 C-9.13386612 11.42400696 -9.13882599 10.70738892 -9.14393616 9.96905518 C-9.06281438 6.54311104 -8.7897376 4.73141543 -6.66796875 1.98706055 C-4.22190932 0.18683569 -3.00685233 -0.07631605 0 0 Z " fill="#9FD1A5" transform="translate(630.5625,694.5625)"/>
<path d="M0 0 C1.10610626 -0.00315216 2.21221252 -0.00630432 3.35183716 -0.009552 C5.15163528 -0.00651566 5.15163528 -0.00651566 6.98779297 -0.00341797 C8.23060028 -0.00437469 9.47340759 -0.00533142 10.75387573 -0.00631714 C13.39519693 -0.00699887 16.03642626 -0.00564695 18.67773438 -0.00097656 C22.66522321 0.00574082 26.65264699 -0.00088879 30.64013672 -0.00732422 C37.96253951 -0.01134606 45.28315271 0.04058714 52.60498047 0.12939453 C53.56577515 0.13733032 54.52656982 0.14526611 55.51647949 0.15344238 C57.94102656 0.18245406 60.36134269 0.24485769 62.78466797 0.32470703 C64.69481689 0.37522217 64.69481689 0.37522217 66.64355469 0.42675781 C69.60498047 1.12939453 69.60498047 1.12939453 71.59375 3.3671875 C72.77013813 6.58052774 72.81395338 7.94611178 71.60498047 11.12939453 C70.03857422 12.88525391 70.03857422 12.88525391 68.04248047 14.47314453 C65.14537895 16.85899284 62.33125888 19.26762754 59.60498047 21.84814453 C58.94498047 22.47076172 58.28498047 23.09337891 57.60498047 23.73486328 C56.94498047 24.36005859 56.28498047 24.98525391 55.60498047 25.62939453 C48.82265931 32.05405423 41.97215428 38.37378999 34.60498047 44.12939453 C29.83473222 40.24663433 25.48669793 36.06067984 21.16748047 31.69189453 C17.73617099 28.22187334 14.33162685 24.78636249 10.60498047 21.62939453 C6.81379876 18.39956805 3.26924804 14.94252381 -0.27001953 11.44189453 C-0.84236328 10.88244141 -1.41470703 10.32298828 -2.00439453 9.74658203 C-4.6963016 7.06111493 -7.00401356 4.74777083 -8.39501953 1.12939453 C-5.31998307 0.10438238 -3.22078782 0.0026351 0 0 Z " fill="#9ED0A5" transform="translate(421.39501953125,394.87060546875)"/>
<path d="M0 0 C0.74170944 -0.00029205 1.48341888 -0.00058411 2.24760437 -0.00088501 C4.69879868 0.00050815 7.14968888 0.01606852 9.60083008 0.03173828 C11.30047947 0.03546847 13.00013101 0.03831541 14.69978333 0.04031372 C19.17310524 0.04794976 23.64629727 0.06759799 28.11956787 0.08972168 C32.68426761 0.11018074 37.24898833 0.11931557 41.8137207 0.12939453 C50.77015798 0.15084391 59.72649885 0.18497951 68.68286133 0.22705078 C66.76054417 4.42905498 63.87764778 7.2682579 60.60864258 10.46142578 C59.70555611 11.3567099 59.70555611 11.3567099 58.78422546 12.27008057 C56.85930218 14.17722643 54.92784786 16.07757144 52.99536133 17.97705078 C50.46723042 20.46843095 47.94230514 22.96299401 45.42114258 25.46142578 C44.81872238 26.058302 44.21630219 26.65517822 43.59562683 27.2701416 C39.90568773 30.94765666 36.35075425 34.69350253 32.99780273 38.68505859 C31.02119482 41.00296717 28.86875255 43.10739869 26.68286133 45.22705078 C23.69901977 43.88575362 21.6130325 42.40604572 19.30712891 40.09423828 C18.35142754 39.14315186 18.35142754 39.14315186 17.37641907 38.17285156 C16.70024033 37.4894873 16.02406158 36.80612305 15.32739258 36.10205078 C14.6251506 35.39935059 13.92290863 34.69665039 13.1993866 33.97265625 C11.71860376 32.4888563 10.24024815 31.00263063 8.76416016 29.51416016 C6.49865623 27.23037228 4.2252247 24.95471529 1.95043945 22.68017578 C0.5131171 21.23793908 -0.92374776 19.79524626 -2.36010742 18.35205078 C-3.04235886 17.66868652 -3.72461029 16.98532227 -4.42753601 16.28125 C-5.05521378 15.64719238 -5.68289154 15.01313477 -6.32958984 14.35986328 C-6.88378098 13.80186035 -7.43797211 13.24385742 -8.00895691 12.66894531 C-10.20118109 10.25264801 -10.32666149 9.09373131 -10.56713867 5.72705078 C-10.48463867 4.57205078 -10.40213867 3.41705078 -10.31713867 2.22705078 C-6.71796139 -0.17240074 -4.15284343 -0.04266681 0 0 Z " fill="#9ED1A5" transform="translate(534.317138671875,394.77294921875)"/>
<path d="M0 0 C2.23852851 1.0834478 3.51688528 2.24491708 5.203125 4.0703125 C7.50447977 6.54255995 9.90423645 8.78103719 12.46875 10.97265625 C18.06935225 15.83013652 23.23710238 21.12170684 28.453125 26.3828125 C29.47632639 27.4110423 30.49976233 28.43903876 31.5234375 29.46679688 C34.00270499 31.95695588 36.47880038 34.45024083 38.953125 36.9453125 C35.16634672 41.4660403 31.26709982 45.79483802 27.078125 49.9453125 C26.55565186 50.46585205 26.03317871 50.9863916 25.49487305 51.52270508 C22.07227462 54.90733908 18.54542926 58.11832068 14.87890625 61.23828125 C12.64175889 63.22131045 10.55257848 65.31724636 8.453125 67.4453125 C-1.79814404 77.82094702 -1.79814404 77.82094702 -6.046875 79.9453125 C-6.13953675 70.1053071 -6.21062051 60.26540541 -6.25412369 50.42505264 C-6.27500265 45.85580286 -6.30332571 41.28685148 -6.34863281 36.71777344 C-6.39207988 32.30870377 -6.41600978 27.8999212 -6.42638397 23.49065399 C-6.43377743 21.80809763 -6.44821517 20.12555707 -6.46979523 18.44312286 C-6.49881503 16.08706149 -6.50283175 13.73218777 -6.50097656 11.37597656 C-6.51535767 10.67970154 -6.52973877 9.98342651 -6.54455566 9.26605225 C-6.5156404 5.87438664 -6.24244297 4.1992676 -4.14642334 1.47747803 C-2.046875 -0.0546875 -2.046875 -0.0546875 0 0 Z " fill="#9DD2A5" transform="translate(517.046875,407.0546875)"/>
<path d="M0 0 C2.27969821 3.63158513 2.25337399 6.6926582 2.25878906 10.92407227 C2.2622937 11.612341 2.26579834 12.30060974 2.26940918 13.00973511 C2.27819277 15.27872887 2.27239006 17.54740946 2.265625 19.81640625 C2.26697247 21.39534057 2.26891368 22.97427449 2.27142334 24.5532074 C2.27436989 27.8593237 2.27009148 31.16533183 2.26074219 34.47143555 C2.24933853 38.71074548 2.25591577 42.94980243 2.26788712 47.18910313 C2.27511041 50.44815481 2.2728158 53.70714639 2.26763153 56.96619987 C2.26629682 58.52952034 2.26793652 60.09284625 2.27259064 61.65616035 C2.27766466 63.83936166 2.26993406 66.02215163 2.25878906 68.20532227 C2.25719788 69.44790298 2.25560669 70.6904837 2.25396729 71.97071838 C2 75 2 75 0 78 C-0.556875 77.43152344 -1.11375 76.86304688 -1.6875 76.27734375 C-2.450625 75.50519531 -3.21375 74.73304688 -4 73.9375 C-4.7425 73.18339844 -5.485 72.42929687 -6.25 71.65234375 C-8.37227094 69.60543755 -10.51275301 67.67681684 -12.74609375 65.7578125 C-17.4146057 61.70749783 -21.73106473 57.34241169 -26.0625 52.9375 C-31.20092795 47.71234753 -36.3585736 42.68245883 -42 38 C-37.76627992 28.39030053 -27.77779583 20.45929251 -20.45166016 12.99169922 C-19.38983624 11.90291043 -18.33524796 10.80702347 -17.28759766 9.70458984 C-15.74740746 8.08541554 -14.18551011 6.49031975 -12.6171875 4.8984375 C-11.70565918 3.95661621 -10.79413086 3.01479492 -9.85498047 2.04443359 C-6.33186509 -0.47844722 -4.24009105 -0.41224021 0 0 Z " fill="#9ED0A5" transform="translate(504,408)"/>
<path d="M0 0 C3.39439994 1.42922103 5.23288386 3.11457946 7.5 6 C8.0671875 6.70125 8.634375 7.4025 9.21875 8.125 C14.69843983 16.96941166 15.65390317 25.27332518 15.78393555 35.46899414 C15.81258834 37.69436134 15.86780501 39.91785335 15.92773438 42.14257812 C16.07115905 48.5501457 16.04252824 54.6708381 15 61 C13.06318839 61.08107583 11.1254066 61.13922475 9.1875 61.1875 C8.10855469 61.22230469 7.02960938 61.25710938 5.91796875 61.29296875 C3 61 3 61 1.17578125 59.73828125 C-1.14587623 56.30593048 -1.12593083 52.7438267 -1.12939453 48.6965332 C-1.13254669 47.63896317 -1.13569885 46.58139313 -1.13894653 45.49177551 C-1.1369223 44.35624741 -1.13489807 43.2207193 -1.1328125 42.05078125 C-1.13376923 40.88242233 -1.13472595 39.71406342 -1.13571167 38.51029968 C-1.13639183 36.04324286 -1.134549 33.57618424 -1.13037109 31.10913086 C-1.12500616 27.3168541 -1.13032907 23.52469501 -1.13671875 19.73242188 C-1.13605822 17.3385414 -1.13477759 14.94466101 -1.1328125 12.55078125 C-1.13483673 11.40918045 -1.13686096 10.26757965 -1.13894653 9.09138489 C-1.13579437 8.04327133 -1.13264221 6.99515778 -1.12939453 5.9152832 C-1.12859894 4.98802933 -1.12780334 4.06077545 -1.12698364 3.10542297 C-1 1 -1 1 0 0 Z " fill="#36858F" transform="translate(357,698)"/>
<path d="M0 0 C0.65857064 -0.00636841 1.31714129 -0.01273683 1.99566862 -0.01929823 C4.20647813 -0.03456064 6.41550716 -0.0141289 8.62625599 0.00609493 C10.22544985 0.00248273 11.82464001 -0.00331996 13.42381889 -0.01112705 C17.82127884 -0.0262073 22.2181578 -0.01003983 26.61557209 0.01117957 C31.35654982 0.02863642 36.09746871 0.01729645 40.83845997 0.0095129 C50.12636291 -0.00116974 59.41403951 0.0148051 68.70190796 0.03965116 C79.50989388 0.06754497 90.31783363 0.06892403 101.12584958 0.06909417 C120.40328073 0.07028206 139.68060769 0.09527167 158.95799732 0.13376522 C177.68066629 0.17112709 196.40325947 0.19236174 215.12596607 0.19528866 C216.27948894 0.19547147 217.4330118 0.19565428 218.6214899 0.19584263 C219.7729841 0.1960216 220.92447829 0.19620057 222.11086625 0.19638497 C224.42911764 0.19675037 226.74736903 0.19712275 229.06562042 0.19750214 C230.20879252 0.19768765 231.35196461 0.19787317 232.52977828 0.1980643 C250.35091066 0.201631 268.17203126 0.22007902 285.99315172 0.23999538 C292.46104041 0.24702701 298.92892631 0.2518045 305.396818 0.25495673 C315.65280453 0.25999726 325.90873821 0.27137573 336.16469749 0.29625703 C340.85348443 0.30750911 345.54221921 0.31559172 350.23102093 0.31512356 C354.51717429 0.31481677 358.80320401 0.32367427 363.08932505 0.34009158 C364.64572266 0.34443399 366.20213402 0.34536319 367.75853535 0.3426655 C369.86262964 0.33953134 371.96632105 0.34852386 374.07037354 0.36076355 C375.24251787 0.36271447 376.41466221 0.3646654 377.62232608 0.36667544 C380.34642506 0.62082577 380.34642506 0.62082577 382.34642506 2.62082577 C381.52694771 2.61930689 380.70747036 2.617788 379.86316037 2.6162231 C331.33011447 2.5267754 282.79707729 2.45811225 234.2639655 2.41656445 C228.44086594 2.41156142 222.61776655 2.40638415 216.79466724 2.40109921 C215.05570331 2.39952534 215.05570331 2.39952534 213.28160879 2.39791968 C194.49255925 2.38049866 175.7035585 2.34895164 156.91453794 2.31221458 C137.64555021 2.27485236 118.3765881 2.25259992 99.10756564 2.24447179 C87.21067028 2.23897421 75.3139128 2.22159 63.41705987 2.1891599 C55.266875 2.16807023 47.11676176 2.1616131 38.96655157 2.16682026 C34.25924196 2.1693907 29.55217384 2.16535888 24.84490681 2.14400387 C20.53925127 2.12461272 16.2340008 2.12350699 11.92832705 2.13723019 C10.36701987 2.13892755 8.80568794 2.13379033 7.24442986 2.12129304 C5.12850403 2.10533457 3.01405731 2.11383133 0.89815617 2.12863445 C-0.27897686 2.12711557 -1.45610988 2.12559669 -2.6689136 2.12403178 C-6.31325548 2.73062895 -7.49696062 3.65791577 -9.65357494 6.62082577 C-10.23747059 8.61574325 -10.23747059 8.61574325 -10.14576626 10.75186443 C-10.15373045 11.5714598 -10.16169465 12.39105516 -10.16990018 13.23548675 C-10.15824881 14.13042633 -10.14659745 15.02536592 -10.13459301 15.94742489 C-10.13801071 16.90231029 -10.14142841 17.85719569 -10.14494967 18.84101701 C-10.15155168 22.04884733 -10.12951371 25.25584564 -10.10767651 28.46359921 C-10.10654853 30.75972632 -10.10718091 33.05585489 -10.10944653 35.35198116 C-10.11059655 41.59340656 -10.08704029 47.83452592 -10.0591507 54.07588005 C-10.0341852 60.59550529 -10.03179887 67.11513715 -10.02704906 73.63480282 C-10.01601984 84.58023201 -9.99101663 95.5255479 -9.95533276 106.47092342 C-9.91861652 117.74468072 -9.89030288 129.01840747 -9.87330151 140.29221249 C-9.87225061 140.98713156 -9.87119972 141.68205064 -9.87011698 142.39802787 C-9.86489683 145.88423374 -9.859842 149.37043983 -9.85486937 152.85664606 C-9.81340267 181.77811374 -9.74265282 210.69946706 -9.65357494 239.62082577 C-10.31357494 239.62082577 -10.97357494 239.62082577 -11.65357494 239.62082577 C-11.76761339 209.89577231 -11.85611059 180.17072621 -11.90890159 150.44550117 C-11.9151552 146.93696643 -11.9216268 143.42843212 -11.92823315 139.91989803 C-11.9295447 139.22140573 -11.93085625 138.52291342 -11.93220755 137.80325469 C-11.95397005 126.49014381 -11.99339616 115.17715984 -12.03933892 103.86412428 C-12.0860802 92.25774797 -12.11349107 80.65144575 -12.12401742 69.04497975 C-12.13054498 62.52496714 -12.14592321 56.00524247 -12.18222523 49.485322 C-12.21610136 43.35154113 -12.22664466 37.21816748 -12.21911335 31.08430195 C-12.22049163 28.83041199 -12.23047354 26.57650875 -12.24960232 24.32269955 C-12.27440859 21.24984359 -12.2685248 18.17853354 -12.25484753 15.10564327 C-12.26941173 14.20972558 -12.28397594 13.31380788 -12.29898149 12.39074117 C-12.28902625 11.56567136 -12.279071 10.74060156 -12.26881409 9.89052963 C-12.27071269 9.18159178 -12.27261129 8.47265392 -12.27456743 7.7422331 C-10.45370668 1.52188833 -5.92922928 -0.00411817 0 0 Z " fill="#99D1B2" transform="translate(321.6535749435425,277.3791742324829)"/>
<path d="M0 0 C2.82424288 2.19022918 4.41508603 3.83017207 6 7 C6.57322775 11.69858808 6.41740893 15.14972255 4.3125 19.4375 C1.80111756 22.22038324 0.65117445 23.25316886 -3 24 C-7.36385338 24.06208734 -10.25986811 23.4881721 -13.9375 21.0625 C-16.87841609 18.12158391 -17.21487881 16.31461481 -17.375 12.25 C-17.3533442 8.50896062 -17.02882688 6.3433025 -14.625 3.4375 C-10.15565765 -0.71260361 -5.93699231 -0.85881021 0 0 Z " fill="#A1D2A7" transform="translate(514,381)"/>
<path d="M0 0 C3.04247152 2.69476049 4.02367886 5.05809622 5.1875 8.9375 C5.11958353 12.87665533 4.53680649 15.28255033 2.6875 18.75 C-0.82870701 21.82668114 -4.17055614 22.7437493 -8.8125 22.9375 C-12.82902968 21.72496274 -14.4524146 20.35444099 -17.1875 17.1875 C-19.11790652 13.32668695 -19.42188288 11.20318014 -18.8125 6.9375 C-17.19929279 3.88392921 -15.78189098 1.69916434 -13.0625 -0.4375 C-8.45824741 -1.71645905 -4.41235002 -1.66688778 0 0 Z " fill="#A1D2A7" transform="translate(376.8125,382.0625)"/>
<path d="M0 0 C3.01278819 1.60682037 4.5336391 2.87988204 5.85546875 6.0546875 C6.96826698 10.06076114 7.20939627 12.3718112 5.875 16.375 C2.87697946 20.57222875 1.23403398 21.72134717 -3.875 22.875 C-7.99866308 23.25127466 -10.52652173 22.34257837 -14 20 C-16.65159709 17.52517605 -16.96964517 16.27319351 -17.375 12.625 C-16.8749972 7.79163963 -15.63776275 4.4842225 -12 1.1875 C-7.71636229 -1.35590989 -4.77108685 -1.06938154 0 0 Z " fill="#A1D2A7" transform="translate(567,326)"/>
<path d="M0 0 C4.02932085 2.12869781 6.30500437 3.7856245 8 8 C8.52227887 11.07319883 8.55289179 13.92898721 8 17 C5.35109286 20.34598797 3.11775892 22.73762279 -1.20703125 23.2734375 C-8.29132231 23.54958678 -8.29132231 23.54958678 -12.0625 20.625 C-15.38925255 16.11778686 -15.69641694 12.51409576 -15 7 C-11.26462549 0.72990708 -7.14896407 -0.73954801 0 0 Z " fill="#A1D2A7" transform="translate(650,381)"/>
<path d="M0 0 C1.29550781 -0.02126953 1.29550781 -0.02126953 2.6171875 -0.04296875 C5.29467655 0.20309333 6.85901515 0.76754879 9.125 2.1875 C11.97432814 5.64739845 12.6631438 8.70497414 12.4765625 13.19140625 C11.87899206 16.58427841 10.36956842 18.63961152 8.125 21.1875 C4.46153145 23.52804935 1.22033568 23.39125777 -2.94140625 22.73828125 C-5.88784741 21.89899195 -7.73608171 20.32641829 -9.875 18.1875 C-11.60848019 14.72053962 -11.35199379 10.97801063 -10.875 7.1875 C-7.89019633 1.61586649 -6.18544547 0.04588609 0 0 Z " fill="#A1D2A7" transform="translate(584.875,456.8125)"/>
<path d="M0 0 C4.05002295 3.51001989 5.86552398 5.38628774 6.3125 10.75 C6.2401905 15.1689138 5.00719196 17.67626152 2 21 C-2.5430703 23.32201371 -6.10726004 23.33438363 -11 22 C-13.58297781 19.81008403 -15.48415844 18.03168312 -17 15 C-17.26693413 10.9292545 -17.3647429 8.0258394 -16 4.1875 C-11.81940749 -0.38502305 -5.89761255 -2.09692891 0 0 Z " fill="#A1D2A7" transform="translate(442,457)"/>
<path d="M0 0 C2.18535049 1.77133924 3.98508228 3.34516456 5.25390625 5.8828125 C5.64822058 10.61458442 5.70690264 12.97681972 3.56640625 17.2578125 C1.05992284 20.10300989 -0.05711841 21.12824936 -3.74609375 21.8828125 C-8.4244392 22.03495382 -11.02210727 21.48356724 -14.68359375 18.4453125 C-17.58223919 14.84396513 -18.09528558 12.65537599 -18.02734375 7.984375 C-17.56160983 4.50430766 -16.02852511 2.47368053 -13.74609375 -0.1171875 C-9.34694112 -2.85179589 -4.43705432 -2.83892066 0 0 Z " fill="#A1D2A7" transform="translate(461.74609375,327.1171875)"/>
<path d="M0 0 C5.61 0 11.22 0 17 0 C17 5.28 17 10.56 17 16 C11.39 16 5.78 16 0 16 C0 10.72 0 5.44 0 0 Z " fill="#D7DFE0" transform="translate(52,1008)"/>
<path d="M0 0 C0.33 0 0.66 0 1 0 C1 5.28 1 10.56 1 16 C0.67 16 0.34 16 0 16 C0 10.72 0 5.44 0 0 Z " fill="#989898" transform="translate(273,444)"/>
<path d="M0 0 C0.33 0 0.66 0 1 0 C1 3.63 1 7.26 1 11 C0.67 11 0.34 11 0 11 C0 7.37 0 3.74 0 0 Z " fill="#8E8E8E" transform="translate(273,519)"/>
<path d="M0 0 C0.33 0 0.66 0 1 0 C1 3.63 1 7.26 1 11 C0.67 11 0.34 11 0 11 C0 7.37 0 3.74 0 0 Z " fill="#8F8F8F" transform="translate(273,348)"/>
<path d="M0 0 C0.33 0 0.66 0 1 0 C1 2.97 1 5.94 1 9 C0.67 9 0.34 9 0 9 C0 6.03 0 3.06 0 0 Z " fill="#CDCCCC" transform="translate(290,503)"/>
<path d="M0 0 C0.33 0 0.66 0 1 0 C1 2.64 1 5.28 1 8 C0.67 8 0.34 8 0 8 C0 5.36 0 2.72 0 0 Z " fill="#AAA9AA" transform="translate(290,436)"/>
<path d="M0 0 C0.33 0 0.66 0 1 0 C1 2.64 1 5.28 1 8 C0.67 8 0.34 8 0 8 C0 5.36 0 2.72 0 0 Z " fill="#81817F" transform="translate(290,368)"/>
<path d="M0 0 C0.33 0 0.66 0 1 0 C1 2.31 1 4.62 1 7 C0.67 7 0.34 7 0 7 C0 4.69 0 2.38 0 0 Z " fill="#ADADAD" transform="translate(717,668)"/>
<path d="M0 0 C0.33 0 0.66 0 1 0 C1 1.65 1 3.3 1 5 C0.67 5 0.34 5 0 5 C0 3.35 0 1.7 0 0 Z " fill="#D4D5D4" transform="translate(665,711)"/>
<path d="M0 0 C0.33 0 0.66 0 1 0 C1 1.65 1 3.3 1 5 C0.67 5 0.34 5 0 5 C0 3.35 0 1.7 0 0 Z " fill="#C4CBCD" transform="translate(291,547)"/>
<path d="M0 0 C0.33 0 0.66 0 1 0 C1 1.65 1 3.3 1 5 C0.67 5 0.34 5 0 5 C0 3.35 0 1.7 0 0 Z " fill="#808080" transform="translate(256,473)"/>
<path d="M0 0 C3 1 3 1 3 1 Z " fill="#DEDEDE" transform="translate(977,974)"/>
<path d="" fill="#B5B5B5" transform="translate(0,0)"/>
<path d="" fill="#C6C5C8" transform="translate(0,0)"/>
<path d="M0 0 C0.66 0.66 1.32 1.32 2 2 C1.34 2 0.68 2 0 2 C0 1.34 0 0.68 0 0 Z " fill="#E2E2E2" transform="translate(951,392)"/>
<path d="" fill="#9C9C9C" transform="translate(0,0)"/>
<path d="" fill="#959595" transform="translate(0,0)"/>
<path d="M0 0 C2 1 2 1 2 1 Z " fill="#DEDEDE" transform="translate(374,735)"/>
<path d="" fill="#D6D7D4" transform="translate(0,0)"/>
<path d="" fill="#DBDBDB" transform="translate(0,0)"/>
<path d="M0 0 C2 1 2 1 2 1 Z " fill="#CCCCCC" transform="translate(260,471)"/>
<path d="" fill="#959595" transform="translate(0,0)"/>
<path d="" fill="#C0C0C0" transform="translate(0,0)"/>
<path d="" fill="#E9E9E9" transform="translate(0,0)"/>
<path d="" fill="#808080" transform="translate(0,0)"/>
<path d="" fill="#EEEEEE" transform="translate(0,0)"/>
<path d="" fill="#E8E8E8" transform="translate(0,0)"/>
<path d="" fill="#E0E0E0" transform="translate(0,0)"/>
<path d="" fill="#C0C0C0" transform="translate(0,0)"/>
<path d="" fill="#CCCCCC" transform="translate(0,0)"/>
<path d="" fill="#E9E9E9" transform="translate(0,0)"/>
<path d="" fill="#808080" transform="translate(0,0)"/>
<path d="" fill="#E9E9E9" transform="translate(0,0)"/>
<path d="" fill="#EAEAEA" transform="translate(0,0)"/>
<path d="" fill="#E0E0E0" transform="translate(0,0)"/>
<path d="" fill="#E0E0E0" transform="translate(0,0)"/>
<path d="" fill="#C1C1C1" transform="translate(0,0)"/>
<path d="" fill="#E7E7E7" transform="translate(0,0)"/>
<path d="" fill="#ECECEC" transform="translate(0,0)"/>
<path d="" fill="#E5E5E5" transform="translate(0,0)"/>
<path d="" fill="#C0C0C0" transform="translate(0,0)"/>
<path d="" fill="#DEDEDE" transform="translate(0,0)"/>
<path d="" fill="#808080" transform="translate(0,0)"/>
<path d="" fill="#C0C0C0" transform="translate(0,0)"/>
<path d="" fill="#E8E8E8" transform="translate(0,0)"/>
<path d="" fill="#808080" transform="translate(0,0)"/>
<path d="" fill="#C0C0C0" transform="translate(0,0)"/>
<path d="" fill="#D5D5D5" transform="translate(0,0)"/>
<path d="" fill="#C0C0C0" transform="translate(0,0)"/>
<path d="" fill="#E3E3E3" transform="translate(0,0)"/>
<path d="" fill="#CDCDCD" transform="translate(0,0)"/>
<path d="" fill="#E7E7E7" transform="translate(0,0)"/>
<path d="" fill="#D3E0D5" transform="translate(0,0)"/>
<path d="" fill="#DBDBDB" transform="translate(0,0)"/>
<path d="" fill="#E4F0F0" transform="translate(0,0)"/>
<path d="" fill="#D6D6D6" transform="translate(0,0)"/>
<path d="" fill="#EAEAEA" transform="translate(0,0)"/>
<path d="" fill="#C1C1C1" transform="translate(0,0)"/>
<path d="" fill="#E9E9E9" transform="translate(0,0)"/>
<path d="" fill="#E1E1E1" transform="translate(0,0)"/>
<path d="" fill="#EBEBEB" transform="translate(0,0)"/>
<path d="" fill="#EBEBEB" transform="translate(0,0)"/>
<path d="" fill="#D5DFD7" transform="translate(0,0)"/>
<path d="" fill="#E8E8E8" transform="translate(0,0)"/>
<path d="" fill="#E7E7E7" transform="translate(0,0)"/>
<path d="" fill="#C0C0C0" transform="translate(0,0)"/>
<path d="" fill="#DADADA" transform="translate(0,0)"/>
<path d="" fill="#E3E3E3" transform="translate(0,0)"/>
<path d="" fill="#808080" transform="translate(0,0)"/>
<path d="" fill="#EEEEEE" transform="translate(0,0)"/>
<path d="" fill="#808080" transform="translate(0,0)"/>
<path d="" fill="#B2C6C8" transform="translate(0,0)"/>
<path d="" fill="#B2C6C8" transform="translate(0,0)"/>
<path d="" fill="#C0C0C0" transform="translate(0,0)"/>
<path d="" fill="#DBDBDB" transform="translate(0,0)"/>
<path d="" fill="#DADADA" transform="translate(0,0)"/>
<path d="" fill="#E0E0E0" transform="translate(0,0)"/>
<path d="" fill="#EAEAEA" transform="translate(0,0)"/>
<path d="" fill="#EEEEEE" transform="translate(0,0)"/>
<path d="" fill="#CCCCCC" transform="translate(0,0)"/>
<path d="" fill="#EEEEEE" transform="translate(0,0)"/>
<path d="" fill="#AAAAAA" transform="translate(0,0)"/>
<path d="" fill="#D1E5E8" transform="translate(0,0)"/>
<path d="" fill="#DCDCDC" transform="translate(0,0)"/>
<path d="" fill="#ECECEC" transform="translate(0,0)"/>
<path d="" fill="#808080" transform="translate(0,0)"/>
<path d="" fill="#EEEEEE" transform="translate(0,0)"/>
<path d="" fill="#AAAAAA" transform="translate(0,0)"/>
</svg>
