<?xml version="1.0" encoding="UTF-8" standalone="no"?>
<svg
   version="1.1"
   id="Layer_1"
   x="0px"
   y="0px"
   width="100%"
   viewBox="0 0 512 512"
   enable-background="new 0 0 512 512"
   xml:space="preserve"
   sodipodi:docname="phone.svg"
   inkscape:version="1.2.2 (732a01da63, 2022-12-09)"
   xmlns:inkscape="http://www.inkscape.org/namespaces/inkscape"
   xmlns:sodipodi="http://sodipodi.sourceforge.net/DTD/sodipodi-0.dtd"
   xmlns="http://www.w3.org/2000/svg"
   xmlns:svg="http://www.w3.org/2000/svg"><defs
   id="defs17006" /><sodipodi:namedview
   id="namedview17004"
   pagecolor="#ffffff"
   bordercolor="#111111"
   borderopacity="1"
   inkscape:showpageshadow="0"
   inkscape:pageopacity="0"
   inkscape:pagecheckerboard="1"
   inkscape:deskcolor="#d1d1d1"
   showgrid="false"
   inkscape:zoom="1.0253906"
   inkscape:cx="255.51238"
   inkscape:cy="256.48762"
   inkscape:window-width="1360"
   inkscape:window-height="705"
   inkscape:window-x="-8"
   inkscape:window-y="-8"
   inkscape:window-maximized="1"
   inkscape:current-layer="Layer_1" />


<path
   fill="#88C9B3"
   opacity="1.000000"
   stroke="none"
   d=" M1.000001,394.375000   C9.023365,380.588074 16.991062,367.142487 25.081579,353.771210   C42.325348,325.272156 60.330383,297.267731 81.254929,271.294739   C96.880020,251.899826 112.812447,232.747162 128.883148,213.718979   C136.146011,205.119522 144.049713,197.058945 151.715347,188.802780   C157.247284,182.844604 162.622589,176.712265 168.492722,171.102295   C184.922241,155.400940 201.206879,139.517899 218.210938,124.454102   C254.173431,92.595192 292.278137,63.452286 332.915344,37.784920   C352.838837,25.200798 373.406921,13.637155 393.841614,1.305835   C394.750000,1.000000 395.500000,1.000000 396.806030,1.312728   C398.149017,1.863582 398.962250,2.037748 399.719086,2.349124   C422.376068,11.671031 445.044312,20.965851 467.670776,30.361376   C475.835175,33.751598 483.897125,37.388607 491.828796,41.201923   C485.534027,45.458138 479.396210,49.394905 473.301697,53.397617   C428.841553,82.597885 384.390076,111.811394 339.935883,141.020737   C331.469116,135.035416 323.085846,128.924210 314.448944,123.195404   C313.095306,122.297554 310.153687,122.405602 308.682434,123.282936   C288.704407,135.195969 269.548187,148.332916 251.981857,163.610962   C238.130020,175.658386 224.101852,187.592758 211.185150,200.603058   C195.029724,216.875504 179.702682,233.993759 164.441879,251.124466   C148.951279,268.513092 135.888672,287.725464 123.825386,307.627808   C121.979652,310.672943 121.669006,312.767700 124.168449,315.950897   C130.055054,323.447845 135.254654,331.484253 140.731842,339.916077   C136.035278,347.550018 131.290070,354.538086 126.650795,361.595764   C98.058914,405.092346 69.490929,448.604614 40.629448,491.894592   C33.528820,475.089691 26.763065,458.481384 19.884060,441.920135   C13.653552,426.920105 7.299547,411.971344 0.999996,397.000000   C1.000000,396.250000 1.000000,395.500000 1.000001,394.375000  z"
   id="path16993" />
<path
   fill="#51B7A6"
   opacity="1.000000"
   stroke="none"
   d=" M40.915009,492.111694   C69.490929,448.604614 98.058914,405.092346 126.650795,361.595764   C131.290070,354.538086 136.035278,347.550018 140.879333,340.219849   C150.301132,352.803619 159.513107,365.742645 168.893906,378.558105   C171.155991,381.648407 171.273651,383.973175 169.016296,387.328156   C141.832642,427.729553 114.828102,468.251495 87.770935,508.738037   C86.952385,509.962891 86.069557,511.144806 85.108353,512.673340   C84.555557,513.000000 84.111107,513.000000 83.184769,512.671326   C68.773590,505.598999 54.844299,498.855347 40.915009,492.111694  z"
   id="path16995" />
<path
   fill="#51B7A6"
   opacity="1.000000"
   stroke="none"
   d=" M340.093903,141.328323   C384.390076,111.811394 428.841553,82.597885 473.301697,53.397617   C479.396210,49.394905 485.534027,45.458138 492.142456,41.371105   C495.555206,47.117893 498.520294,52.963490 501.388947,58.856026   C505.297821,66.885269 509.133148,74.950310 513.000000,83.000000   C513.000000,83.444443 513.000000,83.888893 513.000000,84.666672   C470.704346,113.155441 428.388428,141.280594 386.162445,169.540146   C383.577087,171.270401 382.037445,171.085983 379.634583,169.363708   C366.585999,160.010941 353.394318,150.857788 340.093903,141.328323  z"
   id="path16997" />
<path
   fill="#FFFFFF"
   opacity="1.000000"
   stroke="none"
   d=" M513.000000,82.531342   C509.133148,74.950310 505.297821,66.885269 501.388947,58.856026   C498.520294,52.963490 495.555206,47.117893 492.319458,41.082188   C483.897125,37.388607 475.835175,33.751598 467.670776,30.361376   C445.044312,20.965851 422.376068,11.671031 399.719086,2.349124   C398.962250,2.037748 398.149017,1.863582 397.181030,1.312728   C435.581055,1.000000 474.162109,1.000000 513.000000,1.000000   C513.000000,28.020351 513.000000,55.041519 513.000000,82.531342  z"
   id="path16999" />
<path
   fill="#FFFFFF"
   opacity="1.000000"
   stroke="none"
   d=" M40.629456,491.894592   C54.844299,498.855347 68.773590,505.598999 82.851440,512.671326   C55.727188,513.000000 28.454376,513.000000 1.000000,513.000000   C1.000000,474.645966 1.000000,436.291626 0.999996,397.468658   C7.299547,411.971344 13.653552,426.920105 19.884060,441.920135   C26.763065,458.481384 33.528820,475.089691 40.629456,491.894592  z"
   id="path17001" />
</svg>
