<?xml version="1.0" encoding="UTF-8" standalone="no"?>
<svg
   version="1.1"
   id="Layer_1"
   x="0px"
   y="0px"
   width="100%"
   viewBox="0 0 512 512"
   enable-background="new 0 0 512 512"
   xml:space="preserve"
   sodipodi:docname="x.svg"
   inkscape:version="1.2.2 (732a01da63, 2022-12-09)"
   xmlns:inkscape="http://www.inkscape.org/namespaces/inkscape"
   xmlns:sodipodi="http://sodipodi.sourceforge.net/DTD/sodipodi-0.dtd"
   xmlns:xlink="http://www.w3.org/1999/xlink"
   xmlns="http://www.w3.org/2000/svg"
   xmlns:svg="http://www.w3.org/2000/svg"><defs
   id="defs423"><color-profile
     name="sRGB-IEC61966-2.1"
     xlink:href="../../../../Windows/system32/spool/drivers/color/sRGB%20Color%20Space%20Profile.icm"
     id="color-profile780" /><color-profile
     name="Agfa-:-Swop-Standard"
     xlink:href="../../../../Windows/system32/spool/drivers/color/RSWOP.icm"
     id="color-profile782" /></defs><sodipodi:namedview
   id="namedview421"
   pagecolor="#ffffff"
   bordercolor="#111111"
   borderopacity="0"
   inkscape:showpageshadow="0"
   inkscape:pageopacity="0"
   inkscape:pagecheckerboard="1"
   inkscape:deskcolor="#d1d1d1"
   showgrid="false"
   inkscape:zoom="1.0253906"
   inkscape:cx="233.0819"
   inkscape:cy="290.62095"
   inkscape:window-width="1360"
   inkscape:window-height="705"
   inkscape:window-x="-8"
   inkscape:window-y="-8"
   inkscape:window-maximized="1"
   inkscape:current-layer="Layer_1" />

<path
   fill="#38b452"
   opacity="1"
   stroke="none"
   d="m 436.07233,36.166542 c 13.04139,1.290276 23.47071,7.498806 30.93165,17.97139 12.5245,17.580017 12.49267,36.022163 2.07217,54.614918 -1.42395,2.5407 -3.29883,4.91996 -5.33991,7.00729 -7.90368,8.08259 -15.95901,16.01688 -24.56454,23.90221 -1.10315,-2.11162 -1.99649,-4.11273 -2.0286,-6.12756 -0.15222,-9.55943 0.0291,-19.12429 -0.13595,-28.68328 -0.0443,-2.56961 -0.88803,-5.125416 -1.18201,-7.94175 3.68472,-4.069886 7.88486,-7.236969 8.34818,-13.212296 0.55154,-7.112968 -2.80155,-11.757736 -8.12836,-16.052704 0.0141,-10.8102 0.0207,-21.144207 0.0274,-31.478218 z"
   id="path302"
   inkscape:transform-center-x="-202.12182"
   inkscape:transform-center-y="-174.02423" />
<path
   fill="#2aabdb"
   opacity="1"
   stroke="none"
   d="m 67.552023,478.81735 c -14.071849,-4.39212 -24.925266,-12.64621 -31.242782,-26.24024 -7.821364,-16.82992 -5.689068,-40.88107 9.052105,-54.49261 5.698665,-5.26196 10.721199,-11.2562 16.559498,-16.72025 1.05603,2.56012 2.032501,4.91547 2.077476,7.28852 0.181885,9.59695 -0.03442,19.20178 0.173531,28.7977 0.04067,1.87661 1.315651,3.72653 1.957023,5.98175 -3.89608,8.45367 -2.292572,15.45349 3.835907,21.87832 -0.446731,8.87384 -0.569465,17.40006 -0.951675,25.91465 -0.114349,2.54745 -0.953819,5.06234 -1.461083,7.59216 z"
   id="path304"
   inkscape:transform-center-x="203.21439"
   inkscape:transform-center-y="168.15213" />
<path
   fill="#2aabdb"
   opacity="1"
   stroke="none"
   d="M 63.031821,134.11522 C 53.169783,124.04367 41.566481,115.55418 35.536643,102.08632 28.98535,87.453789 31.011679,64.173721 43.299178,51.160992 49.532736,44.559513 56.70294,39.76453 65.693671,37.562721 c 0.727844,12.195969 1.077514,23.873696 1.393127,35.926781 -2.77436,5.113457 -3.825531,10.068886 -2.125168,15.792046 -0.400474,2.183975 -0.841041,3.973335 -0.852394,5.765411 -0.06706,10.589941 0.02868,21.181171 -0.08276,31.770371 -0.02564,2.43584 -0.647286,4.86542 -0.994652,7.29789 z"
   id="path306"
   inkscape:transform-center-x="204.64171"
   inkscape:transform-center-y="-176.0997" />
<path
   fill="#38b452"
   opacity="1"
   stroke="none"
   d="m 444.11182,378.88028 c 7.44202,7.95764 15.98197,15.15841 22.09797,24.03018 12.80859,18.57983 9.15084,44.68658 -7.38889,60.12488 -5.50418,5.13769 -11.42178,9.39904 -19.3317,10.56066 -0.40188,-7.90753 -0.26953,-15.3912 -0.51574,-22.86233 -0.0641,-1.94589 -1.30863,-3.85288 -1.86084,-6.0831 8.18258,-8.50296 9.01758,-13.84213 4.01666,-23.09143 0.88693,-3.04599 1.76694,-5.72525 1.88355,-8.43735 0.49057,-11.40848 0.75305,-22.82681 1.09899,-34.24151 z"
   id="path308"
   inkscape:transform-center-x="-201.38874"
   inkscape:transform-center-y="164.29947" />
<path
   fill="#34b17f"
   opacity="1"
   stroke="none"
   d="m 336.12455,243.10806 c -4.72919,4.13676 -9.45844,8.27351 -15.30457,13.38721 5.28275,4.78991 9.17554,8.31958 12.99186,12.50546 0.0234,15.81128 0.12338,30.96634 -0.0797,45.97278 -9.46118,-9.41022 -18.61932,-18.67185 -27.37085,-27.96192 3.78956,-0.20584 3.70536,-2.66888 3.70575,-5.05652 0.003,-17.59762 0.0303,-35.19535 -0.049,-52.79261 -0.008,-1.77396 -0.67224,-3.54497 -0.88961,-5.61638 7.72924,-7.72637 15.31616,-15.1537 23.28802,-22.50302 1.14185,1.87555 2.50794,3.65802 2.55283,5.47316 0.22503,9.09825 0.0172,18.20634 0.1532,27.30813 0.0463,3.09885 0.65194,6.18936 1.00204,9.28371 z"
   id="path310"
   inkscape:transform-center-x="-67.121432"
   inkscape:transform-center-y="-3.9303854" />
<path
   fill="#2fafac"
   opacity="1"
   stroke="none"
   d="m 179.03333,263.88815 c 1.98384,-2.16812 3.96768,-4.33624 5.95153,-6.50436 0.44859,-0.45331 0.89717,-0.90665 1.34574,-1.35999 -2.67646,-2.10091 -5.35295,-4.20181 -8.15509,-7.08191 -0.10527,-15.8678 -0.0848,-30.9564 0.24283,-45.90608 6.91155,6.73048 13.54746,13.29094 20.08925,19.94389 1.10224,1.12096 1.79826,2.64131 2.37322,4.22156 -0.80742,2.26495 -1.72443,4.28253 -1.73873,6.30649 -0.11714,16.5966 -0.10234,33.19461 -0.0173,49.79162 0.01,1.9162 0.69408,3.82892 0.92157,6.04828 -6.74056,6.79309 -13.33702,13.28119 -19.94133,19.2934 -0.0157,-8.62164 0.10681,-16.77017 -0.0722,-24.91211 -0.14554,-6.61774 -0.65267,-13.22748 -0.99944,-19.84079 z"
   id="path312"
   inkscape:transform-center-x="64.62165"
   inkscape:transform-center-y="-6.1002404" />
<path
   fill="#37b45d"
   opacity="1"
   stroke="none"
   d="m 435.64234,97.163956 c 0.47678,2.562138 1.32047,5.117944 1.36481,7.687554 0.16507,9.55899 -0.0163,19.12385 0.13595,28.68328 0.0321,2.01483 0.92545,4.01594 1.72931,6.26999 -9.17624,9.83406 -18.65988,19.42152 -28.64755,28.81994 -1.05249,-2.54924 -2.02936,-4.90129 -2.07434,-7.27104 -0.18185,-9.58533 0.0323,-19.17842 -0.17099,-28.76288 -0.04,-1.88302 -1.28366,-3.74049 -1.82849,-5.91362 9.36493,-9.43893 18.58618,-18.57402 28.04605,-27.889496 0.53601,-0.45731 0.8334,-0.73422 1.12781,-1.206156 -0.003,-0.195031 0.31744,-0.417572 0.31744,-0.417572 z"
   id="path314"
   inkscape:transform-center-x="-168.39024"
   inkscape:transform-center-y="-129.04433" />
<path
   fill="#2faead"
   opacity="1"
   stroke="none"
   d="m 171.18502,105.95404 c 8.90407,8.79574 17.80815,17.59147 26.64482,27.00613 -0.21554,1.09184 -0.50097,1.56744 -0.49177,2.03728 0.22468,11.46062 0.65155,22.92166 0.58345,34.37987 -0.0132,2.22599 -1.93265,4.44067 -3.27254,6.52267 -8.73723,-8.68137 -17.17473,-17.22485 -25.60414,-26.24519 0.016,-12.41884 -0.0927,-24.36297 0.12721,-36.30105 0.0456,-2.47808 1.31018,-4.93372 2.01297,-7.39971 z"
   id="path316"
   inkscape:transform-center-x="70.641184"
   inkscape:transform-center-y="-121.01166" />
<path
   fill="#2fafa4"
   opacity="1"
   stroke="none"
   d="m 194.94871,176.03788 c 1.04016,-2.21989 2.95958,-4.43457 2.97281,-6.66056 0.0681,-11.45821 -0.35877,-22.91925 -0.58345,-34.37987 -0.009,-0.46984 0.27623,-0.94544 0.63531,-1.73264 9.78061,9.1501 19.3503,18.61449 28.8409,28.73644 -0.29924,2.43762 -0.69847,4.21655 -0.70978,5.99792 -0.0627,9.88951 0.10248,19.78267 -0.12508,29.66733 -0.0575,2.49655 -1.26638,4.96661 -2.25053,7.30392 -9.7963,-9.74078 -19.28822,-19.33666 -28.78018,-28.93254 z"
   id="path318"
   inkscape:transform-center-x="43.239993"
   inkscape:transform-center-y="-92.821055" />
<path
   fill="#30af9b"
   opacity="1"
   stroke="none"
   d="m 254.0713,325.83371 c -8.78112,8.66635 -17.56223,17.3327 -26.74199,25.72509 -0.6839,-2.71817 -1.19062,-5.16015 -1.2153,-7.60696 -0.0965,-9.56403 0.0764,-19.1322 -0.1323,-28.69266 -0.046,-2.10736 -1.24399,-4.18963 -1.74717,-6.57016 5.42443,-5.62106 10.57925,-11.06497 15.98036,-16.25247 3.8186,-3.6676 8.09085,-6.72021 13.85621,-5.81174 5.8e-4,13.37513 4e-4,26.292 1.9e-4,39.2089 z"
   id="path320"
   inkscape:transform-center-x="14.968467"
   inkscape:transform-center-y="57.072275" />
<path
   fill="#2faead"
   opacity="1"
   stroke="none"
   d="m 200.11884,379.11419 c -8.77798,8.88938 -17.55595,17.77878 -26.86071,26.44757 -0.74595,-2.18063 -1.1424,-4.13952 -1.15461,-6.10083 -0.0641,-10.29568 0.0737,-20.59405 -0.12675,-30.88623 -0.0367,-1.88415 -1.31194,-3.74414 -1.87567,-5.92254 9.0455,-9.10501 17.95121,-17.90274 27.20317,-26.51398 0.82084,3.52429 1.571,6.84988 1.71939,10.20212 0.48343,10.9194 0.74699,21.84851 1.09518,32.77389 z"
   id="path322"
   inkscape:transform-center-x="69.011518"
   inkscape:transform-center-y="108.9113" />
<path
   fill="#2fafa4"
   opacity="1"
   stroke="none"
   d="m 200.42542,378.97351 c -0.65477,-10.7847 -0.91833,-21.71381 -1.40176,-32.63321 -0.14839,-3.35224 -0.89855,-6.67783 -1.58066,-10.50931 8.7374,-9.28085 17.6823,-18.06805 26.6272,-26.85522 0.66752,2.09378 1.86551,4.17605 1.91151,6.28341 0.2087,9.56046 0.0358,19.12863 0.1323,28.69266 0.0247,2.44681 0.5314,4.88879 0.90895,7.74853 -8.70212,9.3212 -17.49655,18.22681 -26.59754,27.27314 z"
   id="path324"
   inkscape:transform-center-x="41.888508"
   inkscape:transform-center-y="82.03597" />
<path
   fill="#30af9b"
   opacity="1"
   stroke="none"
   d="m 224.03324,205.11534 c 0.6798,-2.48223 1.8887,-4.95229 1.94618,-7.44884 0.22756,-9.88466 0.0624,-19.77782 0.12508,-29.66733 0.0113,-1.78137 0.41054,-3.5603 0.854,-5.69372 8.77571,8.09095 17.32808,16.53529 26.01126,25.75576 0.12204,6.22101 -0.0149,11.66941 0.1355,17.10987 0.20883,7.55739 0.63315,15.10881 0.55646,22.72818 -3.15327,-0.75533 -6.57491,-0.81072 -8.52179,-2.53308 -7.29661,-6.45519 -14.11133,-13.45513 -21.10669,-20.25084 z"
   id="path326"
   inkscape:transform-center-x="15.26943"
   inkscape:transform-center-y="-66.836315" />
<path
   fill="#2cadc6"
   opacity="1"
   stroke="none"
   d="m 128.20741,451.03418 c -9.10007,9.08999 -17.61285,18.87909 -29.786078,24.30514 -0.348808,-4.8808 -0.234161,-9.34314 -0.371056,-13.79776 -0.262855,-8.55386 -0.66835,-17.1033 -0.883217,-25.95892 8.690271,-8.74933 17.249091,-17.19434 26.152251,-25.45001 0.81429,2.04141 1.66308,3.8879 1.69047,5.74649 0.1399,9.49527 -0.12709,19.00067 0.2124,28.4859 0.0807,2.25577 1.94261,4.44781 2.98523,6.66916 z"
   id="path328"
   inkscape:transform-center-x="141.43425"
   inkscape:transform-center-y="180.7973" />
<path
   fill="#35b270"
   opacity="1"
   stroke="none"
   d="m 351.96659,90.957901 c 8.83875,-8.895935 17.67752,-17.791878 26.96097,-26.462692 0.67834,2.180679 1.10129,4.135017 1.11398,6.09201 0.0677,10.412705 -0.0273,20.826706 0.0836,31.238661 0.0221,2.07451 0.69553,4.14208 0.91904,6.51514 -9.41004,9.4607 -18.6705,18.61908 -27.90244,27.35072 0.30875,-13.94414 0.64435,-27.461 0.77686,-40.979841 0.0122,-1.244835 -1.2706,-2.502358 -1.95206,-3.753998 z"
   id="path330"
   inkscape:transform-center-x="-112.38387"
   inkscape:transform-center-y="-161.8452" />
<path
   fill="#36b366"
   opacity="1"
   stroke="none"
   d="m 406.00733,126.98104 c 0.68854,1.86927 1.93225,3.72674 1.9722,5.60976 0.20331,9.58446 -0.0109,19.17755 0.17099,28.76288 0.045,2.36975 1.02185,4.7218 1.77167,7.41777 -8.57999,9.224 -17.36136,18.11221 -26.6655,26.78728 -0.74264,-7.61751 -0.91034,-15.02391 -1.19748,-22.42566 -0.27441,-7.07343 -0.67312,-14.14202 -0.86871,-21.50937 8.37128,-8.41197 16.59405,-16.52733 24.81683,-24.64266 z"
   id="path332"
   inkscape:transform-center-x="-141.43486"
   inkscape:transform-center-y="-100.66879" />
<path
   fill="#33b181"
   opacity="1"
   stroke="none"
   d="m 303.03226,139.8824 c 8.46613,-8.56906 16.93223,-17.13811 25.70884,-25.37958 0.66461,15.09123 1.01867,29.85486 1.23132,44.91673 -8.68713,8.73842 -17.23279,17.17861 -26.00391,25.26743 -0.44833,-2.29772 -0.85366,-4.24306 -0.86444,-6.19058 -0.0712,-12.87107 -0.0577,-25.74262 -0.0718,-38.614 z"
   id="path334"
   inkscape:transform-center-x="-62.380852"
   inkscape:transform-center-y="-112.34377" />
<path
   fill="#36b367"
   opacity="1"
   stroke="none"
   d="m 381.19379,108.03872 c -0.37307,-2.07076 -1.0465,-4.13833 -1.0686,-6.21284 -0.11093,-10.411955 -0.016,-20.825956 -0.0836,-31.238661 -0.0127,-1.956993 -0.43564,-3.911331 -0.82284,-6.25917 7.91604,-7.68232 15.98568,-14.972367 24.74536,-22.130905 1.16327,1.976429 2.01822,3.815731 2.04547,5.667217 0.1394,9.472576 0.005,18.949009 0.11661,28.422306 0.0227,1.920906 0.69482,3.834137 0.91732,6.052963 -8.7167,8.767746 -17.28317,17.233424 -25.84967,25.69909 z"
   id="path336"
   inkscape:transform-center-x="-139.00964"
   inkscape:transform-center-y="-186.82074" />
<path
   fill="#36b366"
   opacity="1"
   stroke="none"
   d="m 409.94477,473.83218 c -7.42377,-1.59918 -13.30096,-5.80914 -18.56689,-11.03256 -3.39356,-3.36618 -6.75269,-6.76706 -9.92395,-10.6001 1.00766,-2.64844 2.4635,-4.83609 2.50793,-7.05206 0.2424,-12.08423 0.13748,-24.17545 0.45554,-36.1171 10.03256,10.08832 19.76159,20.02948 29.10168,29.99515 -3.82583,0.31052 -3.41125,2.92096 -3.42834,5.18002 -0.0746,9.87537 -0.10163,19.75107 -0.14597,29.62665 z"
   id="path338"
   inkscape:transform-center-x="-143.36502"
   inkscape:transform-center-y="179.4926" />
<path
   fill="#2dadbd"
   opacity="1"
   stroke="none"
   d="m 155.03654,226.11917 c -8.93076,-8.8179 -17.86153,-17.63581 -26.70697,-27.11511 0.30507,-2.60869 0.70472,-4.555 0.71539,-6.50342 0.0705,-12.87085 0.0573,-25.74214 0.37921,-38.47495 8.58421,8.41408 16.88558,16.66518 25.10716,24.99504 1.0933,1.1077 1.78156,2.61515 2.28817,4.05547 -1.15964,1.95705 -2.64399,3.80194 -2.62851,5.63417 0.10525,12.47108 0.52638,24.93951 0.84555,37.4088 z"
   id="path340"
   inkscape:transform-center-x="111.54695"
   inkscape:transform-center-y="-71.86624" />
<path
   fill="#2cadc6"
   opacity="1"
   stroke="none"
   d="m 96.070632,38.16621 c 7.534238,1.768826 13.529978,6.137787 18.995028,11.348274 3.01242,2.872101 5.89543,5.879937 8.71273,9.418271 -0.64961,2.792678 -1.59117,4.986545 -1.62896,7.195877 -0.16715,9.770858 0.0352,19.548492 -0.17134,29.317848 -0.0397,1.878242 -1.31547,3.730364 -2.32311,5.45923 -9.10039,-9.045 -17.89866,-17.954706 -26.379766,-27.06962 1.143966,-2.412155 2.623337,-4.601189 2.684486,-6.829163 0.26368,-9.607349 0.111641,-19.226108 0.110932,-28.840717 z"
   id="path342"
   inkscape:transform-center-x="145.59468"
   inkscape:transform-center-y="-192.40271" />
<path
   fill="#32b18a"
   opacity="1"
   stroke="none"
   d="m 302.72892,140.02969 c 0.31744,12.72409 0.30392,25.59564 0.37515,38.46671 0.0108,1.94752 0.41611,3.89286 0.71665,6.49398 -8.51725,9.1465 -17.11216,17.63825 -25.71494,25.65386 -0.0298,-15.57134 -0.0519,-30.66655 -0.0738,-45.76175 8.13119,-8.23519 16.26242,-16.47035 24.69696,-24.8528 z"
   id="path344"
   inkscape:transform-center-x="-36.804862"
   inkscape:transform-center-y="-86.601705" />
<path
   fill="#2eaeb8"
   opacity="1"
   stroke="none"
   d="m 171.04215,105.64883 c -0.55992,2.7712 -1.82445,5.22684 -1.8701,7.70492 -0.21991,11.93808 -0.11121,23.88221 -0.43281,36.15539 -8.11121,-7.5747 -15.90871,-15.48059 -23.69886,-23.83181 -0.31637,-12.73085 -0.76428,-25.01543 -0.85949,-37.302727 -0.0191,-2.468513 1.30204,-4.947426 2.00524,-7.421547 8.23771,8.130188 16.47544,16.260376 24.85602,24.695774 z"
   id="path346"
   inkscape:transform-center-x="96.51007"
   inkscape:transform-center-y="-146.70757" />
<path
   fill="#34b278"
   opacity="1"
   stroke="none"
   d="m 330.11387,159.12132 c -0.3541,-14.76364 -0.70816,-29.52727 -1.06992,-44.76749 7.43589,-8.02297 14.8794,-15.569366 22.62278,-23.255853 0.98132,1.111564 2.26412,2.369087 2.25192,3.613922 -0.13251,13.518841 -0.46811,27.035701 -0.91864,41.278031 -7.74225,8.19374 -15.31421,15.66256 -22.88614,23.13139 z"
   id="path348"
   inkscape:transform-center-x="-87.359855"
   inkscape:transform-center-y="-136.82902" />
<path
   fill="#2bacd3"
   opacity="1"
   stroke="none"
   d="m 66.193198,423.03921 c -0.705696,-1.86221 -1.980675,-3.71213 -2.021347,-5.58874 -0.207955,-9.59592 0.0084,-19.20075 -0.173531,-28.7977 -0.04498,-2.37305 -1.021446,-4.7284 -1.770393,-7.4281 8.59787,-9.24582 17.396423,-18.15543 26.505539,-26.76703 -0.01176,12.7525 -0.448708,25.20605 -0.553025,37.66232 -0.01926,2.30063 1.305985,4.61249 1.869851,7.22617 -8.04625,8.10235 -15.951676,15.89773 -23.857094,23.69308 z"
   id="path350"
   inkscape:transform-center-x="177.98238"
   inkscape:transform-center-y="126.80975" />
<path
   fill="#31b092"
   opacity="1"
   stroke="none"
   d="m 277.72825,165.0291 c 0.32568,14.94859 0.34769,30.0438 0.23779,45.91438 -3.97211,4.62286 -7.84286,8.44047 -11.64349,12.32666 -3.38504,3.46126 -7.26184,5.47407 -12.25211,4.56373 -0.33203,-7.55398 -0.75635,-15.1054 -0.96518,-22.66279 -0.15036,-5.44046 -0.0135,-10.88886 0.004,-16.80966 1.3374,-1.28296 2.87814,-1.87331 3.96051,-2.93221 6.84146,-6.69337 13.58136,-13.49058 20.65854,-20.40011 z"
   id="path352"
   inkscape:transform-center-x="-11.409082"
   inkscape:transform-center-y="-65.39791" />
<path
   fill="#2daebb"
   opacity="1"
   stroke="none"
   d="m 131.9587,310.95587 c 8.13561,-8.24521 16.27121,-16.49045 24.9319,-24.51782 0.74462,11.93985 0.9094,23.66333 1.22394,35.38281 0.0744,2.77261 0.65207,5.53168 0.86273,8.59863 -8.01886,8.07425 -15.90223,15.84683 -24.01072,23.26779 -0.44739,-2.30371 -0.84917,-4.25467 -0.86187,-6.2081 -0.0656,-10.09417 0.0856,-20.19146 -0.12802,-30.28152 -0.0443,-2.09393 -1.31335,-4.16187 -2.01796,-6.24179 z"
   id="path354"
   inkscape:transform-center-x="108.6535"
   inkscape:transform-center-y="58.123995" />
<path
   fill="#2eaeb8"
   opacity="1"
   stroke="none"
   d="m 169.96131,362.95941 c 0.70352,1.87115 1.97876,3.73114 2.01546,5.61529 0.20042,10.29218 0.0626,20.59055 0.12675,30.88623 0.0122,1.96131 0.40866,3.9202 0.85038,6.23401 -7.92458,8.59934 -16.07169,16.84485 -24.53708,24.78083 -0.32659,-10.40015 -0.19464,-20.49366 -0.4063,-30.58002 -0.0961,-4.58182 -0.87285,-9.14942 -1.16508,-13.98132 7.82246,-7.82358 15.46916,-15.38932 23.11587,-22.95502 z"
   id="path356"
   inkscape:transform-center-x="94.221818"
   inkscape:transform-center-y="134.77892" />
<path
   fill="#35b276"
   opacity="1"
   stroke="none"
   d="m 336.42838,242.96353 c -0.65393,-2.94982 -1.25961,-6.04033 -1.30587,-9.13918 -0.13596,-9.10179 0.0718,-18.20988 -0.1532,-27.30813 -0.0449,-1.81514 -1.41098,-3.59761 -2.41523,-5.77712 7.64155,-8.17834 15.53043,-15.97471 23.80817,-23.69641 1.16235,1.85545 2.57651,3.62553 2.60654,5.41875 0.20987,12.54826 0.13367,25.10129 0.14905,37.6528 -7.46186,7.56825 -14.92374,15.13652 -22.68946,22.84929 z"
   id="path358"
   inkscape:transform-center-x="-91.715181"
   inkscape:transform-center-y="-51.93556" />
<path
   fill="#35b270"
   opacity="1"
   stroke="none"
   d="m 355.11356,289.88278 c 7.92392,7.82123 15.84784,15.64249 23.69693,24.11926 -0.29486,2.6199 -0.6925,4.58319 -0.70517,6.54889 -0.0652,10.15329 0.0716,20.30911 -0.11529,30.45938 -0.04,2.17575 -1.12793,4.33225 -1.97861,6.2974 -7.15558,-7.18772 -14.06573,-14.17521 -20.97122,-21.60361 0.0275,-15.56769 0.0504,-30.69452 0.0734,-45.82132 z"
   id="path360"
   inkscape:transform-center-x="-112.80386"
   inkscape:transform-center-y="61.656575" />
<path
   fill="#2eaeb4"
   opacity="1"
   stroke="none"
   d="m 155.16883,226.42239 c -0.45146,-12.77251 -0.87259,-25.24094 -0.97784,-37.71202 -0.0155,-1.83223 1.46887,-3.67712 2.97525,-5.61122 7.45894,6.53586 14.20187,13.16679 20.94482,19.79771 -0.0204,15.08863 -0.0408,30.17723 -0.0693,45.74181 -7.58562,-6.98705 -15.16311,-14.45004 -22.8729,-22.21628 z"
   id="path362"
   inkscape:transform-center-x="87.970523"
   inkscape:transform-center-y="-46.06976" />
<path
   fill="#35b36e"
   opacity="1"
   stroke="none"
   d="m 359.42146,218.99279 c -0.319,-12.4053 -0.2428,-24.95833 -0.45267,-37.50659 -0.03,-1.79322 -1.44419,-3.5633 -2.45432,-5.71918 8.0181,-8.52405 16.27283,-16.67299 24.52753,-24.82193 0.34409,7.07072 0.7428,14.13931 1.01721,21.21274 0.28714,7.40175 0.45484,14.80815 0.89731,22.56685 -7.59543,8.27687 -15.41345,16.19938 -23.53506,24.26811 z"
   id="path364"
   inkscape:transform-center-x="-115.61401"
   inkscape:transform-center-y="-75.99449" />
<path
   fill="#2cadcb"
   opacity="1"
   stroke="none"
   d="m 90.191107,399.03912 c -0.704681,-2.30667 -2.02993,-4.61853 -2.010666,-6.91916 0.104317,-12.45627 0.54126,-24.90982 0.85994,-37.80411 7.126984,-7.67453 14.257609,-14.90918 21.774419,-21.90417 0.55283,1.38534 0.87906,2.53345 0.86125,3.67624 -0.16583,10.64087 -0.53933,21.28137 -0.49476,31.92053 0.0112,2.67969 1.30585,5.35403 1.86908,8.33743 -7.71417,7.76883 -15.286722,15.23102 -22.859263,22.69324 z"
   id="path366"
   inkscape:transform-center-x="153.50619"
   inkscape:transform-center-y="103.78673" />
<path
   fill="#2dadbe"
   opacity="1"
   stroke="none"
   d="m 146.66967,386.1723 c 0.468,4.57403 1.24472,9.14163 1.34085,13.72345 0.21166,10.08636 0.0797,20.17987 0.0964,30.7467 -6.42684,7.02606 -12.86213,13.57596 -19.59847,20.25879 -1.3437,-2.08841 -3.2056,-4.28045 -3.28631,-6.53622 -0.33949,-9.48523 -0.0725,-18.99063 -0.2124,-28.4859 -0.0274,-1.85859 -0.87618,-3.70508 -1.54426,-6.04776 7.03603,-7.61515 14.27017,-14.7396 21.73653,-22.04145 0.51657,-0.4562 0.80095,-0.73504 1.09622,-1.21844 0.0109,-0.20456 0.3714,-0.39917 0.3714,-0.39917 z"
   id="path368"
   inkscape:transform-center-x="118.32255"
   inkscape:transform-center-y="156.5981" />
<path
   fill="#2cadc3"
   opacity="1"
   stroke="none"
   d="m 113.19199,376.03927 c -0.70485,-2.67679 -1.99948,-5.35113 -2.0107,-8.03082 -0.0446,-10.63916 0.32893,-21.27966 0.49476,-31.92053 0.0178,-1.14279 -0.30842,-2.2909 -0.55566,-3.8201 6.69083,-7.26953 13.46227,-14.15552 20.53601,-21.17673 1.00691,1.9447 2.27592,4.01264 2.32026,6.10657 0.21366,10.09006 0.0625,20.18735 0.12802,30.28152 0.0127,1.95343 0.41448,3.90439 0.71961,6.51435 -7.15555,7.7872 -14.39392,14.91647 -21.6323,22.04574 z"
   id="path370"
   inkscape:transform-center-x="131.14915"
   inkscape:transform-center-y="81.62651" />
<path
   fill="#37b45d"
   opacity="1"
   stroke="none"
   d="m 407.19367,82.037567 c -0.37271,-1.916763 -1.04483,-3.829994 -1.06753,-5.7509 -0.112,-9.473297 0.0228,-18.94973 -0.11661,-28.422306 -0.0272,-1.851486 -0.8822,-3.690788 -1.70148,-5.72226 9.35446,-5.984523 19.67618,-8.527302 31.34998,-6.065708 0.40768,10.42416 0.40103,20.758167 -0.028,31.515129 -7.7265,-1.863434 -13.94006,-0.427475 -19.16021,5.435356 -2.85907,3.211029 -6.16938,6.020272 -9.27619,9.010689 z"
   id="path372"
   inkscape:transform-center-x="-166.0115"
   inkscape:transform-center-y="-203.34811" />
<path
   fill="#31b092"
   opacity="1"
   stroke="none"
   d="m 254.37635,325.9866 c -0.30484,-13.06979 -0.30466,-25.98666 0.0931,-39.43045 1.36761,-0.42899 2.38776,-0.49228 3.2999,-0.20847 9.9895,3.10816 15.45239,11.61145 21.78759,18.78641 -1.05926,2.17285 -2.30133,4.1955 -2.39306,6.26901 -0.52643,11.90021 -0.77994,23.81247 -1.12601,35.72065 -7.11883,-6.99476 -14.23767,-13.98951 -21.66156,-21.13715 z"
   id="path374"
   inkscape:transform-center-x="-12.736112"
   inkscape:transform-center-y="54.710647" />
<path
   fill="#2dadbe"
   opacity="1"
   stroke="none"
   d="m 146.04469,80.647079 c -0.56176,2.780098 -1.88292,5.259011 -1.8638,7.727524 0.0952,12.287297 0.54312,24.571877 0.55352,37.159607 -8.46797,-7.96294 -16.62265,-16.22807 -24.77732,-24.49321 0.70553,-1.864156 1.98128,-3.716278 2.021,-5.59452 0.20656,-9.769356 0.004,-19.54699 0.17134,-29.317848 0.0378,-2.209332 0.97935,-4.403199 1.77028,-6.889855 7.50475,6.843659 14.74413,13.972992 22.12498,21.408302 z"
   id="path376"
   inkscape:transform-center-x="121.1206"
   inkscape:transform-center-y="-169.55218" />
<path
   fill="#2bacd3"
   opacity="1"
   stroke="none"
   d="m 63.161597,134.42027 c 0.21759,-2.73752 0.839241,-5.1671 0.864876,-7.60294 0.111442,-10.5892 0.0157,-21.18043 0.08276,-31.770371 0.01135,-1.792076 0.45192,-3.581436 1.160897,-5.608498 1.54779,1.163384 2.505149,2.683548 3.730377,3.943169 7.031074,7.22836 14.125702,14.39491 20.792076,21.61029 -3.774803,0.19719 -3.708542,2.64286 -3.710388,5.02928 -0.0064,8.2752 0.09935,16.55233 -0.05409,24.82471 -0.06979,3.76233 -0.646782,7.51523 -0.993705,11.27242 -7.247689,-7.131 -14.495362,-14.26201 -21.872803,-21.69806 z"
   id="path378"
   inkscape:transform-center-x="177.6444"
   inkscape:transform-center-y="-139.16028" />
<path
   fill="#37b360"
   opacity="1"
   stroke="none"
   d="m 400.11408,334.88217 c 7.90839,7.80542 15.81674,15.61087 23.69751,24.06698 -0.5968,3.21167 -1.60495,5.76377 -1.65716,8.33527 -0.19593,9.65274 -0.0216,19.3125 -0.12995,28.96802 -0.0216,1.92749 -0.6759,3.84793 -1.33752,5.63049 -7.08115,-7.01425 -13.86322,-13.88742 -20.63806,-21.23688 0.0265,-15.57214 0.0458,-30.66803 0.0652,-45.76388 z"
   id="path380"
   inkscape:transform-center-x="-157.80876"
   inkscape:transform-center-y="106.44388" />
<path
   fill="#33b183"
   opacity="1"
   stroke="none"
   d="m 320.03867,391.12237 c -7.24334,-7.13446 -14.48669,-14.26892 -21.85971,-22.18011 -0.11099,-15.86075 -0.0923,-30.94474 0.23169,-45.88739 7.23807,7.0646 14.20017,13.95886 21.07361,20.94046 1.10605,1.12341 1.81671,2.63611 2.3631,4.15289 -0.82205,2.02109 -1.68912,3.85397 -1.70892,5.69592 -0.13355,12.42502 -0.0876,24.85193 -0.0998,37.27823 z"
   id="path382"
   inkscape:transform-center-x="-55.860993"
   inkscape:transform-center-y="95.14995" />
<path
   fill="#36b367"
   opacity="1"
   stroke="none"
   d="m 399.97126,334.58441 c 0.12347,15.39361 0.10416,30.4895 -0.22522,45.91125 -8.03641,-7.44531 -15.76276,-15.21655 -23.48914,-22.98776 0.6052,-2.16534 1.69309,-4.32184 1.73313,-6.49759 0.18692,-10.15027 0.0501,-20.30609 0.11529,-30.45938 0.0127,-1.9657 0.41031,-3.92899 0.85352,-6.24704 7.10532,6.42511 13.98746,13.20392 21.01242,20.28052 z"
   id="path384"
   inkscape:transform-center-x="-134.02761"
   inkscape:transform-center-y="85.461105" />
<path
   fill="#2cadc5"
   opacity="1"
   stroke="none"
   d="m 129.11637,153.88734 c -0.0141,12.87116 -9.6e-4,25.74245 -0.0714,38.6133 -0.0107,1.94842 -0.41032,3.89473 -0.85274,6.19589 -7.44948,-6.75711 -14.67627,-13.8681 -21.87593,-21.67651 0.27081,-2.97564 0.71098,-5.25263 0.72549,-7.53232 0.0797,-12.52915 0.0553,-25.05896 0.37495,-37.4513 7.43875,7.37514 14.56919,14.61304 21.69964,21.85094 z"
   id="path386"
   inkscape:transform-center-x="136.40515"
   inkscape:transform-center-y="-96.572205" />
<path
   fill="#35b276"
   opacity="1"
   stroke="none"
   d="m 360.97245,432.04843 c -7.22302,-7.11438 -14.44604,-14.22873 -21.6492,-22.03647 0.26337,-2.81262 0.70102,-4.93042 0.71716,-7.05136 0.0754,-9.91852 -0.0838,-19.84043 0.1312,-29.75485 0.0453,-2.09125 1.31051,-4.1561 2.31323,-6.09528 7.33221,7.23965 14.36481,14.34149 21.08432,21.77991 -0.70703,2.40878 -1.41696,4.47726 -1.44138,6.55383 -0.11892,10.11871 0.006,20.24023 -0.10488,30.35913 -0.0228,2.0853 -0.68369,4.16358 -1.05045,6.24509 z"
   id="path388"
   inkscape:transform-center-x="-97.324717"
   inkscape:transform-center-y="137.64078" />
<path
   fill="#2eaeb4"
   opacity="1"
   stroke="none"
   d="m 159.11277,330.11786 c -0.34616,-2.76532 -0.92383,-5.52439 -0.99823,-8.297 -0.31454,-11.71948 -0.47932,-23.44296 -0.92111,-35.51929 6.92804,-7.61224 14.07831,-14.87024 21.53424,-22.27081 0.65243,6.4707 1.15956,13.08044 1.3051,19.69818 0.17906,8.14194 0.0566,16.29047 -0.0639,25.21344 -7.03758,7.57669 -13.94682,14.3761 -20.85609,21.17548 z"
   id="path390"
   inkscape:transform-center-x="85.463228"
   inkscape:transform-center-y="35.13564" />
<path
   fill="#35b36e"
   opacity="1"
   stroke="none"
   d="m 361.11695,432.35211 c 0.22226,-2.38519 0.88312,-4.46347 0.90595,-6.54877 0.11096,-10.1189 -0.014,-20.24042 0.10488,-30.35913 0.0244,-2.07657 0.73435,-4.14505 1.69419,-6.36777 7.14123,6.50193 13.71658,13.15433 20.2919,19.80677 -0.0145,12.0888 0.0904,24.18002 -0.15201,36.26425 -0.0444,2.21597 -1.50027,4.40362 -2.65494,6.74853 -6.91534,-6.31726 -13.4804,-12.77871 -20.18997,-19.54388 z"
   id="path392"
   inkscape:transform-center-x="-118.49915"
   inkscape:transform-center-y="158.54754" />
<path
   fill="#2bacd0"
   opacity="1"
   stroke="none"
   d="m 97.035597,435.88696 c 0.346329,8.5513 0.751824,17.10074 1.014679,25.6546 0.136895,4.45462 0.02225,8.91696 0.02016,13.83386 -8.382538,4.60718 -17.147598,5.75583 -26.319725,3.88355 -1.107735,-0.22614 -2.268326,-0.19336 -3.801552,-0.36109 0.110123,-2.61035 0.949593,-5.12524 1.063942,-7.67269 0.38221,-8.51459 0.504944,-17.04081 1.340462,-25.88523 7.316124,3.58292 16.14952,1.96118 20.619674,-3.64752 1.728173,-2.16837 4.024727,-3.88376 6.062355,-5.80548 z"
   id="path394"
   inkscape:transform-center-x="171.08822"
   inkscape:transform-center-y="196.06314" />
<path
   fill="#2bacd0"
   opacity="1"
   stroke="none"
   d="m 95.720908,37.990067 c 0.350433,9.790752 0.502472,19.409511 0.238792,29.01686 -0.06115,2.227974 -1.54052,4.417008 -2.99015,6.691819 C 89.946814,71.861641 87.809729,69.356354 85.095976,68.16835 77.987982,65.056671 72.366835,68.710709 67.120848,73.114143 66.771185,61.436417 66.421515,49.75869 66.070471,37.622772 c 9.838517,-3.514381 19.615502,-3.732284 29.650437,0.367295 z"
   id="path396"
   inkscape:transform-center-x="173.0397"
   inkscape:transform-center-y="-207.61385" />
<path
   fill="#34b278"
   opacity="1"
   stroke="none"
   d="m 354.97184,289.58441 c 0.1188,15.42517 0.0959,30.552 -0.23465,45.96783 -7.10574,-6.61734 -13.9039,-13.52374 -20.70203,-20.43014 -0.0999,-15.15503 -0.19989,-30.31009 -0.0765,-45.8187 7.10607,6.42514 13.98877,13.20392 21.01321,20.28101 z"
   id="path398"
   inkscape:transform-center-x="-90.347934"
   inkscape:transform-center-y="40.48915" />
<path
   fill="#37b459"
   opacity="1"
   stroke="none"
   d="m 420.98603,402.02404 c 0.36255,-1.92367 1.01682,-3.84411 1.03845,-5.7716 0.10834,-9.65552 -0.066,-19.31528 0.12995,-28.96802 0.0522,-2.5715 1.06036,-5.1236 1.80133,-8.03674 6.73758,6.11145 13.30343,12.57498 20.01269,19.33557 -0.20257,11.71173 -0.46505,23.13006 -0.95562,34.53854 -0.11661,2.7121 -0.99662,5.39136 -2.15586,8.29032 -7.04391,-6.3263 -13.45743,-12.85718 -19.87094,-19.38807 z"
   id="path400"
   inkscape:transform-center-x="-178.35575"
   inkscape:transform-center-y="128.39122" />
<path
   fill="#2cadcb"
   opacity="1"
   stroke="none"
   d="m 107.10843,131.89915 c -0.0113,12.52959 0.0131,25.0594 -0.0666,37.58855 -0.0145,2.27969 -0.45468,4.55668 -0.85777,7.22778 -7.069174,-6.40094 -13.978933,-13.19476 -21.019148,-20.29288 0.216461,-4.06146 0.793457,-7.81436 0.863243,-11.57669 0.153443,-8.27238 0.04771,-16.54951 0.05409,-24.82471 0.0018,-2.38642 -0.06441,-4.83209 4.014213,-4.89913 6.144341,5.66054 11.578182,11.21881 17.012022,16.77708 z"
   id="path402"
   inkscape:transform-center-x="157.98479"
   inkscape:transform-center-y="-116.0199" />
<path
   fill="#32b18a"
   opacity="1"
   stroke="none"
   d="m 298.10529,322.91354 c -0.0187,15.08398 -0.0373,30.16797 -0.0645,45.72818 -7.24875,-6.65494 -14.48895,-13.78607 -21.86603,-21.21759 0.20923,-12.20856 0.46274,-24.12082 0.98917,-36.02103 0.0917,-2.07351 1.3338,-4.09616 2.54989,-5.96579 6.46735,5.94306 12.42942,11.70963 18.39148,17.47623 z"
   id="path404"
   inkscape:transform-center-x="-33.018542"
   inkscape:transform-center-y="75.100845" />
<path
   fill="#34b27c"
   opacity="1"
   stroke="none"
   d="m 342.18525,366.97265 c -0.70313,2.077 -1.96829,4.14185 -2.01364,6.2331 -0.21503,9.91442 -0.0558,19.83633 -0.1312,29.75485 -0.0161,2.12094 -0.45379,4.23874 -0.8569,6.75055 -6.39581,-5.73484 -12.63202,-11.86222 -19.0065,-18.28922 -0.12619,-12.72586 -0.17212,-25.15277 -0.0386,-37.57779 0.0198,-1.84195 0.88687,-3.67483 2.00897,-5.55746 7.11062,6.19827 13.57425,12.44214 20.03784,18.68597 z"
   id="path406"
   inkscape:transform-center-x="-77.000032"
   inkscape:transform-center-y="117.06024" />
<path
   fill="#37b45d"
   opacity="1"
   stroke="none"
   d="m 410.27192,473.96386 c -0.28281,-10.00726 -0.25577,-19.88296 -0.18118,-29.75833 0.0171,-2.25906 -0.39749,-4.8695 3.59042,-4.87173 7.02991,6.73791 14.25992,9.99389 23.28134,5.62213 0.70233,1.92486 1.94684,3.83185 2.01096,5.77774 0.24621,7.47113 0.11386,14.9548 0.13043,22.91031 -9.49908,3.41034 -19.00327,3.40603 -28.83197,0.31988 z"
   id="path408"
   inkscape:transform-center-x="-170.46126"
   inkscape:transform-center-y="195.849" />
<path
   fill="#000000"
   opacity="1"
   stroke="none"
   d="m 437.11262,444.65057 c -9.17154,4.67712 -16.40155,1.42114 -23.04248,-5.34128 -9.89115,-10.24945 -19.62018,-20.19061 -29.65274,-30.27893 -6.87885,-6.79959 -13.4542,-13.45199 -20.28235,-20.29046 -7.2854,-7.28794 -14.318,-14.38978 -21.65021,-21.62943 -6.76318,-6.38165 -13.22681,-12.62552 -19.99045,-19.00781 -1.19342,-1.47122 -1.90408,-2.98392 -3.01013,-4.10733 -6.87344,-6.9816 -13.83554,-13.87586 -21.07361,-20.94046 -6.26742,-5.90793 -12.22949,-11.6745 -18.34839,-17.74433 -6.84048,-7.35141 -12.30337,-15.8547 -22.29287,-18.96286 -0.91214,-0.28381 -1.93229,-0.22052 -3.30063,-0.24972 -6.16301,-0.38162 -10.43526,2.67099 -14.25386,6.33859 -5.40111,5.1875 -10.55593,10.63141 -15.98035,16.25247 -9.10925,9.07392 -18.05415,17.86112 -27.1378,26.95551 -9.04444,9.10489 -17.95015,17.90262 -26.99567,27.0076 -7.78648,7.87298 -15.43318,15.43872 -23.25564,23.2623 -0.17577,0.25787 -0.53627,0.45248 -0.84517,0.77655 -0.54941,0.64147 -0.78992,0.95889 -1.03043,1.2763 -7.23415,7.12448 -14.46829,14.24893 -21.84866,21.67471 -8.70503,8.74631 -17.26385,17.19132 -25.954136,25.94065 -2.169075,2.22604 -4.465629,3.94143 -6.193802,6.1098 -4.470154,5.6087 -13.30355,7.23044 -20.395065,3.29544 -6.741875,-6.10217 -8.345383,-13.10199 -4.449295,-21.55566 7.969734,-8.18836 15.87516,-15.98374 23.921402,-24.08609 7.713364,-7.76923 15.285916,-15.23142 23.000096,-23.00025 7.37999,-7.43588 14.61836,-14.56515 21.99901,-22.00073 8.02565,-8.07883 15.90902,-15.85141 23.9279,-23.92566 7.04475,-7.10101 13.95399,-13.90042 20.9994,-21.00116 6.73264,-6.78949 13.3291,-13.27759 20.37204,-20.20526 7.13266,-7.12582 13.60507,-14.04568 20.57385,-20.42313 5.40098,-4.94271 5.59778,-16.17614 2.18093,-19.95881 -6.90906,-7.64879 -14.56563,-14.62232 -21.91394,-21.87432 -0.88372,-1.3358 -1.57974,-2.85615 -2.68198,-3.97711 -6.54179,-6.65295 -13.1777,-13.21341 -20.08925,-19.94389 -7.05023,-6.76987 -13.79316,-13.4008 -20.88287,-20.05467 -1.22258,-1.34526 -1.91084,-2.85271 -3.00414,-3.96041 -8.22158,-8.32986 -16.52295,-16.58096 -25.10716,-24.99504 -7.43825,-7.37625 -14.56869,-14.61415 -22.00744,-21.98929 -5.74214,-5.69552 -11.175978,-11.25379 -16.913642,-16.9422 -7.376876,-7.31766 -14.471504,-14.48421 -21.502578,-21.71257 -1.225228,-1.259621 -2.182587,-2.779785 -3.572159,-4.336533 -2.167084,-5.486709 -1.115913,-10.442138 1.658447,-15.555595 5.280037,-4.778793 10.901184,-8.432831 18.009178,-5.321152 2.713753,1.188004 4.850838,3.693291 7.556389,5.735596 9.103955,9.047058 17.902225,17.956764 27.002615,27.001764 8.45678,8.40043 16.61146,16.66556 25.07208,25.07382 8.10347,8.04902 15.90097,15.95491 24.00409,24.00646 8.7431,8.68915 17.1806,17.23263 25.91784,25.914 9.79168,9.73377 19.2836,19.32965 29.0799,29.07043 7.29971,6.94063 14.11443,13.94057 21.41104,20.39576 1.94688,1.72236 5.36852,1.77775 8.52179,2.53308 5.39899,0.84495 9.27579,-1.16786 12.66083,-4.62912 3.80063,-3.88619 7.67138,-7.7038 11.65137,-11.85053 8.73464,-8.79098 17.32955,-17.28273 26.07229,-26.07788 8.69342,-8.74357 17.23908,-17.18376 25.92621,-25.92218 7.71338,-7.76706 15.28534,-15.23588 22.99905,-23.00288 9.40226,-9.45657 18.66272,-18.61495 28.07279,-28.07564 8.71603,-8.767976 17.2825,-17.233654 25.99917,-26.0014 3.25705,-3.29248 6.56736,-6.101723 9.42643,-9.312752 5.22015,-5.862831 11.43371,-7.29879 19.15277,-4.959167 5.74914,3.872017 9.10223,8.516785 8.55069,15.629753 -0.46332,5.975327 -4.66346,9.14241 -8.34818,13.212296 -0.1828,0.254196 -0.5032,0.476737 -0.80444,0.788955 -0.5549,0.631269 -0.80856,0.950319 -1.06226,1.269369 -9.22122,9.135076 -18.44247,18.270166 -27.8074,27.709096 -8.36649,8.41919 -16.58926,16.53455 -24.96054,24.94652 -8.4032,8.44557 -16.65793,16.59451 -25.06485,25.0439 -8.04114,8.09679 -15.93002,15.89316 -23.95651,23.99347 -7.72452,7.73131 -15.31144,15.15864 -23.34217,23.03433 -6.89944,6.92078 -13.43277,13.31796 -19.79037,19.88527 -7.43466,7.67989 -8.20291,17.96703 -1.49924,25.25404 5.83774,6.34571 12.25571,12.15757 18.4173,18.2053 9.15814,9.26165 18.31628,18.52328 27.77746,27.9335 7.10117,7.05499 13.89933,13.96139 21.00043,21.01965 7.21314,7.13934 14.12329,14.12683 21.27887,21.31455 7.97186,7.9714 15.69821,15.74264 23.72742,23.66424 7.0849,7.02356 13.86697,13.89673 20.94812,20.91098 6.71258,6.672 13.1261,13.20288 19.81195,19.8808 5.63129,9.04471 4.79629,14.38388 -3.38629,22.88684 z"
   id="path410"
   inkscape:transform-center-x="-0.015887814"
   inkscape:transform-center-y="-4.8625205" />
<path
   fill="#32b186"
   opacity="1"
   stroke="none"
   d="m 306.36127,287.01159 c -6.5682,-6.01931 -12.98617,-11.83117 -18.82391,-18.17688 -6.70367,-7.28701 -5.93542,-17.57415 1.49924,-25.25404 6.3576,-6.56731 12.89093,-12.96449 19.64804,-19.58623 0.66119,1.62305 1.32547,3.39406 1.33343,5.16802 0.0792,17.59726 0.0518,35.19499 0.049,52.79261 -3.9e-4,2.38764 0.0838,4.85068 -3.70575,5.05652 z"
   id="path412"
   inkscape:transform-center-x="-42.390994"
   inkscape:transform-center-y="-6.4356554" />
<path
   fill="#2fafa4"
   opacity="1"
   stroke="none"
   d="m 200.88081,227.20126 c 7.65707,7.00755 15.31364,13.98108 22.2227,21.62987 3.41685,3.78267 3.22005,15.0161 -2.18093,19.95881 -6.96878,6.37745 -13.44119,13.29731 -20.42974,20.11814 -0.67398,-1.77979 -1.35825,-3.69251 -1.36806,-5.60871 -0.085,-16.59701 -0.0998,-33.19502 0.0173,-49.79162 0.0143,-2.02396 0.93131,-4.04154 1.73873,-6.30649 z"
   id="path414"
   inkscape:transform-center-x="41.9025"
   inkscape:transform-center-y="-3.8840004" />
<path
   fill="#38b452"
   opacity="1"
   stroke="none"
   d="m 434.19709,98.787674 c 0.015,-0.13864 0.26871,-0.45769 0.82657,-0.893921 0.007,0.159711 -0.29056,0.436621 -0.82657,0.893921 z"
   id="path416"
   inkscape:transform-center-x="-180.48895"
   inkscape:transform-center-y="-163.59796" />
<path
   fill="#2eaeb8"
   opacity="1"
   stroke="none"
   d="m 145.20205,387.78991 c 0.008,-0.14004 0.24881,-0.45746 0.78732,-0.89441 0.0136,0.15937 -0.27075,0.43821 -0.78732,0.89441 z"
   id="path418"
   inkscape:transform-center-x="108.52554"
   inkscape:transform-center-y="125.40403" />
</svg>
