<svg version="1.1" id="Layer_1" xmlns="http://www.w3.org/2000/svg" xmlns:xlink="http://www.w3.org/1999/xlink" x="0px" y="0px"
	 width="100%" viewBox="0 0 512 512" enable-background="new 0 0 512 512" xml:space="preserve">
<path fill="#000000" opacity="1.000000" stroke="none" 
	d="
M513.000000,251.000000 
	C513.000000,338.645386 513.000000,425.790771 513.000000,512.968079 
	C342.396271,512.968079 171.792526,512.968079 1.094398,512.968079 
	C1.094398,342.437958 1.094398,171.875870 1.094398,1.156883 
	C171.666550,1.156883 342.333252,1.156883 513.000000,1.156883 
	C513.000000,84.207428 513.000000,167.353714 513.000000,251.000000 
M342.229095,410.705322 
	C349.452118,417.819702 356.675140,424.934052 364.187164,432.655823 
	C370.752228,439.117279 377.317291,445.578735 384.176361,452.647217 
	C387.550903,456.032562 390.910034,459.433441 394.303589,462.799622 
	C399.569519,468.023041 405.446716,472.233002 413.524719,474.095581 
	C423.026337,477.050018 432.530518,477.054321 442.807892,474.024567 
	C450.324829,472.434387 456.242432,468.173035 461.746613,463.035339 
	C478.286346,447.597046 481.944092,421.490295 469.135498,402.910461 
	C463.019501,394.038696 454.479553,386.837921 446.750763,378.286194 
	C440.184906,371.822662 433.619049,365.359131 426.764893,358.298492 
	C418.856537,350.493042 410.948181,342.687592 402.754150,334.286621 
	C395.872009,327.507812 388.989868,320.729004 381.811035,313.346527 
	C373.887115,305.525269 365.963196,297.704010 357.755829,289.286072 
	C350.873108,282.507324 343.990417,275.728546 336.814056,268.344482 
	C332.921234,264.814850 329.028442,261.285187 323.745697,256.495270 
	C329.591827,251.381577 334.321075,247.244827 339.657959,242.819016 
	C347.119812,235.250763 354.581696,227.682495 362.650787,219.821823 
	C370.468781,211.899307 378.286804,203.976791 386.705170,195.771881 
	C395.486542,186.883667 404.267914,177.995453 413.654633,168.813766 
	C423.138245,159.226303 432.621887,149.638840 442.704102,139.766541 
	C450.702942,131.777023 458.758270,123.842735 466.661957,115.760139 
	C468.703033,113.672813 470.577911,111.293549 472.001862,108.752853 
	C482.422363,90.160095 482.454193,71.717949 469.929688,54.137932 
	C462.468750,43.665348 452.039429,37.456818 438.169403,35.986240 
	C426.909943,33.614799 416.588226,36.157578 406.199738,42.065636 
	C398.130096,49.355682 390.060455,56.645729 381.408569,64.270088 
	C372.569824,73.166023 363.731049,82.061966 354.292572,91.238060 
	C346.849060,98.784462 339.405548,106.330864 331.356323,114.175232 
	C322.890198,122.744293 314.424103,131.313339 305.351288,140.176971 
	C297.220093,148.412140 289.088867,156.647308 280.350250,165.175705 
	C273.576782,171.938629 266.836884,178.735840 259.995422,185.429214 
	C258.913055,186.488113 257.372314,187.078461 255.764664,187.285080 
	C247.212296,178.840744 238.659927,170.396408 229.819077,161.343674 
	C220.249390,151.879303 210.679703,142.414917 200.822952,132.341248 
	C191.918884,123.545517 183.014801,114.749779 173.824997,105.343620 
	C165.587280,97.213432 157.349548,89.083244 148.828934,80.341103 
	C141.589554,73.211769 134.350174,66.082436 126.828156,58.341061 
	C123.886803,55.394421 121.003792,52.386585 117.991371,49.514484 
	C112.526321,44.303997 106.530579,39.935036 98.296906,37.813927 
	C88.611687,33.890488 78.834702,34.108391 68.241203,37.044479 
	C59.628654,39.764530 52.458450,44.559513 46.224892,51.160992 
	C33.937393,64.173721 31.911064,87.453789 38.462357,102.086327 
	C44.492195,115.554184 56.095497,124.043678 66.217079,134.725327 
	C73.464752,141.856323 80.712425,148.987335 88.221031,156.726898 
	C95.130791,163.520721 102.040550,170.314545 109.214867,177.717438 
	C116.441658,184.828430 123.668449,191.939423 131.169952,199.665482 
	C140.100723,208.483368 149.031494,217.301270 158.226837,226.725632 
	C165.804337,234.188629 173.381821,241.651627 181.226898,249.721069 
	C183.903366,251.821991 186.579849,253.922897 189.256317,256.023804 
	C188.807739,256.477142 188.359161,256.930481 187.910568,257.383789 
	C185.926727,259.551910 183.942886,261.720032 181.347717,264.173340 
	C174.197449,271.431335 167.047180,278.689331 159.291229,286.220215 
	C151.155624,294.465424 143.020020,302.710663 134.279800,311.226318 
	C127.508369,318.112305 120.736931,324.998291 113.354324,332.171997 
	C106.223701,339.406677 99.093079,346.641327 91.348610,354.159607 
	C82.550064,363.069244 73.751511,371.978851 64.338806,381.167664 
	C59.008259,386.828308 53.985725,392.822540 48.287060,398.084503 
	C33.545887,411.696045 31.413591,435.747192 39.234955,452.577118 
	C45.552471,466.171143 56.405888,474.425232 71.272011,478.978394 
	C72.408104,479.065613 73.568695,479.032837 74.676430,479.258972 
	C83.848557,481.131256 92.613617,479.982605 101.696877,475.761292 
	C113.520271,469.913269 122.033051,460.124176 131.735275,450.768280 
	C138.170547,444.218414 144.605835,437.668518 151.660812,430.785309 
	C159.807922,422.539795 167.955032,414.294281 176.710632,405.782379 
	C185.488602,396.892975 194.266571,388.003571 203.657700,378.832794 
	C212.452118,369.927185 221.246552,361.021576 230.653671,351.832794 
	C239.434784,343.166412 248.215897,334.500061 257.607147,326.139496 
	C264.725952,333.134247 271.844788,340.128998 279.237305,347.724518 
	C286.477539,354.855652 293.717743,361.986786 301.234344,369.718994 
	C308.477692,376.853455 315.721039,383.987915 323.241028,391.721527 
	C329.477203,397.848938 335.713409,403.976318 342.229095,410.705322 
z"/>
<path fill="#38B452" opacity="1.000000" stroke="none" 
	d="
M438.998047,36.166542 
	C452.039429,37.456818 462.468750,43.665348 469.929688,54.137932 
	C482.454193,71.717949 482.422363,90.160095 472.001862,108.752853 
	C470.577911,111.293549 468.703033,113.672813 466.661957,115.760139 
	C458.758270,123.842735 450.702942,131.777023 442.097412,139.662354 
	C440.994263,137.550735 440.100922,135.549622 440.068817,133.534790 
	C439.916595,123.975365 440.097931,114.410507 439.932861,104.851509 
	C439.888519,102.281906 439.044830,99.726097 438.750854,96.909760 
	C442.435577,92.839874 446.635712,89.672791 447.099030,83.697464 
	C447.650574,76.584496 444.297485,71.939728 438.970673,67.644760 
	C438.984772,56.834560 438.991425,46.500553 438.998047,36.166542 
z"/>
<path fill="#2AABDB" opacity="1.000000" stroke="none" 
	d="
M70.477737,478.817352 
	C56.405888,474.425232 45.552471,466.171143 39.234955,452.577118 
	C31.413591,435.747192 33.545887,411.696045 48.287060,398.084503 
	C53.985725,392.822540 59.008259,386.828308 64.846558,381.364258 
	C65.902588,383.924377 66.879059,386.279724 66.924034,388.652771 
	C67.105919,398.249725 66.889610,407.854553 67.097565,417.450470 
	C67.138237,419.327087 68.413216,421.177002 69.054588,423.432220 
	C65.158508,431.885895 66.762016,438.885712 72.890495,445.310547 
	C72.443764,454.184387 72.321030,462.710602 71.938820,471.225189 
	C71.824471,473.772644 70.985001,476.287537 70.477737,478.817352 
z"/>
<path fill="#2AABDB" opacity="1.000000" stroke="none" 
	d="
M65.957535,134.115219 
	C56.095497,124.043678 44.492195,115.554184 38.462357,102.086327 
	C31.911064,87.453789 33.937393,64.173721 46.224892,51.160992 
	C52.458450,44.559513 59.628654,39.764530 68.619385,37.562721 
	C69.347229,49.758690 69.696899,61.436417 70.012512,73.489502 
	C67.238152,78.602959 66.186981,83.558388 67.887344,89.281548 
	C67.486870,91.465523 67.046303,93.254883 67.034950,95.046959 
	C66.967888,105.636902 67.063629,116.228134 66.952187,126.817337 
	C66.926552,129.253174 66.304901,131.682755 65.957535,134.115219 
z"/>
<path fill="#38B452" opacity="1.000000" stroke="none" 
	d="
M447.037537,378.880280 
	C454.479553,386.837921 463.019501,394.038696 469.135498,402.910461 
	C481.944092,421.490295 478.286346,447.597046 461.746613,463.035339 
	C456.242432,468.173035 450.324829,472.434387 442.414917,473.596008 
	C442.013031,465.688477 442.145386,458.204803 441.899170,450.733673 
	C441.835052,448.787781 440.590546,446.880798 440.038330,444.650574 
	C448.220917,436.147614 449.055908,430.808441 444.054993,421.559143 
	C444.941925,418.513153 445.821930,415.833893 445.938538,413.121796 
	C446.429108,401.713318 446.691589,390.294983 447.037537,378.880280 
z"/>
<path fill="#34B17F" opacity="1.000000" stroke="none" 
	d="
M339.050262,243.108063 
	C334.321075,247.244827 329.591827,251.381577 323.745697,256.495270 
	C329.028442,261.285187 332.921234,264.814850 336.737549,269.000732 
	C336.760986,284.812012 336.860931,299.967072 336.657837,314.973511 
	C327.196655,305.563293 318.038513,296.301666 309.286987,287.011597 
	C313.076538,286.805756 312.992340,284.342712 312.992737,281.955078 
	C312.995544,264.357452 313.023010,246.759720 312.943787,229.162460 
	C312.935822,227.388504 312.271545,225.617493 312.054169,223.546082 
	C319.783417,215.819717 327.370331,208.392380 335.342194,201.043060 
	C336.484039,202.918610 337.850128,204.701080 337.895020,206.516220 
	C338.120056,215.614471 337.912262,224.722565 338.048218,233.824356 
	C338.094482,236.923203 338.700165,240.013718 339.050262,243.108063 
z"/>
<path fill="#2FAFAC" opacity="1.000000" stroke="none" 
	d="
M181.959045,263.888153 
	C183.942886,261.720032 185.926727,259.551910 187.910568,257.383789 
	C188.359161,256.930481 188.807739,256.477142 189.256317,256.023804 
	C186.579849,253.922897 183.903366,251.821991 181.101227,248.941895 
	C180.995956,233.074097 181.016373,217.985489 181.344055,203.035812 
	C188.255600,209.766296 194.891510,216.326752 201.433304,222.979706 
	C202.535538,224.100662 203.231567,225.621017 203.806519,227.201263 
	C202.999100,229.466217 202.082092,231.483795 202.067795,233.507751 
	C201.950653,250.104355 201.965454,266.702362 202.050491,283.299377 
	C202.060303,285.215576 202.744568,287.128296 202.972061,289.347656 
	C196.231506,296.140747 189.635040,302.628845 183.030731,308.641052 
	C183.015060,300.019409 183.137543,291.870880 182.958481,283.728943 
	C182.812943,277.111206 182.305817,270.501465 181.959045,263.888153 
z"/>
<path fill="#37B45D" opacity="1.000000" stroke="none" 
	d="
M438.568054,97.163956 
	C439.044830,99.726097 439.888519,102.281906 439.932861,104.851509 
	C440.097931,114.410507 439.916595,123.975365 440.068817,133.534790 
	C440.100922,135.549622 440.994263,137.550735 441.798126,139.804779 
	C432.621887,149.638840 423.138245,159.226303 413.150574,168.624725 
	C412.098083,166.075485 411.121216,163.723434 411.076233,161.353683 
	C410.894379,151.768356 411.108551,142.175262 410.905243,132.590805 
	C410.865295,130.707779 409.621582,128.850311 409.076752,126.677185 
	C418.441681,117.238251 427.662933,108.103165 437.122803,98.787682 
	C437.658813,98.330376 437.956207,98.053467 438.250610,97.581528 
	C438.247650,97.386497 438.568054,97.163956 438.568054,97.163956 
z"/>
<path fill="#2FAEAD" opacity="1.000000" stroke="none" 
	d="
M174.110733,105.954048 
	C183.014801,114.749779 191.918884,123.545517 200.755554,132.960175 
	C200.540009,134.052017 200.254578,134.527618 200.263779,134.997452 
	C200.488464,146.458069 200.915329,157.919113 200.847229,169.377319 
	C200.834000,171.603317 198.914581,173.817993 197.574692,175.899994 
	C188.837463,167.218628 180.399963,158.675140 171.970551,149.654800 
	C171.986557,137.235962 171.877853,125.291832 172.097763,113.353752 
	C172.143417,110.875671 173.407944,108.420036 174.110733,105.954048 
z"/>
<path fill="#2FAFA4" opacity="1.000000" stroke="none" 
	d="
M197.874420,176.037888 
	C198.914581,173.817993 200.834000,171.603317 200.847229,169.377319 
	C200.915329,157.919113 200.488464,146.458069 200.263779,134.997452 
	C200.254578,134.527618 200.540009,134.052017 200.899094,133.264816 
	C210.679703,142.414917 220.249390,151.879303 229.739990,162.001251 
	C229.440750,164.438873 229.041519,166.217804 229.030212,167.999176 
	C228.967514,177.888687 229.132690,187.781845 228.905136,197.666504 
	C228.847656,200.163055 227.638748,202.633118 226.654602,204.970428 
	C216.858307,195.229645 207.366379,185.633759 197.874420,176.037888 
z"/>
<path fill="#30AF9B" opacity="1.000000" stroke="none" 
	d="
M256.997009,325.833710 
	C248.215897,334.500061 239.434784,343.166412 230.255020,351.558807 
	C229.571121,348.840637 229.064407,346.398651 229.039719,343.951843 
	C228.943237,334.387817 229.116119,324.819641 228.907425,315.259186 
	C228.861420,313.151825 227.663437,311.069550 227.160248,308.689026 
	C232.584686,303.067963 237.739502,297.624054 243.140610,292.436554 
	C246.959213,288.768951 251.231461,285.716339 256.996826,286.624817 
	C256.997406,299.999939 256.997223,312.916809 256.997009,325.833710 
z"/>
<path fill="#2FAEAD" opacity="1.000000" stroke="none" 
	d="
M203.044556,379.114197 
	C194.266571,388.003571 185.488602,396.892975 176.183838,405.561768 
	C175.437897,403.381134 175.041443,401.422241 175.029236,399.460938 
	C174.965134,389.165253 175.102905,378.866882 174.902481,368.574707 
	C174.865784,366.690552 173.590546,364.830566 173.026810,362.652161 
	C182.072311,353.547150 190.978027,344.749420 200.229980,336.138184 
	C201.050827,339.662476 201.800980,342.988068 201.949371,346.340302 
	C202.432800,357.259705 202.696365,368.188812 203.044556,379.114197 
z"/>
<path fill="#2FAFA4" opacity="1.000000" stroke="none" 
	d="
M203.351135,378.973511 
	C202.696365,368.188812 202.432800,357.259705 201.949371,346.340302 
	C201.800980,342.988068 201.050827,339.662476 200.368713,335.830994 
	C209.106110,326.550140 218.051010,317.762939 226.995911,308.975769 
	C227.663437,311.069550 228.861420,313.151825 228.907425,315.259186 
	C229.116119,324.819641 228.943237,334.387817 229.039719,343.951843 
	C229.064407,346.398651 229.571121,348.840637 229.948669,351.700378 
	C221.246552,361.021576 212.452118,369.927185 203.351135,378.973511 
z"/>
<path fill="#30AF9B" opacity="1.000000" stroke="none" 
	d="
M226.958954,205.115341 
	C227.638748,202.633118 228.847656,200.163055 228.905136,197.666504 
	C229.132690,187.781845 228.967514,177.888687 229.030212,167.999176 
	C229.041519,166.217804 229.440750,164.438873 229.884216,162.305450 
	C238.659927,170.396408 247.212296,178.840744 255.895477,188.061218 
	C256.017517,194.282227 255.880615,199.730621 256.030975,205.171082 
	C256.239807,212.728470 256.664124,220.279892 256.587433,227.899261 
	C253.434158,227.143936 250.012527,227.088547 248.065643,225.366180 
	C240.769028,218.910995 233.954315,211.911057 226.958954,205.115341 
z"/>
<path fill="#2CADC6" opacity="1.000000" stroke="none" 
	d="
M131.133118,451.034180 
	C122.033051,460.124176 113.520271,469.913269 101.347046,475.339325 
	C100.998238,470.458527 101.112885,465.996185 100.975990,461.541565 
	C100.713135,452.987701 100.307640,444.438263 100.092773,435.582642 
	C108.783043,426.833313 117.341858,418.388306 126.245026,410.132629 
	C127.059311,412.174042 127.908104,414.020538 127.935493,415.879120 
	C128.075394,425.374390 127.808403,434.879791 128.147888,444.365021 
	C128.228607,446.620789 130.090500,448.812836 131.133118,451.034180 
z"/>
<path fill="#35B270" opacity="1.000000" stroke="none" 
	d="
M354.892303,90.957901 
	C363.731049,82.061966 372.569824,73.166023 381.853271,64.495209 
	C382.531616,66.675888 382.954559,68.630226 382.967255,70.587219 
	C383.034912,80.999924 382.939972,91.413925 383.050903,101.825882 
	C383.072998,103.900391 383.746429,105.967964 383.969940,108.341026 
	C374.559906,117.801720 365.299438,126.960106 356.067505,135.691742 
	C356.376251,121.747604 356.711853,108.230743 356.844360,94.711899 
	C356.856567,93.467064 355.573761,92.209541 354.892303,90.957901 
z"/>
<path fill="#36B366" opacity="1.000000" stroke="none" 
	d="
M408.933044,126.981041 
	C409.621582,128.850311 410.865295,130.707779 410.905243,132.590805 
	C411.108551,142.175262 410.894379,151.768356 411.076233,161.353683 
	C411.121216,163.723434 412.098083,166.075485 412.847900,168.771454 
	C404.267914,177.995453 395.486542,186.883667 386.182404,195.558731 
	C385.439758,187.941223 385.272064,180.534821 384.984924,173.133072 
	C384.710510,166.059647 384.311798,158.991058 384.116211,151.623703 
	C392.487488,143.211731 400.710266,135.096375 408.933044,126.981041 
z"/>
<path fill="#33B181" opacity="1.000000" stroke="none" 
	d="
M305.957977,139.882401 
	C314.424103,131.313339 322.890198,122.744293 331.666809,114.502823 
	C332.331421,129.594055 332.685486,144.357681 332.898132,159.419556 
	C324.210999,168.157974 315.665344,176.598160 306.894226,184.686981 
	C306.445892,182.389267 306.040558,180.443924 306.029785,178.496399 
	C305.958557,165.625336 305.972076,152.753784 305.957977,139.882401 
z"/>
<path fill="#36B367" opacity="1.000000" stroke="none" 
	d="
M384.119507,108.038727 
	C383.746429,105.967964 383.072998,103.900391 383.050903,101.825882 
	C382.939972,91.413925 383.034912,80.999924 382.967255,70.587219 
	C382.954559,68.630226 382.531616,66.675888 382.144409,64.328049 
	C390.060455,56.645729 398.130096,49.355682 406.889771,42.197144 
	C408.053040,44.173573 408.907990,46.012875 408.935242,47.864361 
	C409.074646,57.336937 408.939850,66.813370 409.051849,76.286667 
	C409.074554,78.207573 409.746674,80.120804 409.969177,82.339630 
	C401.252472,91.107376 392.686005,99.573051 384.119507,108.038727 
z"/>
<path fill="#36B366" opacity="1.000000" stroke="none" 
	d="
M412.870483,473.832184 
	C405.446716,472.233002 399.569519,468.023041 394.303589,462.799622 
	C390.910034,459.433441 387.550903,456.032562 384.379639,452.199524 
	C385.387299,449.551086 386.843140,447.363434 386.887573,445.147461 
	C387.129974,433.063232 387.025055,420.972015 387.343109,409.030365 
	C397.375671,419.118683 407.104706,429.059845 416.444794,439.025513 
	C412.618958,439.336029 413.033539,441.946472 413.016449,444.205536 
	C412.941864,454.080902 412.914825,463.956604 412.870483,473.832184 
z"/>
<path fill="#2DADBD" opacity="1.000000" stroke="none" 
	d="
M157.962250,226.119171 
	C149.031494,217.301270 140.100723,208.483368 131.255280,199.004059 
	C131.560349,196.395370 131.960007,194.449066 131.970673,192.500641 
	C132.041122,179.629791 132.027985,166.758499 132.349884,154.025696 
	C140.934097,162.439774 149.235458,170.690872 157.457047,179.020737 
	C158.550339,180.128433 159.238602,181.635880 159.745209,183.076202 
	C158.585571,185.033249 157.101227,186.878143 157.116699,188.710373 
	C157.221954,201.181458 157.643082,213.649887 157.962250,226.119171 
z"/>
<path fill="#2CADC6" opacity="1.000000" stroke="none" 
	d="
M98.996346,38.166210 
	C106.530579,39.935036 112.526321,44.303997 117.991371,49.514484 
	C121.003792,52.386585 123.886803,55.394421 126.704102,58.932755 
	C126.054497,61.725433 125.112930,63.919300 125.075142,66.128632 
	C124.907997,75.899490 125.110367,85.677124 124.903801,95.446480 
	C124.864082,97.324722 123.588333,99.176842 122.580688,100.905716 
	C113.480301,91.860710 104.682030,82.951004 96.200928,73.836090 
	C97.344894,71.423935 98.824265,69.234901 98.885414,67.006927 
	C99.149094,57.399578 98.997055,47.780819 98.996346,38.166210 
z"/>
<path fill="#32B18A" opacity="1.000000" stroke="none" 
	d="
M305.654633,140.029694 
	C305.972076,152.753784 305.958557,165.625336 306.029785,178.496399 
	C306.040558,180.443924 306.445892,182.389267 306.746429,184.990387 
	C298.229187,194.136887 289.634277,202.628632 281.031494,210.644241 
	C281.001648,195.072906 280.979645,179.977692 280.957672,164.882492 
	C289.088867,156.647308 297.220093,148.412140 305.654633,140.029694 
z"/>
<path fill="#2EAEB8" opacity="1.000000" stroke="none" 
	d="
M173.967865,105.648834 
	C173.407944,108.420036 172.143417,110.875671 172.097763,113.353752 
	C171.877853,125.291832 171.986557,137.235962 171.664948,149.509140 
	C163.553741,141.934448 155.756241,134.028549 147.966095,125.677338 
	C147.649719,112.946480 147.201813,100.661903 147.106598,88.374603 
	C147.087479,85.906090 148.408646,83.427177 149.111847,80.953056 
	C157.349548,89.083244 165.587280,97.213432 173.967865,105.648834 
z"/>
<path fill="#34B278" opacity="1.000000" stroke="none" 
	d="
M333.039581,159.121323 
	C332.685486,144.357681 332.331421,129.594055 331.969666,114.353836 
	C339.405548,106.330864 346.849060,98.784462 354.592438,91.097977 
	C355.573761,92.209541 356.856567,93.467064 356.844360,94.711899 
	C356.711853,108.230743 356.376251,121.747604 355.925720,135.989929 
	C348.183472,144.183670 340.611511,151.652496 333.039581,159.121323 
z"/>
<path fill="#2BACD3" opacity="1.000000" stroke="none" 
	d="
M69.118912,423.039215 
	C68.413216,421.177002 67.138237,419.327087 67.097565,417.450470 
	C66.889610,407.854553 67.105919,398.249725 66.924034,388.652771 
	C66.879059,386.279724 65.902588,383.924377 65.153641,381.224670 
	C73.751511,371.978851 82.550064,363.069244 91.659180,354.457642 
	C91.647415,367.210144 91.210472,379.663696 91.106155,392.119965 
	C91.086891,394.420593 92.412140,396.732452 92.976006,399.346130 
	C84.929756,407.448486 77.024330,415.243866 69.118912,423.039215 
z"/>
<path fill="#31B092" opacity="1.000000" stroke="none" 
	d="
M280.653961,165.029099 
	C280.979645,179.977692 281.001648,195.072906 280.891754,210.943481 
	C276.919647,215.566345 273.048889,219.383957 269.248260,223.270142 
	C265.863220,226.731400 261.986420,228.744217 256.996155,227.833878 
	C256.664124,220.279892 256.239807,212.728470 256.030975,205.171082 
	C255.880615,199.730621 256.017517,194.282227 256.034912,188.361420 
	C257.372314,187.078461 258.913055,186.488113 259.995422,185.429214 
	C266.836884,178.735840 273.576782,171.938629 280.653961,165.029099 
z"/>
<path fill="#2DAEBB" opacity="1.000000" stroke="none" 
	d="
M134.884415,310.955872 
	C143.020020,302.710663 151.155624,294.465424 159.816315,286.438049 
	C160.560928,298.377899 160.725708,310.101379 161.040253,321.820862 
	C161.114655,324.593475 161.692322,327.352539 161.902985,330.419495 
	C153.884125,338.493744 146.000748,346.266327 137.892258,353.687286 
	C137.444870,351.383575 137.043091,349.432617 137.030396,347.479187 
	C136.964844,337.385010 137.116028,327.287720 136.902374,317.197662 
	C136.858032,315.103729 135.589020,313.035797 134.884415,310.955872 
z"/>
<path fill="#2EAEB8" opacity="1.000000" stroke="none" 
	d="
M172.887024,362.959412 
	C173.590546,364.830566 174.865784,366.690552 174.902481,368.574707 
	C175.102905,378.866882 174.965134,389.165253 175.029236,399.460938 
	C175.041443,401.422241 175.437897,403.381134 175.879608,405.694946 
	C167.955032,414.294281 159.807922,422.539795 151.342529,430.475769 
	C151.015945,420.075623 151.147888,409.982117 150.936234,399.895752 
	C150.840103,395.313934 150.063385,390.746338 149.771149,385.914429 
	C157.593613,378.090851 165.240311,370.525116 172.887024,362.959412 
z"/>
<path fill="#35B276" opacity="1.000000" stroke="none" 
	d="
M339.354095,242.963531 
	C338.700165,240.013718 338.094482,236.923203 338.048218,233.824356 
	C337.912262,224.722565 338.120056,215.614471 337.895020,206.516220 
	C337.850128,204.701080 336.484039,202.918610 335.479797,200.739105 
	C343.121338,192.560760 351.010223,184.764389 359.287964,177.042694 
	C360.450317,178.898148 361.864471,180.668228 361.894501,182.461441 
	C362.104370,195.009705 362.028168,207.562729 362.043549,220.114243 
	C354.581696,227.682495 347.119812,235.250763 339.354095,242.963531 
z"/>
<path fill="#35B270" opacity="1.000000" stroke="none" 
	d="
M358.039276,289.882782 
	C365.963196,297.704010 373.887115,305.525269 381.736206,314.002045 
	C381.441345,316.621948 381.043701,318.585236 381.031036,320.550934 
	C380.965820,330.704224 381.102661,340.860046 380.915741,351.010315 
	C380.875702,353.186066 379.787811,355.342560 378.937134,357.307709 
	C371.781555,350.119995 364.871399,343.132507 357.965912,335.704102 
	C357.993439,320.136414 358.016357,305.009583 358.039276,289.882782 
z"/>
<path fill="#2EAEB4" opacity="1.000000" stroke="none" 
	d="
M158.094543,226.422394 
	C157.643082,213.649887 157.221954,201.181458 157.116699,188.710373 
	C157.101227,186.878143 158.585571,185.033249 160.091949,183.099152 
	C167.550888,189.635010 174.293823,196.265945 181.036774,202.896866 
	C181.016373,217.985489 180.995956,233.074097 180.967438,248.638672 
	C173.381821,241.651627 165.804337,234.188629 158.094543,226.422394 
z"/>
<path fill="#35B36E" opacity="1.000000" stroke="none" 
	d="
M362.347168,219.968033 
	C362.028168,207.562729 362.104370,195.009705 361.894501,182.461441 
	C361.864471,180.668228 360.450317,178.898148 359.440186,176.742264 
	C367.458282,168.218216 375.713013,160.069275 383.967712,151.920334 
	C384.311798,158.991058 384.710510,166.059647 384.984924,173.133072 
	C385.272064,180.534821 385.439758,187.941223 385.882233,195.699921 
	C378.286804,203.976791 370.468781,211.899307 362.347168,219.968033 
z"/>
<path fill="#2CADCB" opacity="1.000000" stroke="none" 
	d="
M93.116821,399.039124 
	C92.412140,396.732452 91.086891,394.420593 91.106155,392.119965 
	C91.210472,379.663696 91.647415,367.210144 91.966095,354.315857 
	C99.093079,346.641327 106.223701,339.406677 113.740517,332.411682 
	C114.293343,333.797028 114.619576,334.945129 114.601761,336.087921 
	C114.435936,346.728790 114.062431,357.369293 114.107002,368.008453 
	C114.118225,370.688141 115.412857,373.362488 115.976082,376.345886 
	C108.261909,384.114716 100.689362,391.576904 93.116821,399.039124 
z"/>
<path fill="#2DADBE" opacity="1.000000" stroke="none" 
	d="
M149.595383,386.172302 
	C150.063385,390.746338 150.840103,395.313934 150.936234,399.895752 
	C151.147888,409.982117 151.015945,420.075623 151.032669,430.642456 
	C144.605835,437.668518 138.170547,444.218414 131.434204,450.901245 
	C130.090500,448.812836 128.228607,446.620789 128.147888,444.365021 
	C127.808403,434.879791 128.075394,425.374390 127.935493,415.879120 
	C127.908104,414.020538 127.059311,412.174042 126.391235,409.831360 
	C133.427261,402.216217 140.661407,395.091766 148.127762,387.789917 
	C148.644333,387.333710 148.928711,387.054871 149.223984,386.571472 
	C149.234879,386.366913 149.595383,386.172302 149.595383,386.172302 
z"/>
<path fill="#2CADC3" opacity="1.000000" stroke="none" 
	d="
M116.117706,376.039276 
	C115.412857,373.362488 114.118225,370.688141 114.107002,368.008453 
	C114.062431,357.369293 114.435936,346.728790 114.601761,336.087921 
	C114.619576,334.945129 114.293343,333.797028 114.046104,332.267822 
	C120.736931,324.998291 127.508369,318.112305 134.582108,311.091095 
	C135.589020,313.035797 136.858032,315.103729 136.902374,317.197662 
	C137.116028,327.287720 136.964844,337.385010 137.030396,347.479187 
	C137.043091,349.432617 137.444870,351.383575 137.750000,353.993530 
	C130.594452,361.780731 123.356087,368.910004 116.117706,376.039276 
z"/>
<path fill="#37B45D" opacity="1.000000" stroke="none" 
	d="
M410.119385,82.037567 
	C409.746674,80.120804 409.074554,78.207573 409.051849,76.286667 
	C408.939850,66.813370 409.074646,57.336937 408.935242,47.864361 
	C408.907990,46.012875 408.053040,44.173573 407.233765,42.142101 
	C416.588226,36.157578 426.909943,33.614799 438.583740,36.076393 
	C438.991425,46.500553 438.984772,56.834560 438.555786,67.591522 
	C430.829285,65.728088 424.615723,67.164047 419.395569,73.026878 
	C416.536499,76.237907 413.226196,79.047150 410.119385,82.037567 
z"/>
<path fill="#31B092" opacity="1.000000" stroke="none" 
	d="
M257.302063,325.986603 
	C256.997223,312.916809 256.997406,299.999939 257.395203,286.556152 
	C258.762817,286.127167 259.782959,286.063873 260.695099,286.347687 
	C270.684601,289.455841 276.147491,297.959137 282.482697,305.134094 
	C281.423431,307.306946 280.181366,309.329590 280.089630,311.403107 
	C279.563202,323.303314 279.309692,335.215576 278.963623,347.123749 
	C271.844788,340.128998 264.725952,333.134247 257.302063,325.986603 
z"/>
<path fill="#2DADBE" opacity="1.000000" stroke="none" 
	d="
M148.970398,80.647079 
	C148.408646,83.427177 147.087479,85.906090 147.106598,88.374603 
	C147.201813,100.661903 147.649719,112.946480 147.660126,125.534210 
	C139.192154,117.571274 131.037476,109.306145 122.882805,101.041008 
	C123.588333,99.176842 124.864082,97.324722 124.903801,95.446480 
	C125.110367,85.677124 124.907997,75.899490 125.075142,66.128632 
	C125.112930,63.919300 126.054497,61.725433 126.845421,59.238777 
	C134.350174,66.082436 141.589554,73.211769 148.970398,80.647079 
z"/>
<path fill="#2BACD3" opacity="1.000000" stroke="none" 
	d="
M66.087311,134.420273 
	C66.304901,131.682755 66.926552,129.253174 66.952187,126.817337 
	C67.063629,116.228134 66.967888,105.636902 67.034950,95.046959 
	C67.046303,93.254883 67.486870,91.465523 68.195847,89.438461 
	C69.743637,90.601845 70.700996,92.122009 71.926224,93.381630 
	C78.957298,100.609993 86.051926,107.776543 92.718300,114.991928 
	C88.943497,115.189110 89.009758,117.634781 89.007912,120.021202 
	C89.001526,128.296402 89.107262,136.573532 88.953819,144.845917 
	C88.884033,148.608246 88.307037,152.361145 87.960114,156.118332 
	C80.712425,148.987335 73.464752,141.856323 66.087311,134.420273 
z"/>
<path fill="#37B360" opacity="1.000000" stroke="none" 
	d="
M403.039795,334.882172 
	C410.948181,342.687592 418.856537,350.493042 426.737305,358.949158 
	C426.140503,362.160828 425.132355,364.712921 425.080139,367.284424 
	C424.884216,376.937164 425.058533,386.596924 424.950195,396.252441 
	C424.928558,398.179932 424.274292,400.100372 423.612671,401.882935 
	C416.531525,394.868683 409.749451,387.995514 402.974609,380.646057 
	C403.001129,365.073914 403.020447,349.978027 403.039795,334.882172 
z"/>
<path fill="#33B183" opacity="1.000000" stroke="none" 
	d="
M322.964386,391.122375 
	C315.721039,383.987915 308.477692,376.853455 301.104675,368.942261 
	C300.993683,353.081512 301.012329,337.997528 301.336365,323.054871 
	C308.574432,330.119476 315.536530,337.013733 322.409973,343.995331 
	C323.516022,345.118744 324.226685,346.631439 324.773071,348.148224 
	C323.951019,350.169312 323.083954,352.002197 323.064148,353.844147 
	C322.930603,366.269165 322.976532,378.696075 322.964386,391.122375 
z"/>
<path fill="#36B367" opacity="1.000000" stroke="none" 
	d="
M402.896973,334.584412 
	C403.020447,349.978027 403.001129,365.073914 402.671753,380.495667 
	C394.635345,373.050354 386.908997,365.279114 379.182617,357.507904 
	C379.787811,355.342560 380.875702,353.186066 380.915741,351.010315 
	C381.102661,340.860046 380.965820,330.704224 381.031036,320.550934 
	C381.043701,318.585236 381.441345,316.621948 381.884552,314.303894 
	C388.989868,320.729004 395.872009,327.507812 402.896973,334.584412 
z"/>
<path fill="#2CADC5" opacity="1.000000" stroke="none" 
	d="
M132.042084,153.887344 
	C132.027985,166.758499 132.041122,179.629791 131.970673,192.500641 
	C131.960007,194.449066 131.560349,196.395370 131.117935,198.696533 
	C123.668449,191.939423 116.441658,184.828430 109.242004,177.020020 
	C109.512810,174.044388 109.952980,171.767395 109.967491,169.487701 
	C110.047241,156.958557 110.022812,144.428741 110.342438,132.036407 
	C117.781189,139.411545 124.911636,146.649445 132.042084,153.887344 
z"/>
<path fill="#35B276" opacity="1.000000" stroke="none" 
	d="
M363.898163,432.048431 
	C356.675140,424.934052 349.452118,417.819702 342.248962,410.011963 
	C342.512329,407.199341 342.949982,405.081543 342.966125,402.960602 
	C343.041565,393.042084 342.882294,383.120178 343.097321,373.205750 
	C343.142670,371.114502 344.407837,369.049652 345.410553,367.110474 
	C352.742767,374.350128 359.775360,381.451965 366.494873,388.890381 
	C365.787842,391.299164 365.077911,393.367645 365.053497,395.444214 
	C364.934570,405.562927 365.059570,415.684448 364.948608,425.803345 
	C364.925781,427.888641 364.264923,429.966919 363.898163,432.048431 
z"/>
<path fill="#2EAEB4" opacity="1.000000" stroke="none" 
	d="
M162.038483,330.117859 
	C161.692322,327.352539 161.114655,324.593475 161.040253,321.820862 
	C160.725708,310.101379 160.560928,298.377899 160.119141,286.301575 
	C167.047180,278.689331 174.197449,271.431335 181.653381,264.030762 
	C182.305817,270.501465 182.812943,277.111206 182.958481,283.728943 
	C183.137543,291.870880 183.015060,300.019409 182.894577,308.942383 
	C175.856995,316.519073 168.947754,323.318481 162.038483,330.117859 
z"/>
<path fill="#35B36E" opacity="1.000000" stroke="none" 
	d="
M364.042664,432.352112 
	C364.264923,429.966919 364.925781,427.888641 364.948608,425.803345 
	C365.059570,415.684448 364.934570,405.562927 365.053497,395.444214 
	C365.077911,393.367645 365.787842,391.299164 366.747681,389.076447 
	C373.888916,395.578369 380.464264,402.230774 387.039581,408.883209 
	C387.025055,420.972015 387.129974,433.063232 386.887573,445.147461 
	C386.843140,447.363434 385.387299,449.551086 384.232635,451.895996 
	C377.317291,445.578735 370.752228,439.117279 364.042664,432.352112 
z"/>
<path fill="#2BACD0" opacity="1.000000" stroke="none" 
	d="
M99.961311,435.886963 
	C100.307640,444.438263 100.713135,452.987701 100.975990,461.541565 
	C101.112885,465.996185 100.998238,470.458527 100.996155,475.375427 
	C92.613617,479.982605 83.848557,481.131256 74.676430,479.258972 
	C73.568695,479.032837 72.408104,479.065613 70.874878,478.897888 
	C70.985001,476.287537 71.824471,473.772644 71.938820,471.225189 
	C72.321030,462.710602 72.443764,454.184387 73.279282,445.339966 
	C80.595406,448.922882 89.428802,447.301147 93.898956,441.692444 
	C95.627129,439.524078 97.923683,437.808685 99.961311,435.886963 
z"/>
<path fill="#2BACD0" opacity="1.000000" stroke="none" 
	d="
M98.646622,37.990067 
	C98.997055,47.780819 99.149094,57.399578 98.885414,67.006927 
	C98.824265,69.234901 97.344894,71.423935 95.895264,73.698746 
	C92.872528,71.861641 90.735443,69.356354 88.021690,68.168350 
	C80.913696,65.056671 75.292549,68.710709 70.046562,73.114143 
	C69.696899,61.436417 69.347229,49.758690 68.996185,37.622772 
	C78.834702,34.108391 88.611687,33.890488 98.646622,37.990067 
z"/>
<path fill="#34B278" opacity="1.000000" stroke="none" 
	d="
M357.897552,289.584412 
	C358.016357,305.009583 357.993439,320.136414 357.662903,335.552246 
	C350.557159,328.934906 343.759003,322.028503 336.960876,315.122101 
	C336.860931,299.967072 336.760986,284.812012 336.884338,269.303406 
	C343.990417,275.728546 350.873108,282.507324 357.897552,289.584412 
z"/>
<path fill="#37B459" opacity="1.000000" stroke="none" 
	d="
M423.911743,402.024048 
	C424.274292,400.100372 424.928558,398.179932 424.950195,396.252441 
	C425.058533,386.596924 424.884216,376.937164 425.080139,367.284424 
	C425.132355,364.712921 426.140503,362.160828 426.881470,359.247681 
	C433.619049,365.359131 440.184906,371.822662 446.894165,378.583252 
	C446.691589,390.294983 446.429108,401.713318 445.938538,413.121796 
	C445.821930,415.833893 444.941925,418.513153 443.782684,421.412109 
	C436.738770,415.085815 430.325256,408.554932 423.911743,402.024048 
z"/>
<path fill="#2CADCB" opacity="1.000000" stroke="none" 
	d="
M110.034142,131.899155 
	C110.022812,144.428741 110.047241,156.958557 109.967491,169.487701 
	C109.952980,171.767395 109.512810,174.044388 109.109726,176.715485 
	C102.040550,170.314545 95.130791,163.520721 88.090576,156.422607 
	C88.307037,152.361145 88.884033,148.608246 88.953819,144.845917 
	C89.107262,136.573532 89.001526,128.296402 89.007912,120.021202 
	C89.009758,117.634781 88.943497,115.189110 93.022125,115.122070 
	C99.166466,120.782616 104.600304,126.340881 110.034142,131.899155 
z"/>
<path fill="#32B18A" opacity="1.000000" stroke="none" 
	d="
M301.031006,322.913544 
	C301.012329,337.997528 300.993683,353.081512 300.966492,368.641724 
	C293.717743,361.986786 286.477539,354.855652 279.100464,347.424133 
	C279.309692,335.215576 279.563202,323.303314 280.089630,311.403107 
	C280.181366,309.329590 281.423431,307.306946 282.639526,305.437317 
	C289.106873,311.380371 295.068939,317.146942 301.031006,322.913544 
z"/>
<path fill="#34B27C" opacity="1.000000" stroke="none" 
	d="
M345.110962,366.972656 
	C344.407837,369.049652 343.142670,371.114502 343.097321,373.205750 
	C342.882294,383.120178 343.041565,393.042084 342.966125,402.960602 
	C342.949982,405.081543 342.512329,407.199341 342.109222,409.711151 
	C335.713409,403.976318 329.477203,397.848938 323.102722,391.421936 
	C322.976532,378.696075 322.930603,366.269165 323.064148,353.844147 
	C323.083954,352.002197 323.951019,350.169312 325.073120,348.286682 
	C332.183746,354.484955 338.647369,360.728821 345.110962,366.972656 
z"/>
<path fill="#37B45D" opacity="1.000000" stroke="none" 
	d="
M413.197632,473.963867 
	C412.914825,463.956604 412.941864,454.080902 413.016449,444.205536 
	C413.033539,441.946472 412.618958,439.336029 416.606873,439.333801 
	C423.636780,446.071716 430.866791,449.327698 439.888214,444.955933 
	C440.590546,446.880798 441.835052,448.787781 441.899170,450.733673 
	C442.145386,458.204803 442.013031,465.688477 442.029602,473.643982 
	C432.530518,477.054321 423.026337,477.050018 413.197632,473.963867 
z"/>
<path fill="#000000" opacity="1.000000" stroke="none" 
	d="
M440.038330,444.650574 
	C430.866791,449.327698 423.636780,446.071716 416.995850,439.309296 
	C407.104706,429.059845 397.375671,419.118683 387.343109,409.030365 
	C380.464264,402.230774 373.888916,395.578369 367.060760,388.739899 
	C359.775360,381.451965 352.742767,374.350128 345.410553,367.110474 
	C338.647369,360.728821 332.183746,354.484955 325.420105,348.102661 
	C324.226685,346.631439 323.516022,345.118744 322.409973,343.995331 
	C315.536530,337.013733 308.574432,330.119476 301.336365,323.054871 
	C295.068939,317.146942 289.106873,311.380371 282.987976,305.310547 
	C276.147491,297.959137 270.684601,289.455841 260.695099,286.347687 
	C259.782959,286.063873 258.762817,286.127167 257.394470,286.097961 
	C251.231461,285.716339 246.959213,288.768951 243.140610,292.436554 
	C237.739502,297.624054 232.584686,303.067963 227.160263,308.689026 
	C218.051010,317.762939 209.106110,326.550140 200.022461,335.644531 
	C190.978027,344.749420 182.072311,353.547150 173.026794,362.652130 
	C165.240311,370.525116 157.593613,378.090851 149.771149,385.914429 
	C149.595383,386.172302 149.234879,386.366913 148.925980,386.690979 
	C148.376572,387.332458 148.136063,387.649872 147.895554,387.967285 
	C140.661407,395.091766 133.427261,402.216217 126.046890,409.641998 
	C117.341858,418.388306 108.783043,426.833313 100.092758,435.582642 
	C97.923683,437.808685 95.627129,439.524078 93.898956,441.692444 
	C89.428802,447.301147 80.595406,448.922882 73.503891,444.987885 
	C66.762016,438.885712 65.158508,431.885895 69.054596,423.432220 
	C77.024330,415.243866 84.929756,407.448486 92.975998,399.346130 
	C100.689362,391.576904 108.261909,384.114716 115.976089,376.345886 
	C123.356087,368.910004 130.594452,361.780731 137.975098,354.345154 
	C146.000748,346.266327 153.884125,338.493744 161.903000,330.419495 
	C168.947754,323.318481 175.856995,316.519073 182.902405,309.418335 
	C189.635040,302.628845 196.231506,296.140747 203.274445,289.213074 
	C210.407104,282.087250 216.879517,275.167389 223.848297,268.789948 
	C229.249268,263.847229 229.446075,252.613800 226.029221,248.831131 
	C219.120163,241.182343 211.463593,234.208817 204.115280,226.956818 
	C203.231567,225.621017 202.535538,224.100662 201.433304,222.979706 
	C194.891510,216.326752 188.255600,209.766296 181.344055,203.035812 
	C174.293823,196.265945 167.550888,189.635010 160.461182,182.981140 
	C159.238602,181.635880 158.550339,180.128433 157.457047,179.020737 
	C149.235458,170.690872 140.934097,162.439774 132.349884,154.025696 
	C124.911636,146.649445 117.781189,139.411545 110.342438,132.036407 
	C104.600304,126.340881 99.166466,120.782616 93.428802,115.094208 
	C86.051926,107.776543 78.957298,100.609993 71.926224,93.381630 
	C70.700996,92.122009 69.743637,90.601845 68.354065,89.045097 
	C66.186981,83.558388 67.238152,78.602959 70.012512,73.489502 
	C75.292549,68.710709 80.913696,65.056671 88.021690,68.168350 
	C90.735443,69.356354 92.872528,71.861641 95.578079,73.903946 
	C104.682030,82.951004 113.480301,91.860710 122.580688,100.905716 
	C131.037476,109.306145 139.192154,117.571274 147.652771,125.979538 
	C155.756241,134.028549 163.553741,141.934448 171.656860,149.985992 
	C180.399963,158.675140 188.837463,167.218628 197.574707,175.899994 
	C207.366379,185.633759 216.858307,195.229645 226.654602,204.970428 
	C233.954315,211.911057 240.769028,218.910995 248.065643,225.366180 
	C250.012527,227.088547 253.434158,227.143936 256.587433,227.899261 
	C261.986420,228.744217 265.863220,226.731400 269.248260,223.270142 
	C273.048889,219.383957 276.919647,215.566345 280.899628,211.419617 
	C289.634277,202.628632 298.229187,194.136887 306.971924,185.341736 
	C315.665344,176.598160 324.210999,168.157974 332.898132,159.419556 
	C340.611511,151.652496 348.183472,144.183670 355.897186,136.416672 
	C365.299438,126.960106 374.559906,117.801720 383.969971,108.341034 
	C392.686005,99.573051 401.252472,91.107376 409.969147,82.339630 
	C413.226196,79.047150 416.536499,76.237907 419.395569,73.026878 
	C424.615723,67.164047 430.829285,65.728088 438.548340,68.067711 
	C444.297485,71.939728 447.650574,76.584496 447.099030,83.697464 
	C446.635712,89.672791 442.435577,92.839874 438.750854,96.909760 
	C438.568054,97.163956 438.247650,97.386497 437.946411,97.698715 
	C437.391510,98.329987 437.137848,98.649033 436.884155,98.968079 
	C427.662933,108.103165 418.441681,117.238251 409.076752,126.677185 
	C400.710266,135.096375 392.487488,143.211731 384.116211,151.623703 
	C375.713013,160.069275 367.458282,168.218216 359.051361,176.667603 
	C351.010223,184.764389 343.121338,192.560760 335.094849,200.661072 
	C327.370331,208.392380 319.783417,215.819717 311.752686,223.695404 
	C304.853241,230.616180 298.319916,237.013367 291.962311,243.580673 
	C284.527649,251.260559 283.759399,261.547699 290.463074,268.834717 
	C296.300812,275.180420 302.718781,280.992279 308.880371,287.040009 
	C318.038513,296.301666 327.196655,305.563293 336.657837,314.973511 
	C343.759003,322.028503 350.557159,328.934906 357.658264,335.993164 
	C364.871399,343.132507 371.781555,350.119995 378.937134,357.307709 
	C386.908997,365.279114 394.635345,373.050354 402.664551,380.971954 
	C409.749451,387.995514 416.531525,394.868683 423.612671,401.882935 
	C430.325256,408.554932 436.738770,415.085815 443.424622,421.763733 
	C449.055908,430.808441 448.220917,436.147614 440.038330,444.650574 
z"/>
<path fill="#32B186" opacity="1.000000" stroke="none" 
	d="
M309.286987,287.011597 
	C302.718781,280.992279 296.300812,275.180420 290.463074,268.834717 
	C283.759399,261.547699 284.527649,251.260559 291.962311,243.580673 
	C298.319916,237.013367 304.853241,230.616180 311.610352,223.994446 
	C312.271545,225.617493 312.935822,227.388504 312.943787,229.162460 
	C313.023010,246.759720 312.995544,264.357452 312.992737,281.955078 
	C312.992340,284.342712 313.076538,286.805756 309.286987,287.011597 
z"/>
<path fill="#2FAFA4" opacity="1.000000" stroke="none" 
	d="
M203.806519,227.201263 
	C211.463593,234.208817 219.120163,241.182343 226.029221,248.831131 
	C229.446075,252.613800 229.249268,263.847229 223.848297,268.789948 
	C216.879517,275.167389 210.407104,282.087250 203.418549,288.908081 
	C202.744568,287.128296 202.060303,285.215576 202.050491,283.299377 
	C201.965454,266.702362 201.950653,250.104355 202.067795,233.507751 
	C202.082092,231.483795 202.999100,229.466217 203.806519,227.201263 
z"/>
<path fill="#38B452" opacity="1.000000" stroke="none" 
	d="
M437.122803,98.787674 
	C437.137848,98.649033 437.391510,98.329987 437.949371,97.893753 
	C437.956207,98.053467 437.658813,98.330376 437.122803,98.787674 
z"/>
<path fill="#2EAEB8" opacity="1.000000" stroke="none" 
	d="
M148.127762,387.789917 
	C148.136063,387.649872 148.376572,387.332458 148.915085,386.895508 
	C148.928711,387.054871 148.644333,387.333710 148.127762,387.789917 
z"/>
</svg>